<svg width="360" height="32" viewBox="0 0 360 32" fill="none" xmlns="http://www.w3.org/2000/svg">
<g clip-path="url(#clip0_1_588)">
<path d="M254.374 5.16113V8.69685H252.272C251.504 8.69685 250.986 8.85756 250.718 9.17899C250.45 9.50042 250.316 9.98256 250.316 10.6254V13.1567H254.24L253.718 17.121H250.316V27.2861H246.218V17.121H242.803V13.1567H246.218V10.237C246.218 8.57631 246.682 7.28836 247.611 6.37319C248.539 5.45801 249.776 5.00042 251.321 5.00042C252.633 5.00042 253.651 5.05399 254.374 5.16113Z" fill="#1F1E26"/>
</g>
<g clip-path="url(#clip1_1_588)">
<path d="M299.434 19.4245C299.434 19.4245 299.601 19.2571 299.936 18.9223C300.271 18.5875 300.439 17.9468 300.439 17.0004C300.439 16.054 300.104 15.246 299.434 14.5763C298.764 13.9067 297.956 13.5718 297.01 13.5718C296.064 13.5718 295.255 13.9067 294.586 14.5763C293.916 15.246 293.581 16.054 293.581 17.0004C293.581 17.9468 293.916 18.7549 294.586 19.4245C295.255 20.0942 296.064 20.429 297.01 20.429C297.956 20.429 298.764 20.0942 299.434 19.4245ZM300.747 13.2638C300.747 13.2638 301.003 13.5205 301.517 14.0339C302.03 14.5473 302.287 15.5361 302.287 17.0004C302.287 18.4647 301.773 19.7102 300.747 20.737C299.72 21.7638 298.474 22.2772 297.01 22.2772C295.546 22.2772 294.3 21.7638 293.273 20.737C292.247 19.7102 291.733 18.4647 291.733 17.0004C291.733 15.5361 292.247 14.2906 293.273 13.2638C294.3 12.237 295.546 11.7236 297.01 11.7236C298.474 11.7236 299.72 12.237 300.747 13.2638ZM303.372 10.6388C303.372 10.6388 303.432 10.6991 303.552 10.8196C303.673 10.9402 303.733 11.1701 303.733 11.5093C303.733 11.8486 303.613 12.1388 303.372 12.3799C303.13 12.621 302.84 12.7415 302.501 12.7415C302.162 12.7415 301.872 12.621 301.63 12.3799C301.389 12.1388 301.269 11.8486 301.269 11.5093C301.269 11.1701 301.389 10.8799 301.63 10.6388C301.872 10.3977 302.162 10.2772 302.501 10.2772C302.84 10.2772 303.13 10.3977 303.372 10.6388ZM298.035 8.55622C298.035 8.55622 297.879 8.55734 297.569 8.55957C297.259 8.5618 297.072 8.56292 297.01 8.56292C296.947 8.56292 296.606 8.56069 295.985 8.55622C295.365 8.55176 294.894 8.55176 294.572 8.55622C294.251 8.56069 293.82 8.57408 293.28 8.5964C292.74 8.61872 292.28 8.66336 291.901 8.73033C291.521 8.79729 291.202 8.87988 290.943 8.9781C290.497 9.15667 290.104 9.4156 289.764 9.75488C289.425 10.0942 289.166 10.487 288.988 10.9335C288.889 11.1924 288.807 11.5116 288.74 11.891C288.673 12.2705 288.628 12.7303 288.606 13.2705C288.584 13.8107 288.57 14.2415 288.566 14.5629C288.561 14.8843 288.561 15.3553 288.566 15.9759C288.57 16.5964 288.572 16.9379 288.572 17.0004C288.572 17.0629 288.57 17.4044 288.566 18.025C288.561 18.6455 288.561 19.1165 288.566 19.4379C288.57 19.7593 288.584 20.1902 288.606 20.7303C288.628 21.2705 288.673 21.7303 288.74 22.1098C288.807 22.4893 288.889 22.8085 288.988 23.0674C289.166 23.5138 289.425 23.9067 289.764 24.246C290.104 24.5852 290.497 24.8442 290.943 25.0227C291.202 25.121 291.521 25.2035 291.901 25.2705C292.28 25.3375 292.74 25.3821 293.28 25.4044C293.82 25.4268 294.251 25.4402 294.572 25.4446C294.894 25.4491 295.365 25.4491 295.985 25.4446C296.606 25.4402 296.947 25.4379 297.01 25.4379C297.072 25.4379 297.414 25.4402 298.035 25.4446C298.655 25.4491 299.126 25.4491 299.447 25.4446C299.769 25.4402 300.2 25.4268 300.74 25.4044C301.28 25.3821 301.74 25.3375 302.119 25.2705C302.499 25.2035 302.818 25.121 303.077 25.0227C303.523 24.8442 303.916 24.5852 304.255 24.246C304.595 23.9067 304.854 23.5138 305.032 23.0674C305.13 22.8085 305.213 22.4893 305.28 22.1098C305.347 21.7303 305.392 21.2705 305.414 20.7303C305.436 20.1902 305.45 19.7593 305.454 19.4379C305.459 19.1165 305.459 18.6455 305.454 18.025C305.45 17.4044 305.447 17.0629 305.447 17.0004C305.447 16.9379 305.45 16.5964 305.454 15.9759C305.459 15.3553 305.459 14.8843 305.454 14.5629C305.45 14.2415 305.436 13.8107 305.414 13.2705C305.392 12.7303 305.347 12.2705 305.28 11.891C305.213 11.5116 305.13 11.1924 305.032 10.9335C304.854 10.487 304.595 10.0942 304.255 9.75488C303.916 9.4156 303.523 9.15667 303.077 8.9781C302.818 8.87988 302.499 8.79729 302.119 8.73033C301.74 8.66336 301.28 8.61872 300.74 8.5964C300.2 8.57408 299.769 8.56069 299.447 8.55622C299.126 8.55176 298.655 8.55176 298.035 8.55622ZM307.229 12.7549C307.273 13.5406 307.296 14.9558 307.296 17.0004C307.296 19.0451 307.273 20.4602 307.229 21.246C307.139 23.1031 306.586 24.5406 305.568 25.5585C304.55 26.5763 303.113 27.1299 301.255 27.2192C300.47 27.2638 299.055 27.2861 297.01 27.2861C294.965 27.2861 293.55 27.2638 292.764 27.2192C290.907 27.1299 289.47 26.5763 288.452 25.5585C287.434 24.5406 286.88 23.1031 286.791 21.246C286.747 20.4602 286.724 19.0451 286.724 17.0004C286.724 14.9558 286.747 13.5406 286.791 12.7549C286.88 10.8977 287.434 9.46024 288.452 8.44238C289.47 7.42453 290.907 6.87095 292.764 6.78167C293.55 6.73703 294.965 6.7147 297.01 6.7147C299.055 6.7147 300.47 6.73703 301.255 6.78167C303.113 6.87095 304.55 7.42453 305.568 8.44238C306.586 9.46024 307.139 10.8977 307.229 12.7549Z" fill="#1F1E26"/>
</g>
<g clip-path="url(#clip2_1_588)">
<path d="M358.614 10.4641C358.016 11.3391 357.293 12.0847 356.445 12.7008C356.454 12.8258 356.458 13.0133 356.458 13.2633C356.458 14.424 356.288 15.5824 355.949 16.7387C355.61 17.895 355.094 19.0043 354.402 20.0668C353.71 21.1293 352.887 22.0691 351.931 22.886C350.976 23.703 349.824 24.3548 348.476 24.8414C347.128 25.328 345.686 25.5713 344.15 25.5713C341.73 25.5713 339.516 24.924 337.507 23.6293C337.82 23.665 338.168 23.6829 338.552 23.6829C340.561 23.6829 342.351 23.0668 343.922 21.8347C342.985 21.8168 342.146 21.5289 341.405 20.9708C340.663 20.4128 340.155 19.7008 339.878 18.8347C340.172 18.8793 340.445 18.9016 340.695 18.9016C341.079 18.9016 341.458 18.8525 341.833 18.7543C340.833 18.549 340.005 18.0512 339.349 17.261C338.692 16.4708 338.364 15.5534 338.364 14.5088V14.4552C338.971 14.7945 339.623 14.9775 340.32 15.0043C339.73 14.6115 339.262 14.0981 338.913 13.4641C338.565 12.8302 338.391 12.1427 338.391 11.4016C338.391 10.6159 338.588 9.88825 338.98 9.21861C340.061 10.549 341.376 11.6137 342.925 12.4128C344.474 13.2119 346.132 13.6561 347.9 13.7454C347.829 13.4061 347.793 13.0758 347.793 12.7543C347.793 11.5579 348.215 10.5378 349.059 9.69406C349.902 8.85031 350.922 8.42843 352.119 8.42843C353.369 8.42843 354.422 8.88379 355.28 9.7945C356.253 9.607 357.168 9.25879 358.025 8.74986C357.695 9.77665 357.061 10.5713 356.123 11.1338C356.954 11.0445 357.784 10.8213 358.614 10.4641Z" fill="#1F1E26"/>
</g>
<defs>
<clipPath id="clip0_1_588">
<rect width="13.92" height="24" fill="white" transform="matrix(1 0 0 -1 242.8 29)"/>
</clipPath>
<clipPath id="clip1_1_588">
<rect width="20.78" height="24" fill="white" transform="matrix(1 0 0 -1 286.72 29)"/>
</clipPath>
<clipPath id="clip2_1_588">
<rect width="22.5" height="24" fill="white" transform="matrix(1 0 0 -1 337.5 29)"/>
</clipPath>
</defs>
</svg>
