<svg width="160" height="26" viewBox="0 0 160 26" fill="none" xmlns="http://www.w3.org/2000/svg">
<g clip-path="url(#clip0_1_606)">
<path fill-rule="evenodd" clip-rule="evenodd" d="M8.095 0.46L0 25.4H3.605L5.338 19.775H14.598L16.296 25.399H19.937L11.983 0.46H8.095ZM10.038 4.28L13.75 16.769H6.22L10.038 4.279V4.28ZM34.218 18.218V25.4H30.754V0.46H38.284C43.338 0.46 46.589 3.573 46.589 9.162V9.869C46.589 14.009 44.434 16.591 41.181 17.475L46.484 25.399H42.489L37.894 18.219L34.218 18.218ZM34.218 14.893H37.894C40.864 14.893 43.161 13.407 43.161 9.834V8.985C43.161 5.095 40.899 3.821 37.894 3.821H34.218V14.893ZM74.373 16.343C74.373 21.791 71.298 25.753 66.031 25.753C61.118 25.753 57.725 22.181 57.725 17.086V8.632C57.725 3.538 61.118 0 66.031 0C71.193 0 74.373 3.891 74.373 9.198H70.91C70.803 6.155 69.46 3.36 66.03 3.36C63.592 3.36 61.187 4.917 61.187 8.525V17.193C61.187 20.624 63.309 22.393 66.03 22.393C69.777 22.393 70.908 19.138 70.908 16.343H74.373ZM99.72 25.4L98.023 19.775H88.763L87.028 25.4H83.424L91.518 0.46H95.406L103.361 25.4H99.72ZM89.645 16.768H97.174L93.463 4.28L89.645 16.768ZM114.178 25.4V0.46H122.168C127.079 0.46 130.508 3.609 130.508 9.693V16.13C130.508 22.18 127.079 25.4 122.168 25.4H114.178ZM121.778 22.074C124.783 22.074 127.045 20.518 127.045 15.317V10.471C127.045 5.341 124.818 3.82 121.778 3.82H117.642V22.074H121.778ZM146.346 22.039H158.941L160 25.399H142.881V0.46H152.032L153.11 3.82H146.346V11.32H155.436L156.443 14.397H146.346V22.039Z" fill="#373D3D"/>
</g>
<defs>
<clipPath id="clip0_1_606">
<rect width="160" height="26" fill="white"/>
</clipPath>
</defs>
</svg>
