<svg width="11" height="17" viewBox="0 0 11 17" fill="none" xmlns="http://www.w3.org/2000/svg">
<path d="M10.7249 8.97477L2.90005 16.7996C2.76647 16.9332 2.60829 17 2.4255 17C2.2427 17 2.08452 16.9332 1.95094 16.7996L0.200367 15.0491C0.066789 14.9155 0 14.7573 0 14.5745C0 14.3917 0.066789 14.2335 0.200367 14.1L5.8001 8.50022L0.200367 2.90049C0.066789 2.76691 0 2.60873 0 2.42594C0 2.24315 0.066789 2.08496 0.200367 1.95138L1.95094 0.200809C2.08452 0.0672293 2.2427 0.000440546 2.4255 0.000440546C2.60829 0.000440546 2.76647 0.0672293 2.90005 0.200809L10.7249 8.02567C10.8585 8.15924 10.9253 8.31743 10.9253 8.50022C10.9253 8.68301 10.8585 8.8412 10.7249 8.97477Z" fill="white"/>
</svg>
