<?xml version="1.0" encoding="UTF-8"?>
<svg xmlns="http://www.w3.org/2000/svg" xmlns:xlink="http://www.w3.org/1999/xlink" width="500px" height="181px" viewBox="0 0 501 181" version="1.1">
<defs>
<clipPath id="clip1">
  <path d="M 0.078125 57.195312 L 293.085938 57.195312 L 293.085938 101.535156 L 0.078125 101.535156 Z M 0.078125 57.195312 "/>
</clipPath>
<clipPath id="clip2">
  <path d="M 98.234375 112.003906 L 293.085938 112.003906 L 293.085938 124.019531 L 98.234375 124.019531 Z M 98.234375 112.003906 "/>
</clipPath>
<clipPath id="clip3">
  <path d="M 367.09375 49.265625 L 452.457031 49.265625 L 452.457031 131.953125 L 367.09375 131.953125 Z M 367.09375 49.265625 "/>
</clipPath>
<clipPath id="clip4">
  <path d="M 401 0.109375 L 418 0.109375 L 418 20 L 401 20 Z M 401 0.109375 "/>
</clipPath>
</defs>
<g id="surface1">
<g clip-path="url(#clip1)" clip-rule="nonzero">
<path style=" stroke:none;fill-rule:nonzero;fill:rgb(0%,0%,0%);fill-opacity:1;" d="M 16.800781 60.722656 L 11.90625 61.976562 L 23.25 95.203125 L 23.492188 95.203125 L 34.296875 61.976562 L 29.34375 60.722656 L 29.34375 57.855469 L 43.910156 57.855469 L 43.910156 60.722656 L 39.015625 61.976562 L 25.699219 100.878906 L 19.25 100.878906 L 4.859375 61.976562 L 0.0820312 60.722656 L 0.0820312 57.855469 L 16.800781 57.855469 Z M 89.234375 60.722656 L 84.21875 61.976562 L 84.21875 96.757812 L 89.234375 98.011719 L 89.234375 100.878906 L 72.632812 100.878906 L 72.632812 98.011719 L 77.648438 96.757812 L 77.648438 80.683594 L 58.003906 80.683594 L 58.003906 96.757812 L 63.019531 98.011719 L 63.019531 100.878906 L 46.417969 100.878906 L 46.417969 98.011719 L 51.4375 96.757812 L 51.4375 61.976562 L 46.417969 60.722656 L 46.417969 57.855469 L 63.019531 57.855469 L 63.019531 60.722656 L 58.003906 61.976562 L 58.003906 76.917969 L 77.648438 76.917969 L 77.648438 61.976562 L 72.632812 60.722656 L 72.632812 57.855469 L 89.234375 57.855469 Z M 111.089844 101.539062 C 108.78125 101.539062 106.71875 101.1875 104.902344 100.484375 C 103.09375 99.792969 101.554688 98.769531 100.28125 97.414062 L 99.625 100.878906 L 95.683594 100.878906 L 95.683594 87.015625 L 99.921875 87.015625 C 100.160156 90.878906 101.125 93.667969 102.8125 95.382812 C 104.507812 97.09375 106.949219 97.953125 110.132812 97.953125 C 112.800781 97.953125 114.832031 97.421875 116.222656 96.363281 C 117.617188 95.3125 118.3125 93.75 118.3125 91.675781 C 118.3125 89.964844 117.882812 88.550781 117.023438 87.433594 C 116.171875 86.320312 114.9375 85.324219 113.320312 84.445312 C 111.714844 83.570312 109.792969 82.695312 107.566406 81.816406 C 105.097656 80.78125 102.988281 79.746094 101.234375 78.710938 C 99.484375 77.675781 98.152344 76.417969 97.234375 74.945312 C 96.320312 73.472656 95.863281 71.578125 95.863281 69.269531 C 95.863281 65.441406 97.042969 62.476562 99.410156 60.363281 C 101.78125 58.253906 104.957031 57.195312 108.9375 57.195312 C 112.878906 57.195312 116.085938 58.3125 118.550781 60.542969 L 119.03125 57.855469 L 122.972656 57.855469 L 122.972656 71.71875 L 118.96875 71.71875 C 118.96875 67.933594 118.261719 65.152344 116.84375 63.375 C 115.4375 61.605469 113.21875 60.722656 110.191406 60.722656 C 105.058594 60.722656 102.488281 63.09375 102.488281 67.832031 C 102.488281 69.1875 102.75 70.285156 103.265625 71.121094 C 103.785156 71.957031 104.667969 72.734375 105.917969 73.449219 C 107.175781 74.167969 108.957031 75.023438 111.269531 76.019531 C 114.570312 77.453125 117.226562 78.828125 119.234375 80.144531 C 121.246094 81.457031 122.699219 82.871094 123.59375 84.386719 C 124.492188 85.902344 124.941406 87.695312 124.941406 89.765625 C 124.941406 92.273438 124.34375 94.40625 123.152344 96.160156 C 121.957031 97.910156 120.324219 99.246094 118.253906 100.164062 C 116.183594 101.078125 113.796875 101.539062 111.089844 101.539062 Z M 129.707031 70.703125 L 129.707031 57.855469 L 165.894531 57.855469 L 165.894531 70.703125 L 162.550781 70.703125 L 160.636719 61.738281 L 151.085938 61.738281 L 151.085938 96.578125 L 157.414062 98.011719 L 157.414062 100.878906 L 138.1875 100.878906 L 138.1875 98.011719 L 144.515625 96.578125 L 144.515625 61.738281 L 134.902344 61.738281 L 133.050781 70.703125 Z M 210.4375 78.890625 C 210.4375 82.316406 209.921875 85.550781 208.886719 88.59375 C 207.851562 91.644531 206.378906 94.207031 204.46875 96.277344 C 202.796875 98.03125 200.796875 99.335938 198.472656 100.1875 C 196.140625 101.046875 193.421875 101.476562 190.316406 101.476562 C 187.210938 101.476562 184.484375 101.058594 182.132812 100.222656 C 179.785156 99.386719 177.835938 98.132812 176.28125 96.457031 C 174.492188 94.585938 173.089844 92.203125 172.078125 89.3125 C 171.058594 86.425781 170.550781 83.269531 170.550781 79.84375 C 170.550781 76.378906 171.078125 73.121094 172.140625 70.070312 C 173.191406 67.023438 174.652344 64.488281 176.523438 62.457031 C 178.195312 60.664062 180.15625 59.347656 182.410156 58.511719 C 184.65625 57.675781 187.347656 57.257812 190.496094 57.257812 C 193.558594 57.257812 196.257812 57.664062 198.589844 58.476562 C 200.917969 59.296875 202.933594 60.5625 204.644531 62.277344 C 206.558594 64.226562 208.003906 66.667969 208.980469 69.589844 C 209.953125 72.523438 210.4375 75.621094 210.4375 78.890625 Z M 178.015625 78.648438 C 178.015625 81.917969 178.292969 84.804688 178.851562 87.316406 C 179.40625 89.824219 180.203125 91.875 181.238281 93.46875 C 182.234375 94.945312 183.5 96.046875 185.035156 96.78125 C 186.566406 97.523438 188.445312 97.890625 190.671875 97.890625 C 194.734375 97.890625 197.738281 96.578125 199.691406 93.949219 C 200.765625 92.515625 201.582031 90.601562 202.136719 88.210938 C 202.695312 85.820312 202.972656 82.992188 202.972656 79.726562 C 202.972656 76.457031 202.6875 73.597656 202.113281 71.144531 C 201.535156 68.699219 200.726562 66.71875 199.691406 65.203125 C 198.65625 63.691406 197.351562 62.574219 195.785156 61.859375 C 194.207031 61.140625 192.367188 60.78125 190.253906 60.78125 C 188.226562 60.78125 186.472656 61.121094 185 61.796875 C 183.527344 62.476562 182.292969 63.453125 181.296875 64.726562 C 179.109375 67.632812 178.015625 72.277344 178.015625 78.648438 Z M 245.609375 78.050781 C 244.890625 78.609375 244.066406 79.109375 243.125 79.546875 C 242.195312 79.984375 241.03125 80.34375 239.636719 80.621094 C 239.917969 80.941406 240.273438 81.367188 240.710938 81.902344 C 241.152344 82.441406 241.570312 83.050781 241.964844 83.730469 L 249.730469 96.875 L 255.042969 98.011719 L 255.042969 100.878906 L 242.144531 100.878906 L 242.144531 98.011719 L 233.785156 81.757812 L 227.039062 81.757812 L 227.039062 96.757812 L 232.710938 98.011719 L 232.710938 100.878906 L 215.453125 100.878906 L 215.453125 98.011719 L 220.46875 96.757812 L 220.46875 61.976562 L 215.453125 60.722656 L 215.453125 57.855469 L 236.59375 57.855469 C 238.503906 57.855469 240.175781 58.035156 241.609375 58.390625 C 243.042969 58.75 244.335938 59.328125 245.488281 60.125 C 246.921875 61.082031 248.058594 62.394531 248.894531 64.070312 C 249.730469 65.742188 250.148438 67.414062 250.148438 69.089844 C 250.148438 70.761719 249.738281 72.402344 248.917969 74.011719 C 248.105469 75.628906 247.003906 76.976562 245.609375 78.050781 Z M 227.039062 61.617188 L 227.039062 77.992188 L 234.980469 77.992188 C 237.167969 77.992188 238.980469 77.375 240.414062 76.140625 C 241.210938 75.421875 241.835938 74.46875 242.289062 73.273438 C 242.75 72.078125 242.980469 70.800781 242.980469 69.445312 C 242.980469 68.132812 242.742188 66.925781 242.265625 65.824219 C 241.789062 64.734375 241.152344 63.851562 240.355469 63.171875 C 239.675781 62.613281 238.890625 62.214844 237.988281 61.976562 C 237.097656 61.738281 236.015625 61.617188 234.742188 61.617188 Z M 283.765625 70.882812 L 283.765625 86.65625 L 280.121094 86.65625 L 279.046875 80.742188 L 269.734375 80.742188 L 269.734375 96.996094 L 287.230469 96.996094 L 289.019531 87.554688 L 293.082031 87.554688 L 293.082031 100.878906 L 257.550781 100.878906 L 257.550781 98.011719 L 263.164062 96.757812 L 263.164062 61.976562 L 257.550781 60.722656 L 257.550781 57.855469 L 291.765625 57.855469 L 291.765625 70.523438 L 288.066406 70.523438 L 286.214844 61.617188 L 269.734375 61.617188 L 269.734375 76.855469 L 279.046875 76.855469 L 280.121094 70.882812 Z M 283.765625 70.882812 "/>
</g>
<g clip-path="url(#clip2)" clip-rule="nonzero">
<path style=" stroke:none;fill-rule:nonzero;fill:rgb(0%,0%,0%);fill-opacity:1;" d="M 99.550781 112.269531 L 99.550781 121.75 L 98.269531 121.75 L 98.269531 112.269531 Z M 103.351562 121.75 L 102.171875 121.75 L 102.171875 116.054688 L 101.429688 115.96875 C 101.335938 115.945312 101.261719 115.914062 101.203125 115.867188 C 101.140625 115.820312 101.113281 115.753906 101.113281 115.664062 L 101.113281 115.179688 L 102.171875 115.179688 L 102.171875 114.53125 C 102.171875 114.148438 102.222656 113.808594 102.332031 113.511719 C 102.4375 113.210938 102.59375 112.960938 102.792969 112.757812 C 102.996094 112.550781 103.238281 112.398438 103.519531 112.292969 C 103.800781 112.183594 104.117188 112.132812 104.472656 112.132812 C 104.769531 112.132812 105.046875 112.175781 105.304688 112.265625 L 105.277344 112.851562 C 105.273438 112.941406 105.234375 112.992188 105.164062 113.011719 C 105.09375 113.03125 104.996094 113.039062 104.867188 113.039062 L 104.660156 113.039062 C 104.457031 113.039062 104.273438 113.0625 104.109375 113.117188 C 103.945312 113.167969 103.800781 113.257812 103.683594 113.375 C 103.566406 113.496094 103.472656 113.648438 103.410156 113.84375 C 103.34375 114.039062 103.3125 114.28125 103.3125 114.566406 L 103.3125 115.179688 L 105.25 115.179688 L 105.25 116.035156 L 103.351562 116.035156 Z M 109.042969 115.046875 L 110.21875 115.046875 L 110.21875 121.75 L 109.042969 121.75 Z M 110.484375 112.949219 C 110.484375 113.058594 110.460938 113.167969 110.414062 113.265625 C 110.371094 113.367188 110.308594 113.453125 110.230469 113.53125 C 110.152344 113.609375 110.0625 113.667969 109.964844 113.710938 C 109.859375 113.757812 109.753906 113.777344 109.636719 113.777344 C 109.523438 113.777344 109.417969 113.757812 109.316406 113.710938 C 109.21875 113.667969 109.132812 113.609375 109.054688 113.53125 C 108.976562 113.453125 108.914062 113.367188 108.871094 113.265625 C 108.828125 113.167969 108.804688 113.058594 108.804688 112.949219 C 108.804688 112.832031 108.828125 112.722656 108.871094 112.621094 C 108.914062 112.515625 108.976562 112.425781 109.054688 112.347656 C 109.132812 112.269531 109.21875 112.207031 109.316406 112.164062 C 109.417969 112.121094 109.523438 112.097656 109.636719 112.097656 C 109.753906 112.097656 109.859375 112.121094 109.964844 112.164062 C 110.0625 112.207031 110.152344 112.269531 110.230469 112.347656 C 110.308594 112.425781 110.371094 112.515625 110.414062 112.621094 C 110.460938 112.722656 110.484375 112.832031 110.484375 112.949219 Z M 114.328125 121.859375 C 113.796875 121.859375 113.390625 121.710938 113.105469 121.414062 C 112.820312 121.117188 112.679688 120.691406 112.679688 120.136719 L 112.679688 116.035156 L 111.871094 116.035156 C 111.800781 116.035156 111.742188 116.015625 111.695312 115.972656 C 111.644531 115.929688 111.621094 115.863281 111.621094 115.777344 L 111.621094 115.308594 L 112.71875 115.167969 L 112.992188 113.097656 C 113 113.03125 113.027344 112.976562 113.074219 112.9375 C 113.125 112.894531 113.1875 112.875 113.261719 112.875 L 113.855469 112.875 L 113.855469 115.179688 L 115.773438 115.179688 L 115.773438 116.035156 L 113.855469 116.035156 L 113.855469 120.058594 C 113.855469 120.339844 113.925781 120.550781 114.0625 120.683594 C 114.199219 120.824219 114.375 120.890625 114.589844 120.890625 C 114.714844 120.890625 114.820312 120.875 114.910156 120.839844 C 115 120.808594 115.078125 120.773438 115.144531 120.734375 C 115.210938 120.691406 115.265625 120.65625 115.3125 120.625 C 115.359375 120.589844 115.402344 120.574219 115.4375 120.574219 C 115.5 120.574219 115.554688 120.609375 115.601562 120.683594 L 115.945312 121.25 C 115.742188 121.4375 115.496094 121.585938 115.210938 121.695312 C 114.925781 121.804688 114.628906 121.859375 114.328125 121.859375 Z M 124.699219 117.464844 L 124.699219 121.75 L 124.171875 121.75 C 124.058594 121.75 123.964844 121.734375 123.894531 121.699219 C 123.824219 121.664062 123.78125 121.589844 123.757812 121.472656 L 123.625 120.851562 C 123.449219 121.011719 123.277344 121.152344 123.109375 121.277344 C 122.941406 121.40625 122.765625 121.511719 122.582031 121.59375 C 122.398438 121.683594 122.199219 121.746094 121.988281 121.792969 C 121.78125 121.835938 121.546875 121.859375 121.292969 121.859375 C 121.03125 121.859375 120.789062 121.820312 120.5625 121.75 C 120.335938 121.675781 120.136719 121.566406 119.96875 121.421875 C 119.800781 121.273438 119.667969 121.089844 119.570312 120.867188 C 119.472656 120.644531 119.421875 120.382812 119.421875 120.078125 C 119.421875 119.8125 119.496094 119.558594 119.640625 119.316406 C 119.785156 119.070312 120.019531 118.851562 120.34375 118.660156 C 120.667969 118.472656 121.089844 118.316406 121.617188 118.195312 C 122.140625 118.074219 122.78125 118.003906 123.539062 117.984375 L 123.539062 117.464844 C 123.539062 116.945312 123.429688 116.550781 123.207031 116.285156 C 122.984375 116.015625 122.652344 115.882812 122.21875 115.882812 C 121.929688 115.882812 121.691406 115.917969 121.492188 115.992188 C 121.296875 116.066406 121.128906 116.148438 120.984375 116.238281 C 120.84375 116.328125 120.71875 116.410156 120.613281 116.484375 C 120.511719 116.554688 120.410156 116.589844 120.308594 116.589844 C 120.226562 116.589844 120.160156 116.570312 120.097656 116.527344 C 120.039062 116.484375 119.992188 116.433594 119.957031 116.371094 L 119.746094 115.996094 C 120.113281 115.636719 120.515625 115.371094 120.941406 115.195312 C 121.367188 115.019531 121.84375 114.929688 122.363281 114.929688 C 122.738281 114.929688 123.070312 114.992188 123.363281 115.113281 C 123.652344 115.238281 123.898438 115.410156 124.09375 115.628906 C 124.292969 115.851562 124.445312 116.117188 124.542969 116.433594 C 124.644531 116.746094 124.699219 117.089844 124.699219 117.464844 Z M 121.644531 121.03125 C 121.847656 121.03125 122.039062 121.007812 122.210938 120.96875 C 122.382812 120.925781 122.542969 120.867188 122.695312 120.789062 C 122.847656 120.710938 122.996094 120.617188 123.132812 120.507812 C 123.269531 120.398438 123.40625 120.269531 123.539062 120.128906 L 123.539062 118.734375 C 122.996094 118.753906 122.539062 118.796875 122.160156 118.863281 C 121.78125 118.933594 121.472656 119.019531 121.234375 119.132812 C 120.996094 119.242188 120.820312 119.371094 120.710938 119.519531 C 120.605469 119.671875 120.550781 119.839844 120.550781 120.023438 C 120.550781 120.199219 120.582031 120.351562 120.636719 120.480469 C 120.695312 120.609375 120.769531 120.714844 120.867188 120.796875 C 120.964844 120.878906 121.078125 120.9375 121.210938 120.972656 C 121.34375 121.011719 121.488281 121.03125 121.644531 121.03125 Z M 126.613281 115.046875 L 127.789062 115.046875 L 127.789062 121.75 L 126.613281 121.75 Z M 128.054688 112.949219 C 128.054688 113.058594 128.03125 113.167969 127.984375 113.265625 C 127.9375 113.367188 127.875 113.453125 127.800781 113.53125 C 127.722656 113.609375 127.632812 113.667969 127.53125 113.710938 C 127.429688 113.757812 127.320312 113.777344 127.207031 113.777344 C 127.09375 113.777344 126.984375 113.757812 126.886719 113.710938 C 126.789062 113.667969 126.699219 113.609375 126.621094 113.53125 C 126.542969 113.453125 126.484375 113.367188 126.441406 113.265625 C 126.394531 113.167969 126.375 113.058594 126.375 112.949219 C 126.375 112.832031 126.394531 112.722656 126.441406 112.621094 C 126.484375 112.515625 126.542969 112.425781 126.621094 112.347656 C 126.699219 112.269531 126.789062 112.207031 126.886719 112.164062 C 126.984375 112.121094 127.09375 112.097656 127.207031 112.097656 C 127.320312 112.097656 127.429688 112.121094 127.53125 112.164062 C 127.632812 112.207031 127.722656 112.269531 127.800781 112.347656 C 127.875 112.425781 127.9375 112.515625 127.984375 112.621094 C 128.03125 112.722656 128.054688 112.832031 128.054688 112.949219 Z M 131.042969 121.75 L 129.863281 121.75 L 129.863281 115.046875 L 130.566406 115.046875 C 130.734375 115.046875 130.839844 115.128906 130.882812 115.292969 L 130.976562 116.023438 C 131.265625 115.699219 131.589844 115.4375 131.949219 115.242188 C 132.308594 115.042969 132.726562 114.941406 133.195312 114.941406 C 133.5625 114.941406 133.886719 115.003906 134.164062 115.125 C 134.445312 115.246094 134.679688 115.417969 134.863281 115.640625 C 135.054688 115.863281 135.195312 116.132812 135.292969 116.445312 C 135.390625 116.757812 135.4375 117.105469 135.4375 117.484375 L 135.4375 121.75 L 134.261719 121.75 L 134.261719 117.484375 C 134.261719 116.976562 134.144531 116.582031 133.914062 116.304688 C 133.683594 116.023438 133.328125 115.882812 132.851562 115.882812 C 132.503906 115.882812 132.179688 115.964844 131.875 116.132812 C 131.574219 116.300781 131.296875 116.527344 131.042969 116.816406 Z M 136.78125 112.269531 L 137.800781 112.269531 L 137.800781 114.1875 L 137.695312 115.214844 C 137.683594 115.355469 137.648438 115.464844 137.585938 115.542969 C 137.523438 115.621094 137.425781 115.65625 137.285156 115.65625 C 137.171875 115.65625 137.082031 115.621094 137.019531 115.542969 C 136.957031 115.464844 136.910156 115.355469 136.886719 115.214844 L 136.78125 114.1875 Z M 141.808594 121.859375 C 141.28125 121.859375 140.875 121.710938 140.589844 121.414062 C 140.304688 121.117188 140.164062 120.691406 140.164062 120.136719 L 140.164062 116.035156 L 139.359375 116.035156 C 139.285156 116.035156 139.226562 116.015625 139.179688 115.972656 C 139.128906 115.929688 139.105469 115.863281 139.105469 115.777344 L 139.105469 115.308594 L 140.203125 115.167969 L 140.472656 113.097656 C 140.480469 113.03125 140.511719 112.976562 140.5625 112.9375 C 140.609375 112.894531 140.671875 112.875 140.746094 112.875 L 141.339844 112.875 L 141.339844 115.179688 L 143.257812 115.179688 L 143.257812 116.035156 L 141.339844 116.035156 L 141.339844 120.058594 C 141.339844 120.339844 141.410156 120.550781 141.542969 120.683594 C 141.683594 120.824219 141.859375 120.890625 142.074219 120.890625 C 142.195312 120.890625 142.304688 120.875 142.394531 120.839844 C 142.484375 120.808594 142.5625 120.773438 142.628906 120.734375 C 142.695312 120.691406 142.753906 120.65625 142.796875 120.625 C 142.84375 120.589844 142.882812 120.574219 142.917969 120.574219 C 142.980469 120.574219 143.035156 120.609375 143.085938 120.683594 L 143.429688 121.25 C 143.226562 121.4375 142.980469 121.585938 142.695312 121.695312 C 142.410156 121.804688 142.113281 121.859375 141.808594 121.859375 Z M 149.914062 114.941406 C 150.3125 114.941406 150.683594 115.011719 151.023438 115.144531 C 151.363281 115.28125 151.65625 115.472656 151.902344 115.730469 C 152.148438 115.980469 152.34375 116.292969 152.480469 116.667969 C 152.621094 117.039062 152.691406 117.464844 152.691406 117.941406 C 152.691406 118.125 152.671875 118.25 152.628906 118.3125 C 152.589844 118.375 152.515625 118.402344 152.40625 118.402344 L 147.949219 118.402344 C 147.957031 118.828125 148.015625 119.195312 148.121094 119.511719 C 148.226562 119.824219 148.371094 120.082031 148.558594 120.292969 C 148.742188 120.5 148.960938 120.65625 149.21875 120.761719 C 149.472656 120.867188 149.761719 120.917969 150.078125 120.917969 C 150.375 120.917969 150.628906 120.882812 150.84375 120.816406 C 151.054688 120.746094 151.238281 120.671875 151.394531 120.59375 C 151.546875 120.511719 151.675781 120.441406 151.78125 120.371094 C 151.882812 120.304688 151.972656 120.269531 152.046875 120.269531 C 152.144531 120.269531 152.21875 120.308594 152.273438 120.382812 L 152.601562 120.8125 C 152.457031 120.988281 152.285156 121.140625 152.082031 121.273438 C 151.878906 121.402344 151.660156 121.511719 151.429688 121.59375 C 151.199219 121.675781 150.960938 121.738281 150.710938 121.78125 C 150.464844 121.824219 150.222656 121.84375 149.980469 121.84375 C 149.515625 121.84375 149.089844 121.765625 148.699219 121.609375 C 148.308594 121.453125 147.972656 121.222656 147.6875 120.921875 C 147.402344 120.621094 147.183594 120.246094 147.023438 119.796875 C 146.863281 119.355469 146.785156 118.84375 146.785156 118.265625 C 146.785156 117.796875 146.855469 117.359375 147 116.953125 C 147.144531 116.546875 147.351562 116.195312 147.617188 115.902344 C 147.886719 115.601562 148.21875 115.367188 148.605469 115.199219 C 148.992188 115.027344 149.429688 114.941406 149.914062 114.941406 Z M 149.941406 115.8125 C 149.371094 115.8125 148.921875 115.976562 148.597656 116.304688 C 148.269531 116.632812 148.066406 117.085938 147.988281 117.667969 L 151.632812 117.667969 C 151.632812 117.394531 151.59375 117.144531 151.519531 116.917969 C 151.445312 116.691406 151.335938 116.496094 151.1875 116.328125 C 151.042969 116.164062 150.867188 116.035156 150.65625 115.945312 C 150.445312 115.855469 150.207031 115.8125 149.941406 115.8125 Z M 153.011719 121.75 L 155.359375 118.316406 L 153.105469 115.046875 L 154.234375 115.046875 C 154.332031 115.046875 154.402344 115.0625 154.445312 115.097656 C 154.492188 115.125 154.53125 115.171875 154.566406 115.226562 L 156.203125 117.742188 C 156.246094 117.617188 156.300781 117.496094 156.375 117.371094 L 157.816406 115.253906 C 157.863281 115.191406 157.90625 115.144531 157.949219 115.105469 C 157.992188 115.066406 158.050781 115.046875 158.117188 115.046875 L 159.199219 115.046875 L 156.945312 118.25 L 159.292969 121.75 L 158.160156 121.75 C 158.066406 121.75 157.988281 121.726562 157.933594 121.675781 C 157.878906 121.625 157.835938 121.566406 157.800781 121.503906 L 156.113281 118.878906 C 156.082031 119.007812 156.035156 119.121094 155.972656 119.222656 L 154.414062 121.503906 C 154.371094 121.566406 154.324219 121.625 154.273438 121.675781 C 154.21875 121.726562 154.152344 121.75 154.0625 121.75 Z M 161.632812 124.023438 L 160.457031 124.023438 L 160.457031 115.046875 L 161.15625 115.046875 C 161.324219 115.046875 161.429688 115.128906 161.476562 115.292969 L 161.574219 116.089844 C 161.859375 115.738281 162.1875 115.457031 162.554688 115.246094 C 162.921875 115.035156 163.347656 114.929688 163.828125 114.929688 C 164.210938 114.929688 164.558594 115.003906 164.871094 115.152344 C 165.183594 115.300781 165.449219 115.519531 165.671875 115.808594 C 165.890625 116.09375 166.0625 116.453125 166.183594 116.882812 C 166.300781 117.308594 166.359375 117.800781 166.359375 118.355469 C 166.359375 118.851562 166.292969 119.3125 166.160156 119.738281 C 166.027344 120.164062 165.839844 120.53125 165.59375 120.839844 C 165.34375 121.152344 165.042969 121.398438 164.683594 121.578125 C 164.324219 121.753906 163.921875 121.84375 163.472656 121.84375 C 163.058594 121.84375 162.703125 121.777344 162.410156 121.636719 C 162.117188 121.503906 161.855469 121.308594 161.632812 121.054688 Z M 163.4375 115.882812 C 163.054688 115.882812 162.71875 115.96875 162.429688 116.148438 C 162.140625 116.324219 161.875 116.574219 161.632812 116.894531 L 161.632812 120.136719 C 161.847656 120.429688 162.085938 120.632812 162.34375 120.75 C 162.601562 120.871094 162.890625 120.929688 163.207031 120.929688 C 163.828125 120.929688 164.304688 120.707031 164.640625 120.261719 C 164.976562 119.816406 165.140625 119.183594 165.140625 118.355469 C 165.140625 117.921875 165.105469 117.546875 165.027344 117.234375 C 164.949219 116.921875 164.839844 116.664062 164.691406 116.460938 C 164.546875 116.261719 164.371094 116.113281 164.160156 116.023438 C 163.949219 115.929688 163.707031 115.882812 163.4375 115.882812 Z M 170.40625 114.941406 C 170.804688 114.941406 171.175781 115.011719 171.515625 115.144531 C 171.855469 115.28125 172.148438 115.472656 172.394531 115.730469 C 172.640625 115.980469 172.832031 116.292969 172.972656 116.667969 C 173.113281 117.039062 173.179688 117.464844 173.179688 117.941406 C 173.179688 118.125 173.160156 118.25 173.121094 118.3125 C 173.082031 118.375 173.007812 118.402344 172.894531 118.402344 L 168.441406 118.402344 C 168.449219 118.828125 168.507812 119.195312 168.613281 119.511719 C 168.71875 119.824219 168.863281 120.082031 169.046875 120.292969 C 169.234375 120.5 169.453125 120.65625 169.710938 120.761719 C 169.964844 120.867188 170.25 120.917969 170.570312 120.917969 C 170.863281 120.917969 171.121094 120.882812 171.332031 120.816406 C 171.546875 120.746094 171.730469 120.671875 171.886719 120.59375 C 172.039062 120.511719 172.167969 120.441406 172.273438 120.371094 C 172.375 120.304688 172.464844 120.269531 172.539062 120.269531 C 172.636719 120.269531 172.710938 120.308594 172.761719 120.382812 L 173.09375 120.8125 C 172.949219 120.988281 172.777344 121.140625 172.574219 121.273438 C 172.371094 121.402344 172.152344 121.511719 171.921875 121.59375 C 171.691406 121.675781 171.449219 121.738281 171.203125 121.78125 C 170.957031 121.824219 170.710938 121.84375 170.472656 121.84375 C 170.007812 121.84375 169.582031 121.765625 169.191406 121.609375 C 168.800781 121.453125 168.464844 121.222656 168.179688 120.921875 C 167.894531 120.621094 167.671875 120.246094 167.515625 119.796875 C 167.355469 119.355469 167.277344 118.84375 167.277344 118.265625 C 167.277344 117.796875 167.347656 117.359375 167.492188 116.953125 C 167.636719 116.546875 167.839844 116.195312 168.109375 115.902344 C 168.378906 115.601562 168.707031 115.367188 169.097656 115.199219 C 169.484375 115.027344 169.921875 114.941406 170.40625 114.941406 Z M 170.429688 115.8125 C 169.863281 115.8125 169.414062 115.976562 169.085938 116.304688 C 168.761719 116.632812 168.558594 117.085938 168.480469 117.667969 L 172.125 117.667969 C 172.125 117.394531 172.085938 117.144531 172.011719 116.917969 C 171.9375 116.691406 171.824219 116.496094 171.679688 116.328125 C 171.535156 116.164062 171.359375 116.035156 171.148438 115.945312 C 170.9375 115.855469 170.699219 115.8125 170.429688 115.8125 Z M 175.855469 121.75 L 174.679688 121.75 L 174.679688 115.046875 L 175.382812 115.046875 C 175.550781 115.046875 175.65625 115.128906 175.699219 115.292969 L 175.792969 116.023438 C 176.082031 115.699219 176.40625 115.4375 176.765625 115.242188 C 177.125 115.042969 177.542969 114.941406 178.011719 114.941406 C 178.378906 114.941406 178.703125 115.003906 178.980469 115.125 C 179.261719 115.246094 179.496094 115.417969 179.679688 115.640625 C 179.871094 115.863281 180.011719 116.132812 180.109375 116.445312 C 180.207031 116.757812 180.253906 117.105469 180.253906 117.484375 L 180.253906 121.75 L 179.078125 121.75 L 179.078125 117.484375 C 179.078125 116.976562 178.960938 116.582031 178.730469 116.304688 C 178.5 116.023438 178.144531 115.882812 177.667969 115.882812 C 177.320312 115.882812 176.996094 115.964844 176.691406 116.132812 C 176.390625 116.300781 176.113281 116.527344 175.855469 116.816406 Z M 186.128906 115.722656 L 185.867188 116.15625 C 185.8125 116.25 185.730469 116.300781 185.621094 116.300781 C 185.554688 116.300781 185.480469 116.277344 185.394531 116.226562 C 185.3125 116.179688 185.210938 116.125 185.089844 116.066406 C 184.96875 116.003906 184.824219 115.949219 184.65625 115.902344 C 184.488281 115.847656 184.289062 115.824219 184.058594 115.824219 C 183.863281 115.824219 183.683594 115.847656 183.527344 115.902344 C 183.367188 115.949219 183.230469 116.019531 183.117188 116.105469 C 183.007812 116.195312 182.921875 116.296875 182.863281 116.417969 C 182.800781 116.53125 182.773438 116.660156 182.773438 116.796875 C 182.773438 116.96875 182.820312 117.113281 182.921875 117.226562 C 183.019531 117.339844 183.152344 117.441406 183.3125 117.523438 C 183.476562 117.609375 183.660156 117.683594 183.871094 117.746094 C 184.074219 117.808594 184.289062 117.878906 184.507812 117.953125 C 184.726562 118.023438 184.9375 118.105469 185.144531 118.191406 C 185.351562 118.28125 185.539062 118.390625 185.699219 118.523438 C 185.863281 118.65625 185.996094 118.816406 186.09375 119.011719 C 186.191406 119.199219 186.242188 119.429688 186.242188 119.699219 C 186.242188 120.007812 186.1875 120.296875 186.078125 120.558594 C 185.964844 120.820312 185.804688 121.046875 185.589844 121.238281 C 185.371094 121.429688 185.105469 121.582031 184.796875 121.691406 C 184.480469 121.800781 184.121094 121.859375 183.710938 121.859375 C 183.242188 121.859375 182.820312 121.78125 182.441406 121.628906 C 182.0625 121.476562 181.742188 121.28125 181.476562 121.042969 L 181.753906 120.59375 C 181.789062 120.535156 181.832031 120.492188 181.878906 120.460938 C 181.929688 120.429688 181.992188 120.414062 182.070312 120.414062 C 182.152344 120.414062 182.234375 120.445312 182.324219 120.507812 C 182.410156 120.570312 182.519531 120.636719 182.644531 120.710938 C 182.769531 120.789062 182.921875 120.855469 183.101562 120.917969 C 183.277344 120.980469 183.5 121.011719 183.769531 121.011719 C 184 121.011719 184.199219 120.980469 184.371094 120.921875 C 184.542969 120.859375 184.6875 120.78125 184.800781 120.679688 C 184.914062 120.578125 185 120.460938 185.058594 120.328125 C 185.113281 120.195312 185.140625 120.054688 185.140625 119.90625 C 185.140625 119.71875 185.089844 119.566406 184.992188 119.445312 C 184.890625 119.324219 184.757812 119.222656 184.597656 119.132812 C 184.433594 119.046875 184.246094 118.972656 184.039062 118.910156 C 183.828125 118.847656 183.613281 118.777344 183.394531 118.707031 C 183.179688 118.636719 182.964844 118.558594 182.757812 118.46875 C 182.546875 118.375 182.359375 118.261719 182.195312 118.125 C 182.035156 117.988281 181.902344 117.820312 181.804688 117.621094 C 181.703125 117.417969 181.652344 117.175781 181.652344 116.886719 C 181.652344 116.632812 181.707031 116.386719 181.8125 116.152344 C 181.917969 115.914062 182.074219 115.707031 182.273438 115.53125 C 182.476562 115.351562 182.726562 115.207031 183.023438 115.101562 C 183.316406 114.996094 183.65625 114.941406 184.035156 114.941406 C 184.472656 114.941406 184.871094 115.011719 185.222656 115.152344 C 185.570312 115.292969 185.875 115.480469 186.128906 115.722656 Z M 187.902344 115.046875 L 189.078125 115.046875 L 189.078125 121.75 L 187.902344 121.75 Z M 189.34375 112.949219 C 189.34375 113.058594 189.320312 113.167969 189.273438 113.265625 C 189.226562 113.367188 189.164062 113.453125 189.085938 113.53125 C 189.011719 113.609375 188.921875 113.667969 188.820312 113.710938 C 188.71875 113.757812 188.613281 113.777344 188.496094 113.777344 C 188.382812 113.777344 188.273438 113.757812 188.175781 113.710938 C 188.074219 113.667969 187.988281 113.609375 187.910156 113.53125 C 187.835938 113.453125 187.773438 113.367188 187.730469 113.265625 C 187.6875 113.167969 187.664062 113.058594 187.664062 112.949219 C 187.664062 112.832031 187.6875 112.722656 187.730469 112.621094 C 187.773438 112.515625 187.835938 112.425781 187.910156 112.347656 C 187.988281 112.269531 188.074219 112.207031 188.175781 112.164062 C 188.273438 112.121094 188.382812 112.097656 188.496094 112.097656 C 188.613281 112.097656 188.71875 112.121094 188.820312 112.164062 C 188.921875 112.207031 189.011719 112.269531 189.085938 112.347656 C 189.164062 112.425781 189.226562 112.515625 189.273438 112.621094 C 189.320312 112.722656 189.34375 112.832031 189.34375 112.949219 Z M 193.039062 121.75 L 190.304688 115.046875 L 191.269531 115.046875 C 191.363281 115.046875 191.441406 115.074219 191.503906 115.121094 C 191.566406 115.171875 191.609375 115.226562 191.636719 115.292969 L 193.332031 119.609375 C 193.394531 119.765625 193.445312 119.925781 193.480469 120.085938 C 193.515625 120.242188 193.546875 120.398438 193.578125 120.554688 C 193.613281 120.398438 193.652344 120.242188 193.691406 120.085938 C 193.730469 119.925781 193.78125 119.765625 193.84375 119.609375 L 195.5625 115.292969 C 195.589844 115.222656 195.632812 115.164062 195.691406 115.121094 C 195.75 115.074219 195.824219 115.046875 195.910156 115.046875 L 196.832031 115.046875 L 194.101562 121.75 Z M 200.402344 114.941406 C 200.800781 114.941406 201.171875 115.011719 201.511719 115.144531 C 201.851562 115.28125 202.144531 115.472656 202.390625 115.730469 C 202.636719 115.980469 202.832031 116.292969 202.96875 116.667969 C 203.109375 117.039062 203.179688 117.464844 203.179688 117.941406 C 203.179688 118.125 203.160156 118.25 203.117188 118.3125 C 203.078125 118.375 203.003906 118.402344 202.894531 118.402344 L 198.4375 118.402344 C 198.445312 118.828125 198.503906 119.195312 198.609375 119.511719 C 198.714844 119.824219 198.859375 120.082031 199.046875 120.292969 C 199.230469 120.5 199.449219 120.65625 199.707031 120.761719 C 199.960938 120.867188 200.25 120.917969 200.566406 120.917969 C 200.863281 120.917969 201.117188 120.882812 201.332031 120.816406 C 201.542969 120.746094 201.726562 120.671875 201.882812 120.59375 C 202.035156 120.511719 202.164062 120.441406 202.269531 120.371094 C 202.371094 120.304688 202.460938 120.269531 202.535156 120.269531 C 202.632812 120.269531 202.707031 120.308594 202.761719 120.382812 L 203.089844 120.8125 C 202.945312 120.988281 202.773438 121.140625 202.570312 121.273438 C 202.367188 121.402344 202.148438 121.511719 201.917969 121.59375 C 201.6875 121.675781 201.449219 121.738281 201.199219 121.78125 C 200.953125 121.824219 200.710938 121.84375 200.46875 121.84375 C 200.003906 121.84375 199.578125 121.765625 199.1875 121.609375 C 198.796875 121.453125 198.460938 121.222656 198.175781 120.921875 C 197.890625 120.621094 197.671875 120.246094 197.511719 119.796875 C 197.351562 119.355469 197.273438 118.84375 197.273438 118.265625 C 197.273438 117.796875 197.34375 117.359375 197.488281 116.953125 C 197.632812 116.546875 197.839844 116.195312 198.105469 115.902344 C 198.375 115.601562 198.707031 115.367188 199.09375 115.199219 C 199.480469 115.027344 199.917969 114.941406 200.402344 114.941406 Z M 200.429688 115.8125 C 199.859375 115.8125 199.410156 115.976562 199.085938 116.304688 C 198.757812 116.632812 198.554688 117.085938 198.476562 117.667969 L 202.121094 117.667969 C 202.121094 117.394531 202.082031 117.144531 202.007812 116.917969 C 201.933594 116.691406 201.824219 116.496094 201.675781 116.328125 C 201.53125 116.164062 201.355469 116.035156 201.144531 115.945312 C 200.933594 115.855469 200.695312 115.8125 200.429688 115.8125 Z M 204.335938 120.9375 C 204.335938 120.835938 204.351562 120.742188 204.390625 120.652344 C 204.425781 120.5625 204.480469 120.480469 204.546875 120.414062 C 204.617188 120.34375 204.699219 120.289062 204.796875 120.25 C 204.894531 120.210938 205 120.191406 205.113281 120.191406 C 205.246094 120.191406 205.363281 120.214844 205.46875 120.261719 C 205.570312 120.3125 205.65625 120.378906 205.726562 120.464844 C 205.792969 120.550781 205.847656 120.648438 205.882812 120.761719 C 205.917969 120.875 205.933594 120.996094 205.933594 121.128906 C 205.933594 121.328125 205.90625 121.535156 205.847656 121.75 C 205.789062 121.960938 205.710938 122.175781 205.605469 122.382812 C 205.496094 122.59375 205.367188 122.796875 205.210938 122.996094 C 205.050781 123.195312 204.875 123.378906 204.679688 123.546875 L 204.480469 123.351562 C 204.421875 123.300781 204.390625 123.238281 204.390625 123.167969 C 204.390625 123.109375 204.421875 123.050781 204.484375 122.988281 C 204.527344 122.941406 204.585938 122.875 204.652344 122.792969 C 204.722656 122.714844 204.792969 122.621094 204.863281 122.515625 C 204.933594 122.40625 205 122.289062 205.058594 122.160156 C 205.117188 122.035156 205.160156 121.898438 205.1875 121.75 L 205.101562 121.75 C 204.988281 121.75 204.882812 121.730469 204.789062 121.691406 C 204.699219 121.652344 204.617188 121.597656 204.546875 121.523438 C 204.480469 121.449219 204.425781 121.363281 204.390625 121.265625 C 204.351562 121.167969 204.335938 121.058594 204.335938 120.9375 Z M 210.164062 115.046875 L 211.339844 115.046875 L 211.339844 121.75 L 210.164062 121.75 Z M 211.605469 112.949219 C 211.605469 113.058594 211.582031 113.167969 211.535156 113.265625 C 211.488281 113.367188 211.425781 113.453125 211.351562 113.53125 C 211.273438 113.609375 211.183594 113.667969 211.082031 113.710938 C 210.980469 113.757812 210.871094 113.777344 210.757812 113.777344 C 210.644531 113.777344 210.535156 113.757812 210.4375 113.710938 C 210.339844 113.667969 210.25 113.609375 210.171875 113.53125 C 210.09375 113.453125 210.035156 113.367188 209.992188 113.265625 C 209.945312 113.167969 209.925781 113.058594 209.925781 112.949219 C 209.925781 112.832031 209.945312 112.722656 209.992188 112.621094 C 210.035156 112.515625 210.09375 112.425781 210.171875 112.347656 C 210.25 112.269531 210.339844 112.207031 210.4375 112.164062 C 210.535156 112.121094 210.644531 112.097656 210.757812 112.097656 C 210.871094 112.097656 210.980469 112.121094 211.082031 112.164062 C 211.183594 112.207031 211.273438 112.269531 211.351562 112.347656 C 211.425781 112.425781 211.488281 112.515625 211.535156 112.621094 C 211.582031 112.722656 211.605469 112.832031 211.605469 112.949219 Z M 215.445312 121.859375 C 214.917969 121.859375 214.507812 121.710938 214.222656 121.414062 C 213.941406 121.117188 213.796875 120.691406 213.796875 120.136719 L 213.796875 116.035156 L 212.992188 116.035156 C 212.921875 116.035156 212.863281 116.015625 212.816406 115.972656 C 212.765625 115.929688 212.742188 115.863281 212.742188 115.777344 L 212.742188 115.308594 L 213.839844 115.167969 L 214.109375 113.097656 C 214.121094 113.03125 214.148438 112.976562 214.195312 112.9375 C 214.246094 112.894531 214.304688 112.875 214.378906 112.875 L 214.976562 112.875 L 214.976562 115.179688 L 216.890625 115.179688 L 216.890625 116.035156 L 214.976562 116.035156 L 214.976562 120.058594 C 214.976562 120.339844 215.042969 120.550781 215.179688 120.683594 C 215.316406 120.824219 215.492188 120.890625 215.710938 120.890625 C 215.832031 120.890625 215.941406 120.875 216.03125 120.839844 C 216.121094 120.808594 216.199219 120.773438 216.265625 120.734375 C 216.332031 120.691406 216.386719 120.65625 216.433594 120.625 C 216.480469 120.589844 216.519531 120.574219 216.554688 120.574219 C 216.617188 120.574219 216.671875 120.609375 216.71875 120.683594 L 217.0625 121.25 C 216.863281 121.4375 216.617188 121.585938 216.332031 121.695312 C 216.042969 121.804688 215.75 121.859375 215.445312 121.859375 Z M 225.816406 117.464844 L 225.816406 121.75 L 225.292969 121.75 C 225.179688 121.75 225.085938 121.734375 225.015625 121.699219 C 224.945312 121.664062 224.898438 121.589844 224.878906 121.472656 L 224.746094 120.851562 C 224.570312 121.011719 224.398438 121.152344 224.230469 121.277344 C 224.0625 121.40625 223.886719 121.511719 223.703125 121.59375 C 223.515625 121.683594 223.320312 121.746094 223.109375 121.792969 C 222.898438 121.835938 222.667969 121.859375 222.410156 121.859375 C 222.152344 121.859375 221.910156 121.820312 221.679688 121.75 C 221.453125 121.675781 221.257812 121.566406 221.089844 121.421875 C 220.921875 121.273438 220.789062 121.089844 220.691406 120.867188 C 220.589844 120.644531 220.542969 120.382812 220.542969 120.078125 C 220.542969 119.8125 220.613281 119.558594 220.757812 119.316406 C 220.90625 119.070312 221.140625 118.851562 221.460938 118.660156 C 221.785156 118.472656 222.210938 118.316406 222.734375 118.195312 C 223.261719 118.074219 223.902344 118.003906 224.660156 117.984375 L 224.660156 117.464844 C 224.660156 116.945312 224.546875 116.550781 224.324219 116.285156 C 224.101562 116.015625 223.773438 115.882812 223.335938 115.882812 C 223.050781 115.882812 222.808594 115.917969 222.613281 115.992188 C 222.417969 116.066406 222.246094 116.148438 222.105469 116.238281 C 221.960938 116.328125 221.839844 116.410156 221.734375 116.484375 C 221.628906 116.554688 221.527344 116.589844 221.425781 116.589844 C 221.347656 116.589844 221.277344 116.570312 221.21875 116.527344 C 221.160156 116.484375 221.109375 116.433594 221.074219 116.371094 L 220.863281 115.996094 C 221.234375 115.636719 221.632812 115.371094 222.0625 115.195312 C 222.488281 115.019531 222.960938 114.929688 223.480469 114.929688 C 223.855469 114.929688 224.191406 114.992188 224.480469 115.113281 C 224.773438 115.238281 225.015625 115.410156 225.214844 115.628906 C 225.414062 115.851562 225.5625 116.117188 225.664062 116.433594 C 225.765625 116.746094 225.816406 117.089844 225.816406 117.464844 Z M 222.761719 121.03125 C 222.96875 121.03125 223.160156 121.007812 223.332031 120.96875 C 223.503906 120.925781 223.664062 120.867188 223.816406 120.789062 C 223.96875 120.710938 224.113281 120.617188 224.25 120.507812 C 224.390625 120.398438 224.527344 120.269531 224.660156 120.128906 L 224.660156 118.734375 C 224.117188 118.753906 223.65625 118.796875 223.277344 118.863281 C 222.898438 118.933594 222.589844 119.019531 222.351562 119.132812 C 222.113281 119.242188 221.941406 119.371094 221.832031 119.519531 C 221.722656 119.671875 221.671875 119.839844 221.671875 120.023438 C 221.671875 120.199219 221.699219 120.351562 221.757812 120.480469 C 221.8125 120.609375 221.890625 120.714844 221.988281 120.796875 C 222.085938 120.878906 222.199219 120.9375 222.332031 120.972656 C 222.464844 121.011719 222.609375 121.03125 222.761719 121.03125 Z M 227.730469 115.046875 L 228.90625 115.046875 L 228.90625 121.75 L 227.730469 121.75 Z M 229.171875 112.949219 C 229.171875 113.058594 229.148438 113.167969 229.105469 113.265625 C 229.058594 113.367188 228.996094 113.453125 228.917969 113.53125 C 228.839844 113.609375 228.753906 113.667969 228.652344 113.710938 C 228.550781 113.757812 228.441406 113.777344 228.328125 113.777344 C 228.210938 113.777344 228.105469 113.757812 228.007812 113.710938 C 227.90625 113.667969 227.820312 113.609375 227.742188 113.53125 C 227.664062 113.453125 227.605469 113.367188 227.558594 113.265625 C 227.515625 113.167969 227.492188 113.058594 227.492188 112.949219 C 227.492188 112.832031 227.515625 112.722656 227.558594 112.621094 C 227.605469 112.515625 227.664062 112.425781 227.742188 112.347656 C 227.820312 112.269531 227.90625 112.207031 228.007812 112.164062 C 228.105469 112.121094 228.210938 112.097656 228.328125 112.097656 C 228.441406 112.097656 228.550781 112.121094 228.652344 112.164062 C 228.753906 112.207031 228.839844 112.269531 228.917969 112.347656 C 228.996094 112.425781 229.058594 112.515625 229.105469 112.621094 C 229.148438 112.722656 229.171875 112.832031 229.171875 112.949219 Z M 232.160156 121.75 L 230.984375 121.75 L 230.984375 115.046875 L 231.683594 115.046875 C 231.851562 115.046875 231.957031 115.128906 232.003906 115.292969 L 232.09375 116.023438 C 232.386719 115.699219 232.710938 115.4375 233.070312 115.242188 C 233.429688 115.042969 233.84375 114.941406 234.316406 114.941406 C 234.683594 114.941406 235.003906 115.003906 235.285156 115.125 C 235.5625 115.246094 235.796875 115.417969 235.984375 115.640625 C 236.171875 115.863281 236.316406 116.132812 236.414062 116.445312 C 236.507812 116.757812 236.558594 117.105469 236.558594 117.484375 L 236.558594 121.75 L 235.382812 121.75 L 235.382812 117.484375 C 235.382812 116.976562 235.265625 116.582031 235.03125 116.304688 C 234.800781 116.023438 234.449219 115.882812 233.972656 115.882812 C 233.625 115.882812 233.300781 115.964844 232.996094 116.132812 C 232.695312 116.300781 232.417969 116.527344 232.160156 116.816406 Z M 237.898438 112.269531 L 238.921875 112.269531 L 238.921875 114.1875 L 238.816406 115.214844 C 238.804688 115.355469 238.765625 115.464844 238.707031 115.542969 C 238.644531 115.621094 238.542969 115.65625 238.40625 115.65625 C 238.292969 115.65625 238.203125 115.621094 238.140625 115.542969 C 238.074219 115.464844 238.03125 115.355469 238.003906 115.214844 L 237.898438 114.1875 Z M 242.929688 121.859375 C 242.398438 121.859375 241.992188 121.710938 241.710938 121.414062 C 241.425781 121.117188 241.285156 120.691406 241.285156 120.136719 L 241.285156 116.035156 L 240.472656 116.035156 C 240.40625 116.035156 240.347656 116.015625 240.296875 115.972656 C 240.25 115.929688 240.226562 115.863281 240.226562 115.777344 L 240.226562 115.308594 L 241.324219 115.167969 L 241.59375 113.097656 C 241.601562 113.03125 241.632812 112.976562 241.679688 112.9375 C 241.726562 112.894531 241.789062 112.875 241.863281 112.875 L 242.457031 112.875 L 242.457031 115.179688 L 244.375 115.179688 L 244.375 116.035156 L 242.457031 116.035156 L 242.457031 120.058594 C 242.457031 120.339844 242.527344 120.550781 242.664062 120.683594 C 242.800781 120.824219 242.976562 120.890625 243.191406 120.890625 C 243.316406 120.890625 243.421875 120.875 243.511719 120.839844 C 243.601562 120.808594 243.679688 120.773438 243.75 120.734375 C 243.8125 120.691406 243.871094 120.65625 243.917969 120.625 C 243.964844 120.589844 244.003906 120.574219 244.039062 120.574219 C 244.101562 120.574219 244.15625 120.609375 244.207031 120.683594 L 244.550781 121.25 C 244.34375 121.4375 244.101562 121.585938 243.8125 121.695312 C 243.527344 121.804688 243.230469 121.859375 242.929688 121.859375 Z M 249.675781 121.75 L 247.507812 115.046875 L 248.433594 115.046875 C 248.53125 115.046875 248.609375 115.074219 248.671875 115.121094 C 248.734375 115.171875 248.773438 115.226562 248.796875 115.292969 L 250.078125 119.609375 C 250.113281 119.765625 250.148438 119.921875 250.179688 120.070312 C 250.210938 120.214844 250.234375 120.363281 250.257812 120.515625 C 250.292969 120.363281 250.332031 120.214844 250.378906 120.070312 C 250.421875 119.921875 250.46875 119.765625 250.515625 119.609375 L 251.929688 115.269531 C 251.953125 115.199219 251.992188 115.144531 252.046875 115.101562 C 252.101562 115.058594 252.171875 115.035156 252.253906 115.035156 L 252.761719 115.035156 C 252.851562 115.035156 252.925781 115.058594 252.980469 115.101562 C 253.039062 115.144531 253.078125 115.199219 253.101562 115.269531 L 254.480469 119.609375 C 254.53125 119.761719 254.574219 119.914062 254.609375 120.0625 C 254.648438 120.214844 254.683594 120.363281 254.71875 120.507812 C 254.742188 120.363281 254.773438 120.207031 254.808594 120.050781 C 254.84375 119.890625 254.878906 119.742188 254.917969 119.609375 L 256.226562 115.292969 C 256.25 115.222656 256.292969 115.164062 256.355469 115.121094 C 256.414062 115.074219 256.488281 115.046875 256.570312 115.046875 L 257.457031 115.046875 L 255.289062 121.75 L 254.355469 121.75 C 254.242188 121.75 254.164062 121.675781 254.121094 121.527344 L 252.636719 116.980469 C 252.601562 116.878906 252.574219 116.777344 252.550781 116.671875 C 252.53125 116.570312 252.507812 116.46875 252.484375 116.367188 C 252.464844 116.46875 252.441406 116.570312 252.417969 116.675781 C 252.398438 116.785156 252.371094 116.886719 252.335938 116.988281 L 250.832031 121.527344 C 250.785156 121.675781 250.695312 121.75 250.5625 121.75 Z M 261.21875 114.941406 C 261.707031 114.941406 262.148438 115.023438 262.542969 115.1875 C 262.9375 115.351562 263.273438 115.582031 263.550781 115.882812 C 263.824219 116.183594 264.035156 116.546875 264.183594 116.972656 C 264.332031 117.398438 264.40625 117.871094 264.40625 118.394531 C 264.40625 118.925781 264.332031 119.402344 264.183594 119.824219 C 264.035156 120.25 263.824219 120.609375 263.550781 120.910156 C 263.273438 121.210938 262.9375 121.441406 262.542969 121.605469 C 262.148438 121.765625 261.707031 121.84375 261.21875 121.84375 C 260.730469 121.84375 260.285156 121.765625 259.890625 121.605469 C 259.5 121.441406 259.164062 121.210938 258.882812 120.910156 C 258.609375 120.609375 258.394531 120.25 258.246094 119.824219 C 258.09375 119.402344 258.019531 118.925781 258.019531 118.394531 C 258.019531 117.871094 258.09375 117.398438 258.246094 116.972656 C 258.394531 116.546875 258.609375 116.183594 258.882812 115.882812 C 259.164062 115.582031 259.5 115.351562 259.890625 115.1875 C 260.285156 115.023438 260.730469 114.941406 261.21875 114.941406 Z M 261.21875 120.921875 C 261.878906 120.921875 262.375 120.703125 262.699219 120.257812 C 263.027344 119.816406 263.1875 119.199219 263.1875 118.402344 C 263.1875 117.605469 263.027344 116.984375 262.699219 116.539062 C 262.375 116.09375 261.878906 115.867188 261.21875 115.867188 C 260.882812 115.867188 260.59375 115.925781 260.347656 116.039062 C 260.101562 116.15625 259.894531 116.320312 259.726562 116.539062 C 259.5625 116.753906 259.4375 117.019531 259.359375 117.335938 C 259.277344 117.652344 259.234375 118.007812 259.234375 118.402344 C 259.234375 118.800781 259.277344 119.15625 259.359375 119.46875 C 259.4375 119.78125 259.5625 120.046875 259.726562 120.257812 C 259.894531 120.472656 260.101562 120.636719 260.347656 120.75 C 260.59375 120.867188 260.882812 120.921875 261.21875 120.921875 Z M 267.035156 121.75 L 265.859375 121.75 L 265.859375 115.046875 L 266.53125 115.046875 C 266.660156 115.046875 266.75 115.074219 266.796875 115.121094 C 266.84375 115.171875 266.878906 115.253906 266.898438 115.375 L 266.976562 116.417969 C 267.207031 115.953125 267.488281 115.585938 267.824219 115.324219 C 268.160156 115.0625 268.558594 114.929688 269.011719 114.929688 C 269.195312 114.929688 269.363281 114.949219 269.515625 114.992188 C 269.664062 115.035156 269.804688 115.09375 269.929688 115.167969 L 269.777344 116.050781 C 269.746094 116.160156 269.679688 116.214844 269.574219 116.214844 C 269.511719 116.214844 269.417969 116.191406 269.289062 116.152344 C 269.160156 116.109375 268.980469 116.089844 268.753906 116.089844 C 268.34375 116.089844 268.003906 116.207031 267.726562 116.445312 C 267.449219 116.683594 267.21875 117.03125 267.035156 117.484375 Z M 273.214844 121.859375 C 272.6875 121.859375 272.28125 121.710938 271.996094 121.414062 C 271.710938 121.117188 271.570312 120.691406 271.570312 120.136719 L 271.570312 116.035156 L 270.761719 116.035156 C 270.691406 116.035156 270.632812 116.015625 270.585938 115.972656 C 270.535156 115.929688 270.511719 115.863281 270.511719 115.777344 L 270.511719 115.308594 L 271.609375 115.167969 L 271.882812 113.097656 C 271.890625 113.03125 271.917969 112.976562 271.964844 112.9375 C 272.015625 112.894531 272.078125 112.875 272.152344 112.875 L 272.746094 112.875 L 272.746094 115.179688 L 274.664062 115.179688 L 274.664062 116.035156 L 272.746094 116.035156 L 272.746094 120.058594 C 272.746094 120.339844 272.816406 120.550781 272.953125 120.683594 C 273.089844 120.824219 273.265625 120.890625 273.480469 120.890625 C 273.605469 120.890625 273.710938 120.875 273.800781 120.839844 C 273.890625 120.808594 273.96875 120.773438 274.035156 120.734375 C 274.101562 120.691406 274.15625 120.65625 274.203125 120.625 C 274.25 120.589844 274.292969 120.574219 274.328125 120.574219 C 274.390625 120.574219 274.445312 120.609375 274.492188 120.683594 L 274.835938 121.25 C 274.632812 121.4375 274.386719 121.585938 274.101562 121.695312 C 273.816406 121.804688 273.519531 121.859375 273.214844 121.859375 Z M 277.292969 121.75 L 276.117188 121.75 L 276.117188 112.003906 L 277.292969 112.003906 L 277.292969 115.949219 C 277.578125 115.644531 277.898438 115.402344 278.246094 115.21875 C 278.59375 115.035156 278.996094 114.941406 279.449219 114.941406 C 279.8125 114.941406 280.136719 115.003906 280.417969 115.125 C 280.699219 115.246094 280.929688 115.417969 281.117188 115.640625 C 281.304688 115.863281 281.445312 116.132812 281.542969 116.445312 C 281.640625 116.757812 281.6875 117.105469 281.6875 117.484375 L 281.6875 121.75 L 280.511719 121.75 L 280.511719 117.484375 C 280.511719 116.976562 280.398438 116.582031 280.164062 116.304688 C 279.933594 116.023438 279.582031 115.882812 279.105469 115.882812 C 278.757812 115.882812 278.429688 115.964844 278.128906 116.132812 C 277.828125 116.300781 277.550781 116.527344 277.292969 116.816406 Z M 286.148438 115.046875 L 287.328125 115.046875 L 287.328125 121.75 L 286.148438 121.75 Z M 287.589844 112.949219 C 287.589844 113.058594 287.566406 113.167969 287.523438 113.265625 C 287.476562 113.367188 287.414062 113.453125 287.335938 113.53125 C 287.261719 113.609375 287.171875 113.667969 287.070312 113.710938 C 286.96875 113.757812 286.859375 113.777344 286.746094 113.777344 C 286.628906 113.777344 286.523438 113.757812 286.425781 113.710938 C 286.328125 113.667969 286.238281 113.609375 286.160156 113.53125 C 286.082031 113.453125 286.023438 113.367188 285.976562 113.265625 C 285.933594 113.167969 285.910156 113.058594 285.910156 112.949219 C 285.910156 112.832031 285.933594 112.722656 285.976562 112.621094 C 286.023438 112.515625 286.082031 112.425781 286.160156 112.347656 C 286.238281 112.269531 286.328125 112.207031 286.425781 112.164062 C 286.523438 112.121094 286.628906 112.097656 286.746094 112.097656 C 286.859375 112.097656 286.96875 112.121094 287.070312 112.164062 C 287.171875 112.207031 287.261719 112.269531 287.335938 112.347656 C 287.414062 112.425781 287.476562 112.515625 287.523438 112.621094 C 287.566406 112.722656 287.589844 112.832031 287.589844 112.949219 Z M 291.433594 121.859375 C 290.90625 121.859375 290.496094 121.710938 290.210938 121.414062 C 289.929688 121.117188 289.785156 120.691406 289.785156 120.136719 L 289.785156 116.035156 L 288.980469 116.035156 C 288.910156 116.035156 288.851562 116.015625 288.800781 115.972656 C 288.753906 115.929688 288.726562 115.863281 288.726562 115.777344 L 288.726562 115.308594 L 289.824219 115.167969 L 290.097656 113.097656 C 290.105469 113.03125 290.136719 112.976562 290.183594 112.9375 C 290.230469 112.894531 290.292969 112.875 290.367188 112.875 L 290.960938 112.875 L 290.960938 115.179688 L 292.878906 115.179688 L 292.878906 116.035156 L 290.960938 116.035156 L 290.960938 120.058594 C 290.960938 120.339844 291.03125 120.550781 291.167969 120.683594 C 291.304688 120.824219 291.480469 120.890625 291.699219 120.890625 C 291.820312 120.890625 291.929688 120.875 292.019531 120.839844 C 292.109375 120.808594 292.1875 120.773438 292.253906 120.734375 C 292.320312 120.691406 292.375 120.65625 292.417969 120.625 C 292.46875 120.589844 292.507812 120.574219 292.542969 120.574219 C 292.605469 120.574219 292.660156 120.609375 292.707031 120.683594 L 293.050781 121.25 C 292.847656 121.4375 292.605469 121.585938 292.320312 121.695312 C 292.03125 121.804688 291.738281 121.859375 291.433594 121.859375 Z M 291.433594 121.859375 "/>
</g>
<g clip-path="url(#clip3)" clip-rule="nonzero">
<path style=" stroke:none;fill-rule:nonzero;fill:rgb(0%,0%,0%);fill-opacity:1;" d="M 452.433594 91.761719 C 452.289062 89.902344 452.003906 88.042969 451.71875 86.042969 C 449.71875 75.886719 444 67.164062 435.425781 61.441406 L 427.136719 55.863281 C 418.5625 50.144531 408.273438 47.996094 398.269531 50 C 388.121094 52.003906 379.402344 57.722656 373.6875 66.304688 C 367.96875 74.886719 365.828125 85.183594 367.828125 95.195312 C 369.828125 105.351562 375.546875 114.074219 384.121094 119.796875 L 392.410156 125.375 C 398.839844 129.664062 406.273438 131.953125 413.847656 131.953125 C 416.277344 131.953125 418.847656 131.667969 421.277344 131.238281 C 431.425781 129.234375 440.140625 123.515625 445.859375 114.933594 C 450.433594 108.210938 452.71875 100.058594 452.433594 91.761719 Z M 448.429688 101.632812 L 442.714844 97.769531 C 443.429688 95.195312 443.859375 92.476562 444 89.761719 L 449.289062 93.335938 C 449.433594 96.195312 449.003906 99.058594 448.429688 101.632812 Z M 448.71875 86.757812 C 448.859375 87.757812 449.003906 88.617188 449.144531 89.617188 L 444 86.183594 C 443.859375 84.324219 443.714844 82.464844 443.285156 80.605469 C 442.429688 76.171875 440.855469 71.882812 438.570312 68.164062 C 443.714844 73.027344 447.289062 79.460938 448.71875 86.757812 Z M 370.6875 94.765625 C 368.828125 85.46875 370.828125 76.03125 376.117188 68.164062 C 381.40625 60.296875 389.40625 55.003906 398.695312 53.144531 C 400.984375 52.71875 403.269531 52.429688 405.558594 52.429688 C 412.558594 52.429688 419.417969 54.433594 425.277344 58.4375 C 433.140625 63.730469 438.425781 71.738281 440.285156 81.035156 C 442.144531 90.332031 440.140625 99.773438 434.855469 107.636719 C 429.566406 115.503906 421.5625 120.796875 412.273438 122.65625 C 402.984375 124.515625 393.550781 122.511719 385.691406 117.222656 C 377.832031 112.070312 372.542969 104.0625 370.6875 94.765625 Z M 422.992188 122.226562 C 425.421875 121.082031 427.707031 119.507812 429.710938 117.9375 L 435.425781 121.796875 C 433.28125 123.515625 430.851562 124.800781 428.421875 125.945312 Z M 420.707031 128.378906 C 413.417969 129.808594 406.128906 128.949219 399.554688 125.945312 C 401.554688 126.230469 403.554688 126.375 405.414062 126.375 C 407.84375 126.375 410.417969 126.089844 412.84375 125.660156 C 415.273438 125.230469 417.417969 124.515625 419.707031 123.65625 L 424.851562 127.234375 C 423.5625 127.660156 422.136719 128.089844 420.707031 128.378906 Z M 437.855469 119.796875 L 432.140625 115.933594 C 433.855469 114.21875 435.570312 112.359375 437 110.355469 L 442.859375 114.21875 C 441.285156 116.21875 439.714844 118.078125 437.855469 119.796875 Z M 444.429688 111.644531 L 438.570312 107.78125 C 439.855469 105.636719 441 103.347656 441.714844 101.058594 L 447.429688 104.921875 C 446.714844 107.066406 445.714844 109.355469 444.429688 111.644531 Z M 444.429688 111.644531 "/>
</g>
<path style=" stroke:none;fill-rule:nonzero;fill:rgb(0%,0%,0%);fill-opacity:1;" d="M 401.839844 115.789062 L 401.839844 108.925781 C 397.839844 108.78125 393.839844 107.636719 391.410156 105.921875 L 392.980469 101.34375 C 395.410156 102.917969 398.984375 104.207031 402.699219 104.207031 C 407.558594 104.207031 410.84375 101.488281 410.84375 97.484375 C 410.84375 93.765625 408.128906 91.476562 403.128906 89.332031 C 396.265625 86.613281 391.980469 83.46875 391.980469 77.601562 C 391.980469 72.027344 395.980469 67.734375 402.269531 66.589844 L 402.269531 59.726562 L 406.414062 59.726562 L 406.414062 66.304688 C 410.558594 66.449219 413.273438 67.589844 415.273438 68.734375 L 413.558594 73.167969 C 412.132812 72.3125 409.414062 70.882812 404.984375 70.882812 C 399.699219 70.882812 397.839844 74.027344 397.839844 76.746094 C 397.839844 80.320312 400.410156 82.039062 406.273438 84.46875 C 413.273438 87.328125 416.847656 90.90625 416.847656 96.910156 C 416.847656 102.347656 413.132812 107.351562 406.128906 108.496094 L 406.128906 115.503906 L 401.839844 115.503906 Z M 401.839844 115.789062 "/>
<path style=" stroke:none;fill-rule:nonzero;fill:rgb(0%,0%,0%);fill-opacity:1;" d="M 324.820312 61.34375 L 324.535156 63.589844 L 340.234375 64.359375 L 340.273438 64.253906 L 328.230469 54.265625 L 326.894531 56.117188 L 325.699219 55.644531 L 328.105469 49.574219 L 329.300781 50.046875 L 329.011719 52.296875 L 343 64.273438 L 341.933594 66.964844 L 323.367188 66.53125 L 322.058594 68.316406 L 320.863281 67.839844 L 323.625 60.871094 Z M 324.820312 61.34375 "/>
<path style=" stroke:none;fill-rule:nonzero;fill:rgb(0%,0%,0%);fill-opacity:1;" d="M 353.039062 20.960938 L 351.859375 22.960938 L 362.957031 33.890625 L 364.9375 32.675781 L 365.851562 33.578125 L 360.632812 38.886719 L 359.714844 37.984375 L 360.894531 35.984375 L 355.765625 30.933594 L 349.59375 37.210938 L 354.722656 42.261719 L 356.699219 41.054688 L 357.613281 41.957031 L 352.398438 47.257812 L 351.484375 46.359375 L 352.65625 44.363281 L 341.558594 33.433594 L 339.585938 34.640625 L 338.671875 33.738281 L 343.886719 28.4375 L 344.800781 29.339844 L 343.625 31.332031 L 348.394531 36.027344 L 354.566406 29.75 L 349.796875 25.058594 L 347.820312 26.269531 L 346.902344 25.367188 L 352.125 20.058594 Z M 353.039062 20.960938 "/>
<path style=" stroke:none;fill-rule:nonzero;fill:rgb(0%,0%,0%);fill-opacity:1;" d="M 383.730469 24.480469 C 382.78125 24.882812 381.867188 25.097656 380.996094 25.121094 C 380.128906 25.152344 379.3125 25 378.550781 24.664062 L 378.882812 26.207031 L 377.257812 26.894531 L 374.84375 21.167969 L 376.597656 20.429688 C 377.367188 21.984375 378.25 22.96875 379.246094 23.382812 C 380.242188 23.792969 381.398438 23.71875 382.710938 23.164062 C 383.8125 22.699219 384.5625 22.128906 384.953125 21.449219 C 385.347656 20.769531 385.363281 20.003906 385.003906 19.152344 C 384.703125 18.441406 384.28125 17.933594 383.734375 17.625 C 383.1875 17.3125 382.503906 17.117188 381.683594 17.039062 C 380.867188 16.957031 379.917969 16.929688 378.84375 16.953125 C 377.648438 16.957031 376.597656 16.898438 375.695312 16.777344 C 374.792969 16.652344 374.019531 16.363281 373.382812 15.917969 C 372.75 15.46875 372.234375 14.765625 371.832031 13.8125 C 371.167969 12.234375 371.140625 10.800781 371.753906 9.515625 C 372.359375 8.234375 373.488281 7.246094 375.132812 6.550781 C 376.757812 5.863281 378.273438 5.769531 379.683594 6.257812 L 379.410156 5.066406 L 381.039062 4.378906 L 383.449219 10.105469 L 381.796875 10.800781 C 381.140625 9.242188 380.363281 8.214844 379.476562 7.726562 C 378.582031 7.242188 377.511719 7.261719 376.265625 7.789062 C 374.140625 8.683594 373.492188 10.109375 374.316406 12.066406 C 374.550781 12.625 374.851562 13.03125 375.210938 13.292969 C 375.574219 13.546875 376.074219 13.710938 376.71875 13.789062 C 377.359375 13.863281 378.242188 13.910156 379.367188 13.917969 C 380.984375 13.933594 382.320312 14.039062 383.378906 14.230469 C 384.433594 14.421875 385.28125 14.753906 385.910156 15.222656 C 386.546875 15.691406 387.042969 16.355469 387.402344 17.207031 C 387.839844 18.242188 387.964844 19.226562 387.773438 20.160156 C 387.585938 21.09375 387.144531 21.925781 386.453125 22.667969 C 385.757812 23.40625 384.851562 24.011719 383.730469 24.480469 Z M 383.730469 24.480469 "/>
<g clip-path="url(#clip4)" clip-rule="nonzero">
<path style=" stroke:none;fill-rule:nonzero;fill:rgb(0%,0%,0%);fill-opacity:1;" d="M 401.5 6 L 401.410156 0.246094 L 417.621094 0 L 417.707031 5.753906 L 416.210938 5.777344 L 415.292969 1.78125 L 411.011719 1.84375 L 411.25 17.445312 L 414.09375 18.046875 L 414.113281 19.332031 L 405.507812 19.460938 L 405.488281 18.175781 L 408.3125 17.492188 L 408.074219 1.890625 L 403.761719 1.953125 L 402.996094 5.980469 Z M 401.5 6 "/>
</g>
<path style=" stroke:none;fill-rule:nonzero;fill:rgb(0%,0%,0%);fill-opacity:1;" d="M 450.300781 19.328125 C 449.734375 20.75 448.984375 22.007812 448.042969 23.101562 C 447.109375 24.203125 446.070312 25.027344 444.933594 25.566406 C 443.949219 26.019531 442.898438 26.230469 441.789062 26.199219 C 440.679688 26.167969 439.476562 25.898438 438.1875 25.382812 C 436.894531 24.867188 435.828125 24.242188 434.988281 23.503906 C 434.148438 22.765625 433.542969 21.921875 433.175781 20.96875 C 432.738281 19.894531 432.550781 18.667969 432.609375 17.300781 C 432.664062 15.925781 432.976562 14.527344 433.539062 13.105469 C 434.117188 11.660156 434.875 10.390625 435.820312 9.296875 C 436.761719 8.207031 437.792969 7.390625 438.914062 6.855469 C 439.90625 6.386719 440.9375 6.167969 442.007812 6.191406 C 443.082031 6.214844 444.273438 6.488281 445.582031 7.011719 C 446.859375 7.519531 447.914062 8.136719 448.746094 8.863281 C 449.582031 9.585938 450.214844 10.449219 450.644531 11.445312 C 451.113281 12.578125 451.3125 13.832031 451.234375 15.214844 C 451.15625 16.59375 450.84375 17.964844 450.300781 19.328125 Z M 436.847656 13.84375 C 436.304688 15.203125 435.945312 16.449219 435.761719 17.585938 C 435.578125 18.726562 435.570312 19.714844 435.734375 20.546875 C 435.902344 21.324219 436.246094 21.996094 436.761719 22.558594 C 437.277344 23.117188 437.996094 23.582031 438.925781 23.953125 C 440.617188 24.625 442.085938 24.578125 443.328125 23.808594 C 444.015625 23.386719 444.675781 22.726562 445.300781 21.828125 C 445.933594 20.921875 446.519531 19.789062 447.058594 18.433594 C 447.601562 17.074219 447.953125 15.835938 448.117188 14.71875 C 448.285156 13.601562 448.277344 12.644531 448.09375 11.84375 C 447.914062 11.042969 447.554688 10.363281 447.023438 9.804688 C 446.484375 9.246094 445.78125 8.792969 444.902344 8.441406 C 444.054688 8.105469 443.273438 7.953125 442.546875 7.988281 C 441.824219 8.027344 441.144531 8.230469 440.519531 8.59375 C 439.128906 9.4375 437.902344 11.1875 436.847656 13.84375 Z M 436.847656 13.84375 "/>
<path style=" stroke:none;fill-rule:nonzero;fill:rgb(0%,0%,0%);fill-opacity:1;" d="M 473.480469 38.265625 C 473.074219 38.210938 472.652344 38.101562 472.222656 37.9375 C 471.789062 37.777344 471.308594 37.519531 470.777344 37.164062 C 470.765625 37.355469 470.742188 37.605469 470.703125 37.910156 C 470.675781 38.21875 470.613281 38.542969 470.519531 38.882812 L 468.773438 45.496094 L 470.078125 47.550781 L 469.164062 48.453125 L 465.105469 44.332031 L 466.023438 43.429688 L 468.582031 35.648438 L 466.464844 33.496094 L 461.675781 38.210938 L 463.058594 40.417969 L 462.144531 41.320312 L 456.722656 35.808594 L 457.636719 34.90625 L 459.609375 36.113281 L 470.703125 25.179688 L 469.527344 23.1875 L 470.445312 22.285156 L 477.085938 29.03125 C 477.6875 29.644531 478.15625 30.234375 478.492188 30.808594 C 478.828125 31.375 479.050781 31.96875 479.15625 32.589844 C 479.304688 33.351562 479.242188 34.128906 478.972656 34.917969 C 478.699219 35.710938 478.296875 36.371094 477.765625 36.894531 C 477.230469 37.421875 476.578125 37.808594 475.808594 38.054688 C 475.035156 38.300781 474.257812 38.371094 473.480469 38.265625 Z M 472.886719 27.167969 L 467.664062 32.3125 L 470.160156 34.851562 C 470.847656 35.550781 471.609375 35.933594 472.453125 36.003906 C 472.933594 36.035156 473.433594 35.933594 473.957031 35.699219 C 474.484375 35.472656 474.964844 35.144531 475.394531 34.71875 C 475.816406 34.304688 476.125 33.851562 476.324219 33.355469 C 476.523438 32.859375 476.605469 32.375 476.570312 31.914062 C 476.535156 31.519531 476.417969 31.140625 476.214844 30.78125 C 476.007812 30.417969 475.707031 30.03125 475.304688 29.625 Z M 472.886719 27.167969 "/>
<path style=" stroke:none;fill-rule:nonzero;fill:rgb(0%,0%,0%);fill-opacity:1;" d="M 491.929688 64.117188 L 485.394531 66.804688 L 484.777344 65.292969 L 487.046875 63.84375 L 485.460938 59.980469 L 478.734375 62.742188 L 481.710938 69.996094 L 485.921875 69.136719 L 486.613281 70.824219 L 481.09375 73.089844 L 475.050781 58.355469 L 476.238281 57.867188 L 477.710938 59.976562 L 492.113281 54.0625 L 491.679688 51.523438 L 492.867188 51.035156 L 498.6875 65.222656 L 493.445312 67.378906 L 492.8125 65.839844 L 496.1875 63.558594 L 493.382812 56.726562 L 487.074219 59.320312 L 488.65625 63.179688 L 491.3125 62.609375 Z M 491.929688 64.117188 "/>
<path style=" stroke:none;fill-rule:nonzero;fill:rgb(0%,0%,0%);fill-opacity:1;" d="M 345.007812 116.730469 L 343.652344 114.867188 L 331.542969 125.265625 L 331.585938 125.367188 L 347.429688 124.339844 L 347.121094 122.027344 L 348.332031 121.542969 L 350.789062 127.707031 L 349.578125 128.1875 L 348.222656 126.328125 L 329.558594 127.257812 L 328.472656 124.535156 L 342.464844 111.890625 L 342.191406 109.664062 L 343.402344 109.179688 L 346.222656 116.246094 Z M 345.007812 116.730469 "/>
<path style=" stroke:none;fill-rule:nonzero;fill:rgb(0%,0%,0%);fill-opacity:1;" d="M 368.683594 149.980469 L 366.675781 148.753906 L 355.425781 159.863281 L 356.621094 161.890625 L 355.691406 162.808594 L 350.390625 157.425781 L 351.320312 156.507812 L 353.324219 157.734375 L 358.527344 152.597656 L 352.253906 146.234375 L 347.050781 151.371094 L 348.25 153.394531 L 347.320312 154.3125 L 342.015625 148.933594 L 342.945312 148.015625 L 344.953125 149.242188 L 356.203125 138.132812 L 355.007812 136.105469 L 355.9375 135.1875 L 361.242188 140.570312 L 360.308594 141.488281 L 358.304688 140.261719 L 353.46875 145.035156 L 359.742188 151.398438 L 364.578125 146.625 L 363.378906 144.601562 L 364.308594 143.683594 L 369.613281 149.0625 Z M 368.683594 149.980469 "/>
<path style=" stroke:none;fill-rule:nonzero;fill:rgb(0%,0%,0%);fill-opacity:1;" d="M 377.929688 175.503906 C 376.960938 175.097656 376.160156 174.585938 375.519531 173.976562 C 374.882812 173.367188 374.417969 172.664062 374.121094 171.871094 L 373.242188 173.207031 L 371.585938 172.511719 L 374.03125 166.695312 L 375.808594 167.445312 C 375.226562 169.109375 375.136719 170.449219 375.542969 171.46875 C 375.953125 172.484375 376.824219 173.273438 378.15625 173.835938 C 379.277344 174.308594 380.222656 174.445312 380.988281 174.246094 C 381.761719 174.050781 382.328125 173.519531 382.695312 172.644531 C 382.996094 171.929688 383.066406 171.261719 382.90625 170.644531 C 382.746094 170.023438 382.402344 169.390625 381.882812 168.738281 C 381.359375 168.085938 380.710938 167.378906 379.929688 166.617188 C 379.078125 165.75 378.375 164.941406 377.824219 164.195312 C 377.273438 163.453125 376.933594 162.6875 376.808594 161.910156 C 376.6875 161.132812 376.828125 160.257812 377.234375 159.292969 C 377.910156 157.691406 378.929688 156.65625 380.296875 156.1875 C 381.660156 155.722656 383.179688 155.839844 384.847656 156.542969 C 386.5 157.238281 387.644531 158.273438 388.285156 159.644531 L 388.957031 158.597656 L 390.613281 159.292969 L 388.164062 165.109375 L 386.492188 164.402344 C 387.160156 162.8125 387.355469 161.523438 387.074219 160.527344 C 386.789062 159.535156 386.015625 158.777344 384.75 158.242188 C 382.59375 157.335938 381.101562 157.871094 380.265625 159.855469 C 380.027344 160.425781 379.941406 160.933594 380.011719 161.375 C 380.082031 161.816406 380.316406 162.296875 380.71875 162.820312 C 381.117188 163.339844 381.714844 164.015625 382.503906 164.839844 C 383.632812 166.027344 384.503906 167.070312 385.117188 167.976562 C 385.726562 168.882812 386.085938 169.734375 386.195312 170.53125 C 386.308594 171.320312 386.179688 172.148438 385.8125 173.023438 C 385.371094 174.070312 384.746094 174.855469 383.933594 175.378906 C 383.125 175.90625 382.207031 176.179688 381.175781 176.199219 C 380.144531 176.214844 379.0625 175.980469 377.929688 175.503906 Z M 377.929688 175.503906 "/>
<path style=" stroke:none;fill-rule:nonzero;fill:rgb(0%,0%,0%);fill-opacity:1;" d="M 401.566406 167.296875 L 401.65625 161.457031 L 418.109375 161.710938 L 418.019531 167.554688 L 416.5 167.53125 L 415.699219 163.441406 L 411.351562 163.371094 L 411.105469 179.21875 L 413.972656 179.910156 L 413.953125 181.21875 L 405.207031 181.082031 L 405.226562 179.777344 L 408.113281 179.171875 L 408.359375 163.324219 L 403.992188 163.257812 L 403.085938 167.320312 Z M 401.566406 167.296875 "/>
<path style=" stroke:none;fill-rule:nonzero;fill:rgb(0%,0%,0%);fill-opacity:1;" d="M 448.425781 161.71875 C 449 163.167969 449.324219 164.621094 449.398438 166.085938 C 449.472656 167.546875 449.277344 168.878906 448.824219 170.078125 C 448.410156 171.101562 447.78125 171.988281 446.941406 172.742188 C 446.101562 173.496094 445.027344 174.132812 443.714844 174.652344 C 442.398438 175.175781 441.179688 175.457031 440.046875 175.5 C 438.910156 175.539062 437.875 175.335938 436.9375 174.890625 C 435.867188 174.398438 434.875 173.628906 433.960938 172.578125 C 433.046875 171.527344 432.300781 170.277344 431.726562 168.832031 C 431.144531 167.367188 430.820312 165.902344 430.75 164.433594 C 430.6875 162.96875 430.882812 161.648438 431.332031 160.476562 C 431.734375 159.441406 432.34375 158.554688 433.152344 157.816406 C 433.964844 157.085938 435.035156 156.457031 436.363281 155.929688 C 437.660156 155.414062 438.867188 155.132812 439.988281 155.089844 C 441.113281 155.042969 442.179688 155.234375 443.191406 155.671875 C 444.324219 156.179688 445.34375 156.96875 446.25 158.039062 C 447.152344 159.109375 447.878906 160.335938 448.425781 161.71875 Z M 434.679688 167.070312 C 435.226562 168.449219 435.828125 169.625 436.484375 170.59375 C 437.144531 171.5625 437.828125 172.296875 438.535156 172.792969 C 439.203125 173.25 439.921875 173.503906 440.6875 173.558594 C 441.460938 173.613281 442.320312 173.449219 443.261719 173.074219 C 444.976562 172.394531 446.023438 171.332031 446.40625 169.894531 C 446.625 169.109375 446.648438 168.164062 446.480469 167.058594 C 446.316406 165.953125 445.960938 164.710938 445.414062 163.332031 C 444.863281 161.949219 444.261719 160.792969 443.605469 159.855469 C 442.949219 158.914062 442.277344 158.210938 441.582031 157.75 C 440.894531 157.28125 440.15625 157.027344 439.367188 156.992188 C 438.582031 156.949219 437.746094 157.105469 436.855469 157.460938 C 435.992188 157.800781 435.308594 158.238281 434.800781 158.777344 C 434.292969 159.304688 433.933594 159.925781 433.730469 160.632812 C 433.292969 162.230469 433.609375 164.378906 434.679688 167.070312 Z M 434.679688 167.070312 "/>
<path style=" stroke:none;fill-rule:nonzero;fill:rgb(0%,0%,0%);fill-opacity:1;" d="M 469.164062 143.496094 C 469.117188 143.902344 469.015625 144.328125 468.859375 144.769531 C 468.699219 145.214844 468.441406 145.707031 468.085938 146.25 C 468.277344 146.257812 468.53125 146.277344 468.851562 146.308594 C 469.164062 146.339844 469.492188 146.398438 469.835938 146.484375 L 476.566406 148.167969 L 478.636719 146.808594 L 479.566406 147.726562 L 475.441406 151.90625 L 474.511719 150.988281 L 466.589844 148.503906 L 464.429688 150.691406 L 469.28125 155.484375 L 471.5 154.042969 L 472.429688 154.960938 L 466.910156 160.554688 L 465.980469 159.636719 L 467.179688 157.613281 L 455.929688 146.5 L 453.921875 147.726562 L 452.992188 146.804688 L 459.75 139.957031 C 460.359375 139.339844 460.953125 138.855469 461.527344 138.503906 C 462.097656 138.15625 462.699219 137.921875 463.328125 137.800781 C 464.09375 137.644531 464.882812 137.695312 465.695312 137.957031 C 466.5 138.222656 467.175781 138.621094 467.71875 139.15625 C 468.257812 139.691406 468.65625 140.347656 468.914062 141.128906 C 469.175781 141.90625 469.261719 142.695312 469.164062 143.496094 Z M 457.917969 144.257812 L 463.210938 149.488281 L 465.746094 146.917969 C 466.449219 146.207031 466.828125 145.421875 466.886719 144.5625 C 466.910156 144.078125 466.800781 143.566406 466.558594 143.035156 C 466.316406 142.507812 465.976562 142.027344 465.539062 141.59375 C 465.113281 141.171875 464.644531 140.863281 464.140625 140.667969 C 463.636719 140.472656 463.144531 140.398438 462.667969 140.4375 C 462.273438 140.480469 461.898438 140.609375 461.53125 140.820312 C 461.167969 141.035156 460.785156 141.347656 460.378906 141.757812 Z M 457.917969 144.257812 "/>
<path style=" stroke:none;fill-rule:nonzero;fill:rgb(0%,0%,0%);fill-opacity:1;" d="M 480.332031 117.191406 L 486.957031 119.929688 L 486.324219 121.457031 L 483.652344 120.890625 L 482.035156 124.808594 L 488.867188 127.632812 L 491.902344 120.269531 L 488.25 117.875 L 488.953125 116.167969 L 494.550781 118.480469 L 488.382812 133.425781 L 487.175781 132.925781 L 487.625 130.347656 L 473.015625 124.308594 L 471.515625 126.457031 L 470.308594 125.957031 L 476.246094 111.5625 L 481.570312 113.761719 L 480.925781 115.320312 L 476.867188 114.550781 L 474.003906 121.488281 L 480.40625 124.132812 L 482.023438 120.214844 L 479.699219 118.71875 Z M 480.332031 117.191406 "/>
<path style=" stroke:none;fill-rule:nonzero;fill:rgb(0%,0%,0%);fill-opacity:1;" d="M 322.070312 92.996094 C 322.070312 88.867188 325.414062 85.519531 329.542969 85.523438 C 333.667969 85.523438 337.011719 88.867188 337.011719 92.996094 C 337.011719 97.125 333.667969 100.472656 329.542969 100.472656 C 325.414062 100.472656 322.070312 97.125 322.070312 92.996094 Z M 322.070312 92.996094 "/>
<path style=" stroke:none;fill-rule:nonzero;fill:rgb(0%,0%,0%);fill-opacity:1;" d="M 483.261719 92.996094 C 483.261719 88.867188 486.605469 85.519531 490.730469 85.523438 C 494.855469 85.523438 498.203125 88.867188 498.203125 92.996094 C 498.203125 97.125 494.855469 100.472656 490.730469 100.472656 C 486.605469 100.472656 483.261719 97.125 483.261719 92.996094 Z M 483.261719 92.996094 "/>
</g>
</svg>
