<?xml version="1.0" encoding="UTF-8"?>
<svg xmlns="http://www.w3.org/2000/svg" xmlns:xlink="http://www.w3.org/1999/xlink" width="200px" height="45px" viewBox="0 0 198 45" version="1.1">
<defs>
<clipPath id="clip1">
  <path d="M 0.117188 0.0351562 L 197.640625 0.0351562 L 197.640625 29.902344 L 0.117188 29.902344 Z M 0.117188 0.0351562 "/>
</clipPath>
<clipPath id="clip2">
  <path d="M 66.289062 36.964844 L 197.640625 36.964844 L 197.640625 45 L 66.289062 45 Z M 66.289062 36.964844 "/>
</clipPath>
</defs>
<g id="surface1">
<g clip-path="url(#clip1)" clip-rule="nonzero">
<path style=" stroke:none;fill-rule:nonzero;fill:rgb(0%,0%,0%);fill-opacity:1;" d="M 11.394531 2.378906 L 8.09375 3.222656 L 15.742188 25.632812 L 15.902344 25.632812 L 23.1875 3.222656 L 19.847656 2.378906 L 19.847656 0.441406 L 29.667969 0.441406 L 29.667969 2.378906 L 26.367188 3.222656 L 17.390625 29.460938 L 13.042969 29.460938 L 3.34375 3.222656 L 0.121094 2.378906 L 0.121094 0.441406 L 11.394531 0.441406 Z M 60.222656 2.378906 L 56.839844 3.222656 L 56.839844 26.679688 L 60.222656 27.527344 L 60.222656 29.460938 L 49.03125 29.460938 L 49.03125 27.527344 L 52.410156 26.679688 L 52.410156 15.839844 L 39.167969 15.839844 L 39.167969 26.679688 L 42.550781 27.527344 L 42.550781 29.460938 L 31.359375 29.460938 L 31.359375 27.527344 L 34.742188 26.679688 L 34.742188 3.222656 L 31.359375 2.378906 L 31.359375 0.441406 L 42.550781 0.441406 L 42.550781 2.378906 L 39.167969 3.222656 L 39.167969 13.300781 L 52.410156 13.300781 L 52.410156 3.222656 L 49.03125 2.378906 L 49.03125 0.441406 L 60.222656 0.441406 Z M 74.953125 29.902344 C 73.398438 29.902344 72.007812 29.667969 70.785156 29.195312 C 69.566406 28.726562 68.527344 28.035156 67.667969 27.121094 L 67.226562 29.460938 L 64.566406 29.460938 L 64.566406 20.109375 L 67.425781 20.109375 C 67.585938 22.714844 68.238281 24.597656 69.375 25.753906 C 70.515625 26.90625 72.164062 27.484375 74.308594 27.484375 C 76.105469 27.484375 77.476562 27.128906 78.414062 26.414062 C 79.355469 25.703125 79.824219 24.652344 79.824219 23.253906 C 79.824219 22.097656 79.535156 21.144531 78.953125 20.394531 C 78.378906 19.640625 77.546875 18.96875 76.457031 18.378906 C 75.375 17.785156 74.082031 17.195312 72.578125 16.605469 C 70.914062 15.90625 69.492188 15.207031 68.3125 14.507812 C 67.132812 13.808594 66.230469 12.964844 65.613281 11.96875 C 64.996094 10.976562 64.6875 9.699219 64.6875 8.140625 C 64.6875 5.5625 65.484375 3.558594 67.078125 2.136719 C 68.679688 0.710938 70.820312 0 73.503906 0 C 76.160156 0 78.320312 0.753906 79.984375 2.257812 L 80.308594 0.441406 L 82.964844 0.441406 L 82.964844 9.792969 L 80.265625 9.792969 C 80.265625 7.242188 79.789062 5.367188 78.832031 4.167969 C 77.882812 2.972656 76.390625 2.378906 74.351562 2.378906 C 70.886719 2.378906 69.15625 3.976562 69.15625 7.171875 C 69.15625 8.085938 69.332031 8.824219 69.679688 9.390625 C 70.027344 9.953125 70.625 10.476562 71.46875 10.960938 C 72.316406 11.445312 73.519531 12.023438 75.074219 12.695312 C 77.300781 13.664062 79.089844 14.589844 80.445312 15.476562 C 81.800781 16.363281 82.78125 17.316406 83.382812 18.335938 C 83.988281 19.359375 84.292969 20.566406 84.292969 21.964844 C 84.292969 23.65625 83.890625 25.09375 83.085938 26.277344 C 82.28125 27.457031 81.179688 28.359375 79.785156 28.976562 C 78.386719 29.59375 76.777344 29.902344 74.953125 29.902344 Z M 87.503906 9.109375 L 87.503906 0.441406 L 111.898438 0.441406 L 111.898438 9.109375 L 109.644531 9.109375 L 108.355469 3.0625 L 101.914062 3.0625 L 101.914062 26.558594 L 106.183594 27.527344 L 106.183594 29.460938 L 93.21875 29.460938 L 93.21875 27.527344 L 97.488281 26.558594 L 97.488281 3.0625 L 91.007812 3.0625 L 89.757812 9.109375 Z M 141.925781 14.628906 C 141.925781 16.941406 141.578125 19.121094 140.878906 21.175781 C 140.183594 23.234375 139.191406 24.960938 137.902344 26.355469 C 136.773438 27.539062 135.425781 28.417969 133.859375 28.992188 C 132.289062 29.574219 130.453125 29.863281 128.363281 29.863281 C 126.269531 29.863281 124.429688 29.582031 122.847656 29.015625 C 121.261719 28.453125 119.949219 27.605469 118.902344 26.476562 C 117.695312 25.214844 116.75 23.609375 116.066406 21.65625 C 115.382812 19.710938 115.039062 17.585938 115.039062 15.273438 C 115.039062 12.9375 115.394531 10.738281 116.109375 8.679688 C 116.816406 6.628906 117.800781 4.917969 119.0625 3.546875 C 120.191406 2.335938 121.511719 1.449219 123.03125 0.886719 C 124.546875 0.324219 126.363281 0.0390625 128.480469 0.0390625 C 130.546875 0.0390625 132.367188 0.3125 133.941406 0.863281 C 135.507812 1.414062 136.867188 2.269531 138.023438 3.425781 C 139.308594 4.742188 140.285156 6.386719 140.945312 8.359375 C 141.597656 10.335938 141.925781 12.425781 141.925781 14.628906 Z M 120.070312 14.46875 C 120.070312 16.671875 120.257812 18.621094 120.632812 20.3125 C 121.007812 22.003906 121.546875 23.386719 122.242188 24.464844 C 122.914062 25.457031 123.765625 26.203125 124.804688 26.695312 C 125.832031 27.195312 127.101562 27.445312 128.601562 27.445312 C 131.339844 27.445312 133.367188 26.558594 134.679688 24.785156 C 135.40625 23.816406 135.957031 22.527344 136.332031 20.917969 C 136.707031 19.304688 136.894531 17.398438 136.894531 15.195312 C 136.894531 12.992188 136.703125 11.0625 136.316406 9.40625 C 135.921875 7.757812 135.378906 6.421875 134.679688 5.402344 C 133.984375 4.378906 133.105469 3.628906 132.046875 3.144531 C 130.984375 2.660156 129.742188 2.417969 128.320312 2.417969 C 126.953125 2.417969 125.773438 2.644531 124.777344 3.101562 C 123.785156 3.558594 122.953125 4.21875 122.285156 5.078125 C 120.808594 7.039062 120.070312 10.167969 120.070312 14.46875 Z M 165.636719 14.066406 C 165.152344 14.441406 164.59375 14.777344 163.960938 15.074219 C 163.332031 15.367188 162.550781 15.609375 161.609375 15.796875 C 161.796875 16.011719 162.039062 16.300781 162.335938 16.660156 C 162.628906 17.027344 162.914062 17.4375 163.179688 17.894531 L 168.414062 26.761719 L 171.996094 27.527344 L 171.996094 29.460938 L 163.300781 29.460938 L 163.300781 27.527344 L 157.664062 16.5625 L 153.117188 16.5625 L 153.117188 26.679688 L 156.941406 27.527344 L 156.941406 29.460938 L 145.308594 29.460938 L 145.308594 27.527344 L 148.6875 26.679688 L 148.6875 3.222656 L 145.308594 2.378906 L 145.308594 0.441406 L 159.558594 0.441406 C 160.847656 0.441406 161.972656 0.5625 162.9375 0.804688 C 163.90625 1.046875 164.777344 1.4375 165.554688 1.976562 C 166.523438 2.621094 167.285156 3.507812 167.851562 4.632812 C 168.414062 5.761719 168.695312 6.890625 168.695312 8.019531 C 168.695312 9.148438 168.417969 10.253906 167.867188 11.339844 C 167.320312 12.433594 166.574219 13.339844 165.636719 14.066406 Z M 153.117188 2.980469 L 153.117188 14.023438 L 158.472656 14.023438 C 159.945312 14.023438 161.167969 13.609375 162.132812 12.777344 C 162.671875 12.292969 163.09375 11.648438 163.398438 10.839844 C 163.710938 10.035156 163.863281 9.175781 163.863281 8.261719 C 163.863281 7.375 163.703125 6.5625 163.382812 5.820312 C 163.058594 5.082031 162.628906 4.488281 162.09375 4.03125 C 161.636719 3.652344 161.105469 3.386719 160.5 3.222656 C 159.898438 3.0625 159.167969 2.980469 158.308594 2.980469 Z M 191.359375 9.230469 L 191.359375 19.867188 L 188.902344 19.867188 L 188.179688 15.878906 L 181.898438 15.878906 L 181.898438 26.839844 L 193.691406 26.839844 L 194.898438 20.472656 L 197.636719 20.472656 L 197.636719 29.460938 L 173.6875 29.460938 L 173.6875 27.527344 L 177.46875 26.679688 L 177.46875 3.222656 L 173.6875 2.378906 L 173.6875 0.441406 L 196.75 0.441406 L 196.75 8.988281 L 194.257812 8.988281 L 193.007812 2.980469 L 181.898438 2.980469 L 181.898438 13.257812 L 188.179688 13.257812 L 188.902344 9.230469 Z M 191.359375 9.230469 "/>
</g>
<g clip-path="url(#clip2)" clip-rule="nonzero">
<path style=" stroke:none;fill-rule:nonzero;fill:rgb(0%,0%,0%);fill-opacity:1;" d="M 67.175781 37.140625 L 67.175781 43.535156 L 66.3125 43.535156 L 66.3125 37.140625 Z M 69.738281 43.535156 L 68.941406 43.535156 L 68.941406 39.695312 L 68.441406 39.636719 C 68.378906 39.621094 68.328125 39.597656 68.289062 39.566406 C 68.25 39.535156 68.226562 39.492188 68.226562 39.433594 L 68.226562 39.105469 L 68.941406 39.105469 L 68.941406 38.667969 C 68.941406 38.410156 68.976562 38.179688 69.050781 37.980469 C 69.121094 37.777344 69.226562 37.609375 69.363281 37.46875 C 69.496094 37.332031 69.660156 37.226562 69.851562 37.15625 C 70.039062 37.085938 70.253906 37.050781 70.492188 37.050781 C 70.695312 37.050781 70.882812 37.078125 71.054688 37.136719 L 71.035156 37.535156 C 71.03125 37.59375 71.007812 37.628906 70.960938 37.644531 C 70.910156 37.652344 70.84375 37.660156 70.757812 37.660156 L 70.621094 37.660156 C 70.484375 37.660156 70.359375 37.675781 70.25 37.714844 C 70.136719 37.75 70.042969 37.808594 69.960938 37.886719 C 69.882812 37.96875 69.820312 38.074219 69.777344 38.203125 C 69.734375 38.335938 69.710938 38.496094 69.710938 38.691406 L 69.710938 39.105469 L 71.019531 39.105469 L 71.019531 39.679688 L 69.738281 39.679688 Z M 73.574219 39.015625 L 74.367188 39.015625 L 74.367188 43.535156 L 73.574219 43.535156 Z M 74.546875 37.597656 C 74.546875 37.675781 74.53125 37.746094 74.5 37.816406 C 74.46875 37.882812 74.425781 37.941406 74.375 37.992188 C 74.324219 38.042969 74.261719 38.085938 74.195312 38.113281 C 74.125 38.144531 74.054688 38.160156 73.976562 38.160156 C 73.898438 38.160156 73.828125 38.144531 73.761719 38.113281 C 73.691406 38.085938 73.632812 38.042969 73.582031 37.992188 C 73.527344 37.941406 73.488281 37.882812 73.457031 37.816406 C 73.429688 37.746094 73.414062 37.675781 73.414062 37.597656 C 73.414062 37.519531 73.429688 37.445312 73.457031 37.378906 C 73.488281 37.308594 73.527344 37.246094 73.582031 37.195312 C 73.632812 37.140625 73.691406 37.101562 73.761719 37.070312 C 73.828125 37.039062 73.898438 37.027344 73.976562 37.027344 C 74.054688 37.027344 74.125 37.039062 74.195312 37.070312 C 74.261719 37.101562 74.324219 37.140625 74.375 37.195312 C 74.425781 37.246094 74.46875 37.308594 74.5 37.378906 C 74.53125 37.445312 74.546875 37.519531 74.546875 37.597656 Z M 77.136719 43.609375 C 76.78125 43.609375 76.503906 43.507812 76.3125 43.308594 C 76.121094 43.109375 76.027344 42.824219 76.027344 42.449219 L 76.027344 39.679688 L 75.480469 39.679688 C 75.433594 39.679688 75.394531 39.667969 75.363281 39.640625 C 75.328125 39.609375 75.3125 39.566406 75.3125 39.507812 L 75.3125 39.191406 L 76.050781 39.097656 L 76.234375 37.699219 C 76.242188 37.65625 76.261719 37.617188 76.292969 37.589844 C 76.324219 37.5625 76.367188 37.546875 76.417969 37.546875 L 76.820312 37.546875 L 76.820312 39.105469 L 78.109375 39.105469 L 78.109375 39.679688 L 76.820312 39.679688 L 76.820312 42.394531 C 76.820312 42.585938 76.863281 42.726562 76.957031 42.816406 C 77.050781 42.910156 77.167969 42.957031 77.3125 42.957031 C 77.398438 42.957031 77.46875 42.945312 77.53125 42.921875 C 77.589844 42.898438 77.644531 42.875 77.6875 42.847656 C 77.734375 42.820312 77.769531 42.796875 77.800781 42.777344 C 77.832031 42.753906 77.859375 42.742188 77.882812 42.742188 C 77.925781 42.742188 77.964844 42.765625 77.996094 42.816406 L 78.226562 43.199219 C 78.089844 43.324219 77.925781 43.425781 77.734375 43.5 C 77.539062 43.570312 77.339844 43.609375 77.136719 43.609375 Z M 84.128906 40.644531 L 84.128906 43.535156 L 83.773438 43.535156 C 83.695312 43.535156 83.636719 43.523438 83.585938 43.5 C 83.539062 43.476562 83.507812 43.425781 83.496094 43.347656 L 83.40625 42.929688 C 83.285156 43.035156 83.171875 43.132812 83.058594 43.21875 C 82.945312 43.304688 82.824219 43.375 82.703125 43.429688 C 82.578125 43.488281 82.445312 43.535156 82.300781 43.5625 C 82.160156 43.59375 82.003906 43.609375 81.832031 43.609375 C 81.65625 43.609375 81.492188 43.582031 81.339844 43.535156 C 81.1875 43.484375 81.054688 43.410156 80.941406 43.3125 C 80.828125 43.214844 80.738281 43.089844 80.671875 42.941406 C 80.605469 42.789062 80.570312 42.613281 80.570312 42.40625 C 80.570312 42.226562 80.621094 42.058594 80.71875 41.894531 C 80.816406 41.726562 80.972656 41.582031 81.191406 41.453125 C 81.410156 41.324219 81.695312 41.21875 82.050781 41.136719 C 82.402344 41.054688 82.835938 41.007812 83.347656 40.996094 L 83.347656 40.644531 C 83.347656 40.292969 83.273438 40.027344 83.121094 39.847656 C 82.972656 39.667969 82.75 39.578125 82.457031 39.578125 C 82.261719 39.578125 82.101562 39.601562 81.96875 39.652344 C 81.835938 39.703125 81.722656 39.757812 81.625 39.816406 C 81.527344 39.878906 81.445312 39.933594 81.375 39.984375 C 81.304688 40.03125 81.234375 40.054688 81.167969 40.054688 C 81.113281 40.054688 81.066406 40.042969 81.027344 40.011719 C 80.988281 39.984375 80.953125 39.949219 80.929688 39.90625 L 80.789062 39.65625 C 81.039062 39.414062 81.308594 39.234375 81.597656 39.113281 C 81.882812 38.996094 82.203125 38.933594 82.554688 38.933594 C 82.804688 38.933594 83.03125 38.976562 83.226562 39.058594 C 83.421875 39.144531 83.585938 39.257812 83.722656 39.410156 C 83.855469 39.558594 83.957031 39.738281 84.023438 39.949219 C 84.09375 40.160156 84.128906 40.394531 84.128906 40.644531 Z M 82.070312 43.050781 C 82.207031 43.050781 82.335938 43.035156 82.453125 43.007812 C 82.566406 42.980469 82.675781 42.9375 82.777344 42.886719 C 82.882812 42.835938 82.980469 42.773438 83.070312 42.699219 C 83.164062 42.621094 83.257812 42.539062 83.347656 42.441406 L 83.347656 41.5 C 82.980469 41.515625 82.671875 41.542969 82.417969 41.589844 C 82.160156 41.632812 81.953125 41.695312 81.792969 41.769531 C 81.632812 41.84375 81.515625 41.929688 81.441406 42.03125 C 81.367188 42.132812 81.332031 42.246094 81.332031 42.371094 C 81.332031 42.488281 81.351562 42.59375 81.390625 42.679688 C 81.429688 42.765625 81.480469 42.835938 81.546875 42.890625 C 81.613281 42.945312 81.6875 42.988281 81.777344 43.011719 C 81.867188 43.035156 81.964844 43.050781 82.070312 43.050781 Z M 85.417969 39.015625 L 86.210938 39.015625 L 86.210938 43.535156 L 85.417969 43.535156 Z M 86.390625 37.597656 C 86.390625 37.675781 86.375 37.746094 86.34375 37.816406 C 86.3125 37.882812 86.269531 37.941406 86.21875 37.992188 C 86.167969 38.042969 86.105469 38.085938 86.039062 38.113281 C 85.96875 38.144531 85.894531 38.160156 85.820312 38.160156 C 85.742188 38.160156 85.667969 38.144531 85.601562 38.113281 C 85.535156 38.085938 85.476562 38.042969 85.425781 37.992188 C 85.371094 37.941406 85.332031 37.882812 85.300781 37.816406 C 85.273438 37.746094 85.257812 37.675781 85.257812 37.597656 C 85.257812 37.519531 85.273438 37.445312 85.300781 37.378906 C 85.332031 37.308594 85.371094 37.246094 85.425781 37.195312 C 85.476562 37.140625 85.535156 37.101562 85.601562 37.070312 C 85.667969 37.039062 85.742188 37.027344 85.820312 37.027344 C 85.894531 37.027344 85.96875 37.039062 86.039062 37.070312 C 86.105469 37.101562 86.167969 37.140625 86.21875 37.195312 C 86.269531 37.246094 86.3125 37.308594 86.34375 37.378906 C 86.375 37.445312 86.390625 37.519531 86.390625 37.597656 Z M 88.402344 43.535156 L 87.609375 43.535156 L 87.609375 39.015625 L 88.082031 39.015625 C 88.195312 39.015625 88.265625 39.070312 88.296875 39.183594 L 88.359375 39.671875 C 88.554688 39.453125 88.773438 39.28125 89.015625 39.144531 C 89.257812 39.011719 89.539062 38.945312 89.855469 38.945312 C 90.105469 38.945312 90.320312 38.984375 90.507812 39.066406 C 90.699219 39.148438 90.855469 39.265625 90.980469 39.414062 C 91.109375 39.566406 91.203125 39.746094 91.269531 39.957031 C 91.335938 40.167969 91.367188 40.402344 91.367188 40.65625 L 91.367188 43.535156 L 90.574219 43.535156 L 90.574219 40.65625 C 90.574219 40.316406 90.496094 40.050781 90.339844 39.863281 C 90.183594 39.671875 89.945312 39.578125 89.625 39.578125 C 89.390625 39.578125 89.171875 39.632812 88.96875 39.746094 C 88.765625 39.859375 88.574219 40.015625 88.402344 40.207031 Z M 92.273438 37.140625 L 92.960938 37.140625 L 92.960938 38.4375 L 92.890625 39.128906 C 92.882812 39.222656 92.855469 39.296875 92.816406 39.347656 C 92.773438 39.402344 92.707031 39.425781 92.613281 39.425781 C 92.535156 39.425781 92.476562 39.402344 92.433594 39.347656 C 92.390625 39.296875 92.359375 39.222656 92.34375 39.128906 L 92.273438 38.4375 Z M 95.664062 43.609375 C 95.304688 43.609375 95.03125 43.507812 94.839844 43.308594 C 94.648438 43.109375 94.554688 42.824219 94.554688 42.449219 L 94.554688 39.679688 L 94.011719 39.679688 C 93.960938 39.679688 93.921875 39.667969 93.890625 39.640625 C 93.855469 39.609375 93.839844 39.566406 93.839844 39.507812 L 93.839844 39.191406 L 94.582031 39.097656 L 94.761719 37.699219 C 94.769531 37.65625 94.789062 37.617188 94.820312 37.589844 C 94.851562 37.5625 94.894531 37.546875 94.945312 37.546875 L 95.347656 37.546875 L 95.347656 39.105469 L 96.640625 39.105469 L 96.640625 39.679688 L 95.347656 39.679688 L 95.347656 42.394531 C 95.347656 42.585938 95.394531 42.726562 95.484375 42.816406 C 95.578125 42.910156 95.695312 42.957031 95.839844 42.957031 C 95.925781 42.957031 95.996094 42.945312 96.054688 42.921875 C 96.117188 42.898438 96.171875 42.875 96.214844 42.847656 C 96.261719 42.820312 96.296875 42.796875 96.328125 42.777344 C 96.359375 42.753906 96.386719 42.742188 96.410156 42.742188 C 96.453125 42.742188 96.492188 42.765625 96.523438 42.816406 L 96.753906 43.199219 C 96.617188 43.324219 96.453125 43.425781 96.257812 43.5 C 96.066406 43.570312 95.867188 43.609375 95.664062 43.609375 Z M 101.125 38.945312 C 101.394531 38.945312 101.644531 38.988281 101.875 39.082031 C 102.101562 39.171875 102.300781 39.304688 102.464844 39.472656 C 102.632812 39.644531 102.761719 39.855469 102.855469 40.109375 C 102.949219 40.359375 102.996094 40.644531 102.996094 40.964844 C 102.996094 41.089844 102.984375 41.175781 102.957031 41.214844 C 102.929688 41.257812 102.878906 41.277344 102.804688 41.277344 L 99.800781 41.277344 C 99.808594 41.5625 99.847656 41.8125 99.917969 42.023438 C 99.988281 42.234375 100.085938 42.410156 100.210938 42.554688 C 100.335938 42.695312 100.484375 42.800781 100.65625 42.867188 C 100.828125 42.9375 101.023438 42.972656 101.238281 42.972656 C 101.4375 42.972656 101.609375 42.949219 101.75 42.90625 C 101.894531 42.859375 102.019531 42.808594 102.125 42.753906 C 102.226562 42.703125 102.316406 42.652344 102.382812 42.605469 C 102.453125 42.558594 102.515625 42.535156 102.566406 42.535156 C 102.628906 42.535156 102.679688 42.5625 102.714844 42.613281 L 102.9375 42.902344 C 102.839844 43.023438 102.722656 43.125 102.589844 43.214844 C 102.453125 43.300781 102.304688 43.375 102.148438 43.429688 C 101.992188 43.484375 101.832031 43.527344 101.664062 43.554688 C 101.5 43.585938 101.332031 43.597656 101.171875 43.597656 C 100.859375 43.597656 100.570312 43.546875 100.308594 43.441406 C 100.046875 43.335938 99.816406 43.179688 99.625 42.976562 C 99.433594 42.773438 99.285156 42.519531 99.179688 42.21875 C 99.070312 41.917969 99.015625 41.574219 99.015625 41.183594 C 99.015625 40.867188 99.066406 40.574219 99.160156 40.300781 C 99.257812 40.027344 99.398438 39.789062 99.578125 39.589844 C 99.761719 39.390625 99.980469 39.230469 100.242188 39.117188 C 100.503906 39.003906 100.800781 38.945312 101.125 38.945312 Z M 101.144531 39.53125 C 100.761719 39.53125 100.457031 39.640625 100.238281 39.863281 C 100.019531 40.082031 99.882812 40.390625 99.828125 40.78125 L 102.285156 40.78125 C 102.285156 40.597656 102.257812 40.429688 102.207031 40.277344 C 102.160156 40.125 102.085938 39.992188 101.984375 39.878906 C 101.886719 39.769531 101.769531 39.679688 101.628906 39.621094 C 101.484375 39.558594 101.324219 39.53125 101.144531 39.53125 Z M 103.214844 43.535156 L 104.796875 41.21875 L 103.277344 39.015625 L 104.039062 39.015625 C 104.105469 39.015625 104.152344 39.027344 104.179688 39.046875 C 104.210938 39.066406 104.238281 39.097656 104.261719 39.136719 L 105.367188 40.832031 C 105.394531 40.75 105.433594 40.667969 105.484375 40.582031 L 106.453125 39.15625 C 106.484375 39.113281 106.515625 39.078125 106.542969 39.054688 C 106.574219 39.027344 106.609375 39.015625 106.65625 39.015625 L 107.386719 39.015625 L 105.867188 41.175781 L 107.449219 43.535156 L 106.6875 43.535156 C 106.621094 43.535156 106.570312 43.519531 106.53125 43.484375 C 106.496094 43.449219 106.464844 43.414062 106.441406 43.371094 L 105.304688 41.601562 C 105.285156 41.6875 105.253906 41.761719 105.210938 41.832031 L 104.160156 43.371094 C 104.128906 43.414062 104.097656 43.449219 104.0625 43.484375 C 104.03125 43.519531 103.984375 43.535156 103.921875 43.535156 Z M 109.027344 45.066406 L 108.234375 45.066406 L 108.234375 39.015625 L 108.707031 39.015625 C 108.820312 39.015625 108.890625 39.070312 108.917969 39.183594 L 108.984375 39.71875 C 109.179688 39.480469 109.398438 39.292969 109.648438 39.148438 C 109.894531 39.007812 110.183594 38.933594 110.507812 38.933594 C 110.765625 38.933594 111 38.984375 111.210938 39.085938 C 111.421875 39.183594 111.601562 39.332031 111.75 39.527344 C 111.898438 39.722656 112.011719 39.964844 112.09375 40.253906 C 112.171875 40.539062 112.210938 40.871094 112.210938 41.246094 C 112.210938 41.578125 112.167969 41.890625 112.078125 42.179688 C 111.988281 42.464844 111.863281 42.714844 111.695312 42.921875 C 111.527344 43.132812 111.324219 43.296875 111.082031 43.417969 C 110.839844 43.539062 110.570312 43.597656 110.265625 43.597656 C 109.984375 43.597656 109.746094 43.550781 109.550781 43.460938 C 109.351562 43.367188 109.175781 43.238281 109.027344 43.066406 Z M 110.242188 39.578125 C 109.984375 39.578125 109.757812 39.636719 109.5625 39.757812 C 109.367188 39.875 109.1875 40.042969 109.027344 40.261719 L 109.027344 42.449219 C 109.171875 42.644531 109.332031 42.78125 109.503906 42.863281 C 109.679688 42.941406 109.875 42.984375 110.085938 42.984375 C 110.503906 42.984375 110.828125 42.832031 111.054688 42.53125 C 111.277344 42.230469 111.390625 41.804688 111.390625 41.246094 C 111.390625 40.953125 111.367188 40.699219 111.3125 40.488281 C 111.261719 40.277344 111.1875 40.105469 111.089844 39.96875 C 110.992188 39.832031 110.871094 39.734375 110.730469 39.671875 C 110.585938 39.609375 110.425781 39.578125 110.242188 39.578125 Z M 114.941406 38.945312 C 115.210938 38.945312 115.457031 38.988281 115.6875 39.082031 C 115.917969 39.171875 116.113281 39.304688 116.28125 39.472656 C 116.445312 39.644531 116.578125 39.855469 116.671875 40.109375 C 116.765625 40.359375 116.8125 40.644531 116.8125 40.964844 C 116.8125 41.089844 116.796875 41.175781 116.769531 41.214844 C 116.742188 41.257812 116.695312 41.277344 116.617188 41.277344 L 113.613281 41.277344 C 113.621094 41.5625 113.660156 41.8125 113.730469 42.023438 C 113.800781 42.234375 113.898438 42.410156 114.023438 42.554688 C 114.148438 42.695312 114.296875 42.800781 114.46875 42.867188 C 114.644531 42.9375 114.835938 42.972656 115.050781 42.972656 C 115.25 42.972656 115.421875 42.949219 115.566406 42.90625 C 115.710938 42.859375 115.832031 42.808594 115.9375 42.753906 C 116.042969 42.703125 116.128906 42.652344 116.199219 42.605469 C 116.269531 42.558594 116.328125 42.535156 116.378906 42.535156 C 116.445312 42.535156 116.492188 42.5625 116.53125 42.613281 L 116.753906 42.902344 C 116.65625 43.023438 116.539062 43.125 116.402344 43.214844 C 116.265625 43.300781 116.117188 43.375 115.960938 43.429688 C 115.804688 43.484375 115.644531 43.527344 115.476562 43.554688 C 115.3125 43.585938 115.148438 43.597656 114.984375 43.597656 C 114.671875 43.597656 114.382812 43.546875 114.121094 43.441406 C 113.859375 43.335938 113.632812 43.179688 113.441406 42.976562 C 113.246094 42.773438 113.097656 42.519531 112.992188 42.21875 C 112.882812 41.917969 112.832031 41.574219 112.832031 41.183594 C 112.832031 40.867188 112.878906 40.574219 112.976562 40.300781 C 113.074219 40.027344 113.210938 39.789062 113.390625 39.589844 C 113.574219 39.390625 113.796875 39.230469 114.058594 39.117188 C 114.320312 39.003906 114.613281 38.945312 114.941406 38.945312 Z M 114.957031 39.53125 C 114.574219 39.53125 114.273438 39.640625 114.050781 39.863281 C 113.832031 40.082031 113.695312 40.390625 113.640625 40.78125 L 116.097656 40.78125 C 116.097656 40.597656 116.074219 40.429688 116.023438 40.277344 C 115.972656 40.125 115.898438 39.992188 115.796875 39.878906 C 115.703125 39.769531 115.582031 39.679688 115.441406 39.621094 C 115.300781 39.558594 115.136719 39.53125 114.957031 39.53125 Z M 118.613281 43.535156 L 117.820312 43.535156 L 117.820312 39.015625 L 118.292969 39.015625 C 118.40625 39.015625 118.480469 39.070312 118.507812 39.183594 L 118.570312 39.671875 C 118.765625 39.453125 118.984375 39.28125 119.226562 39.144531 C 119.472656 39.011719 119.75 38.945312 120.066406 38.945312 C 120.316406 38.945312 120.53125 38.984375 120.71875 39.066406 C 120.910156 39.148438 121.066406 39.265625 121.191406 39.414062 C 121.320312 39.566406 121.417969 39.746094 121.480469 39.957031 C 121.546875 40.167969 121.578125 40.402344 121.578125 40.65625 L 121.578125 43.535156 L 120.785156 43.535156 L 120.785156 40.65625 C 120.785156 40.316406 120.707031 40.050781 120.550781 39.863281 C 120.394531 39.671875 120.15625 39.578125 119.835938 39.578125 C 119.601562 39.578125 119.382812 39.632812 119.179688 39.746094 C 118.976562 39.859375 118.789062 40.015625 118.613281 40.207031 Z M 125.539062 39.472656 L 125.363281 39.761719 C 125.328125 39.828125 125.269531 39.859375 125.195312 39.859375 C 125.152344 39.859375 125.101562 39.84375 125.046875 39.808594 C 124.988281 39.777344 124.921875 39.742188 124.839844 39.699219 C 124.757812 39.660156 124.660156 39.625 124.546875 39.589844 C 124.433594 39.554688 124.300781 39.539062 124.144531 39.539062 C 124.011719 39.539062 123.890625 39.554688 123.785156 39.589844 C 123.679688 39.625 123.585938 39.671875 123.511719 39.730469 C 123.433594 39.789062 123.375 39.859375 123.335938 39.9375 C 123.296875 40.015625 123.277344 40.101562 123.277344 40.195312 C 123.277344 40.308594 123.308594 40.40625 123.375 40.484375 C 123.441406 40.5625 123.53125 40.628906 123.640625 40.683594 C 123.75 40.742188 123.875 40.792969 124.015625 40.835938 C 124.15625 40.878906 124.296875 40.921875 124.445312 40.972656 C 124.59375 41.023438 124.738281 41.078125 124.875 41.136719 C 125.015625 41.195312 125.140625 41.269531 125.25 41.359375 C 125.359375 41.449219 125.449219 41.558594 125.515625 41.6875 C 125.582031 41.816406 125.617188 41.972656 125.617188 42.152344 C 125.617188 42.363281 125.578125 42.554688 125.503906 42.730469 C 125.429688 42.90625 125.320312 43.0625 125.175781 43.191406 C 125.027344 43.320312 124.851562 43.421875 124.640625 43.496094 C 124.429688 43.570312 124.183594 43.609375 123.910156 43.609375 C 123.59375 43.609375 123.308594 43.558594 123.054688 43.453125 C 122.796875 43.351562 122.582031 43.21875 122.402344 43.058594 L 122.589844 42.753906 C 122.613281 42.714844 122.640625 42.6875 122.675781 42.664062 C 122.707031 42.644531 122.75 42.636719 122.804688 42.636719 C 122.859375 42.636719 122.914062 42.65625 122.972656 42.699219 C 123.03125 42.738281 123.105469 42.785156 123.1875 42.835938 C 123.273438 42.886719 123.375 42.933594 123.496094 42.972656 C 123.617188 43.015625 123.769531 43.035156 123.949219 43.035156 C 124.101562 43.035156 124.238281 43.015625 124.355469 42.976562 C 124.46875 42.9375 124.566406 42.882812 124.644531 42.8125 C 124.722656 42.746094 124.777344 42.664062 124.816406 42.578125 C 124.855469 42.488281 124.871094 42.390625 124.871094 42.289062 C 124.871094 42.164062 124.839844 42.0625 124.773438 41.980469 C 124.703125 41.898438 124.617188 41.828125 124.507812 41.769531 C 124.394531 41.714844 124.269531 41.664062 124.128906 41.621094 C 123.988281 41.578125 123.84375 41.53125 123.699219 41.484375 C 123.550781 41.4375 123.40625 41.382812 123.265625 41.320312 C 123.125 41.261719 123 41.183594 122.886719 41.089844 C 122.777344 41 122.691406 40.886719 122.625 40.75 C 122.554688 40.613281 122.523438 40.449219 122.523438 40.257812 C 122.523438 40.082031 122.558594 39.917969 122.628906 39.761719 C 122.699219 39.601562 122.804688 39.460938 122.941406 39.339844 C 123.078125 39.21875 123.246094 39.121094 123.445312 39.050781 C 123.644531 38.980469 123.871094 38.945312 124.128906 38.945312 C 124.425781 38.945312 124.691406 38.992188 124.925781 39.085938 C 125.164062 39.179688 125.367188 39.308594 125.539062 39.472656 Z M 126.734375 39.015625 L 127.527344 39.015625 L 127.527344 43.535156 L 126.734375 43.535156 Z M 127.707031 37.597656 C 127.707031 37.675781 127.691406 37.746094 127.660156 37.816406 C 127.628906 37.882812 127.585938 37.941406 127.535156 37.992188 C 127.480469 38.042969 127.421875 38.085938 127.351562 38.113281 C 127.285156 38.144531 127.214844 38.160156 127.136719 38.160156 C 127.058594 38.160156 126.984375 38.144531 126.917969 38.113281 C 126.851562 38.085938 126.792969 38.042969 126.742188 37.992188 C 126.6875 37.941406 126.648438 37.882812 126.617188 37.816406 C 126.589844 37.746094 126.574219 37.675781 126.574219 37.597656 C 126.574219 37.519531 126.589844 37.445312 126.617188 37.378906 C 126.648438 37.308594 126.6875 37.246094 126.742188 37.195312 C 126.792969 37.140625 126.851562 37.101562 126.917969 37.070312 C 126.984375 37.039062 127.058594 37.027344 127.136719 37.027344 C 127.214844 37.027344 127.285156 37.039062 127.351562 37.070312 C 127.421875 37.101562 127.480469 37.140625 127.535156 37.195312 C 127.585938 37.246094 127.628906 37.308594 127.660156 37.378906 C 127.691406 37.445312 127.707031 37.519531 127.707031 37.597656 Z M 130.195312 43.535156 L 128.355469 39.015625 L 129.007812 39.015625 C 129.070312 39.015625 129.121094 39.03125 129.164062 39.066406 C 129.203125 39.097656 129.234375 39.136719 129.25 39.183594 L 130.394531 42.089844 C 130.4375 42.199219 130.46875 42.304688 130.496094 42.414062 C 130.519531 42.519531 130.539062 42.625 130.5625 42.726562 C 130.585938 42.625 130.609375 42.519531 130.636719 42.414062 C 130.664062 42.304688 130.699219 42.199219 130.742188 42.089844 L 131.898438 39.183594 C 131.917969 39.132812 131.945312 39.09375 131.988281 39.0625 C 132.027344 39.03125 132.074219 39.015625 132.132812 39.015625 L 132.753906 39.015625 L 130.914062 43.535156 Z M 135.160156 38.945312 C 135.429688 38.945312 135.679688 38.988281 135.910156 39.082031 C 136.136719 39.171875 136.335938 39.304688 136.5 39.472656 C 136.667969 39.644531 136.796875 39.855469 136.890625 40.109375 C 136.984375 40.359375 137.03125 40.644531 137.03125 40.964844 C 137.03125 41.089844 137.019531 41.175781 136.992188 41.214844 C 136.964844 41.257812 136.914062 41.277344 136.839844 41.277344 L 133.835938 41.277344 C 133.84375 41.5625 133.882812 41.8125 133.953125 42.023438 C 134.023438 42.234375 134.121094 42.410156 134.246094 42.554688 C 134.371094 42.695312 134.519531 42.800781 134.691406 42.867188 C 134.863281 42.9375 135.058594 42.972656 135.273438 42.972656 C 135.472656 42.972656 135.644531 42.949219 135.785156 42.90625 C 135.929688 42.859375 136.054688 42.808594 136.160156 42.753906 C 136.261719 42.703125 136.351562 42.652344 136.417969 42.605469 C 136.488281 42.558594 136.550781 42.535156 136.601562 42.535156 C 136.664062 42.535156 136.714844 42.5625 136.75 42.613281 L 136.972656 42.902344 C 136.875 43.023438 136.757812 43.125 136.621094 43.214844 C 136.484375 43.300781 136.339844 43.375 136.183594 43.429688 C 136.027344 43.484375 135.867188 43.527344 135.699219 43.554688 C 135.535156 43.585938 135.367188 43.597656 135.207031 43.597656 C 134.894531 43.597656 134.605469 43.546875 134.34375 43.441406 C 134.082031 43.335938 133.851562 43.179688 133.660156 42.976562 C 133.46875 42.773438 133.320312 42.519531 133.210938 42.21875 C 133.105469 41.917969 133.050781 41.574219 133.050781 41.183594 C 133.050781 40.867188 133.101562 40.574219 133.195312 40.300781 C 133.292969 40.027344 133.433594 39.789062 133.613281 39.589844 C 133.796875 39.390625 134.015625 39.230469 134.277344 39.117188 C 134.539062 39.003906 134.835938 38.945312 135.160156 38.945312 Z M 135.179688 39.53125 C 134.796875 39.53125 134.492188 39.640625 134.273438 39.863281 C 134.054688 40.082031 133.917969 40.390625 133.863281 40.78125 L 136.320312 40.78125 C 136.320312 40.597656 136.292969 40.429688 136.242188 40.277344 C 136.195312 40.125 136.117188 39.992188 136.019531 39.878906 C 135.921875 39.769531 135.804688 39.679688 135.664062 39.621094 C 135.519531 39.558594 135.359375 39.53125 135.179688 39.53125 Z M 137.8125 42.988281 C 137.8125 42.917969 137.824219 42.855469 137.847656 42.792969 C 137.875 42.734375 137.910156 42.679688 137.957031 42.632812 C 138.003906 42.585938 138.058594 42.550781 138.125 42.523438 C 138.1875 42.496094 138.261719 42.484375 138.335938 42.484375 C 138.425781 42.484375 138.507812 42.5 138.578125 42.53125 C 138.644531 42.566406 138.703125 42.609375 138.75 42.667969 C 138.796875 42.726562 138.832031 42.792969 138.855469 42.867188 C 138.878906 42.945312 138.890625 43.027344 138.890625 43.117188 C 138.890625 43.25 138.871094 43.390625 138.832031 43.535156 C 138.792969 43.679688 138.738281 43.820312 138.667969 43.964844 C 138.597656 44.105469 138.507812 44.242188 138.402344 44.375 C 138.296875 44.511719 138.175781 44.632812 138.042969 44.746094 L 137.910156 44.617188 C 137.871094 44.582031 137.851562 44.539062 137.851562 44.492188 C 137.851562 44.453125 137.871094 44.414062 137.914062 44.371094 C 137.941406 44.335938 137.980469 44.292969 138.027344 44.238281 C 138.074219 44.183594 138.121094 44.121094 138.167969 44.050781 C 138.214844 43.976562 138.261719 43.898438 138.300781 43.8125 C 138.339844 43.726562 138.367188 43.636719 138.386719 43.535156 L 138.328125 43.535156 C 138.25 43.535156 138.179688 43.523438 138.117188 43.496094 C 138.058594 43.46875 138.003906 43.433594 137.957031 43.382812 C 137.910156 43.332031 137.875 43.273438 137.847656 43.207031 C 137.824219 43.140625 137.8125 43.066406 137.8125 42.988281 Z M 141.742188 39.015625 L 142.535156 39.015625 L 142.535156 43.535156 L 141.742188 43.535156 Z M 142.710938 37.597656 C 142.710938 37.675781 142.695312 37.746094 142.664062 37.816406 C 142.636719 37.882812 142.59375 37.941406 142.542969 37.992188 C 142.488281 38.042969 142.429688 38.085938 142.359375 38.113281 C 142.292969 38.144531 142.21875 38.160156 142.140625 38.160156 C 142.066406 38.160156 141.992188 38.144531 141.925781 38.113281 C 141.859375 38.085938 141.800781 38.042969 141.746094 37.992188 C 141.695312 37.941406 141.65625 37.882812 141.625 37.816406 C 141.59375 37.746094 141.582031 37.675781 141.582031 37.597656 C 141.582031 37.519531 141.59375 37.445312 141.625 37.378906 C 141.65625 37.308594 141.695312 37.246094 141.746094 37.195312 C 141.800781 37.140625 141.859375 37.101562 141.925781 37.070312 C 141.992188 37.039062 142.066406 37.027344 142.140625 37.027344 C 142.21875 37.027344 142.292969 37.039062 142.359375 37.070312 C 142.429688 37.101562 142.488281 37.140625 142.542969 37.195312 C 142.59375 37.246094 142.636719 37.308594 142.664062 37.378906 C 142.695312 37.445312 142.710938 37.519531 142.710938 37.597656 Z M 145.300781 43.609375 C 144.945312 43.609375 144.671875 43.507812 144.480469 43.308594 C 144.289062 43.109375 144.191406 42.824219 144.191406 42.449219 L 144.191406 39.679688 L 143.648438 39.679688 C 143.601562 39.679688 143.5625 39.667969 143.527344 39.640625 C 143.496094 39.609375 143.480469 39.566406 143.480469 39.507812 L 143.480469 39.191406 L 144.21875 39.097656 L 144.402344 37.699219 C 144.40625 37.65625 144.425781 37.617188 144.460938 37.589844 C 144.492188 37.5625 144.535156 37.546875 144.585938 37.546875 L 144.984375 37.546875 L 144.984375 39.105469 L 146.277344 39.105469 L 146.277344 39.679688 L 144.984375 39.679688 L 144.984375 42.394531 C 144.984375 42.585938 145.03125 42.726562 145.125 42.816406 C 145.214844 42.910156 145.335938 42.957031 145.480469 42.957031 C 145.5625 42.957031 145.636719 42.945312 145.695312 42.921875 C 145.757812 42.898438 145.808594 42.875 145.855469 42.847656 C 145.898438 42.820312 145.9375 42.796875 145.96875 42.777344 C 146 42.753906 146.027344 42.742188 146.050781 42.742188 C 146.09375 42.742188 146.128906 42.765625 146.160156 42.816406 L 146.394531 43.199219 C 146.257812 43.324219 146.09375 43.425781 145.898438 43.5 C 145.707031 43.570312 145.507812 43.609375 145.300781 43.609375 Z M 152.292969 40.644531 L 152.292969 43.535156 L 151.941406 43.535156 C 151.863281 43.535156 151.800781 43.523438 151.753906 43.5 C 151.707031 43.476562 151.675781 43.425781 151.660156 43.347656 L 151.570312 42.929688 C 151.453125 43.035156 151.335938 43.132812 151.222656 43.21875 C 151.109375 43.304688 150.992188 43.375 150.867188 43.429688 C 150.742188 43.488281 150.609375 43.535156 150.46875 43.5625 C 150.328125 43.59375 150.171875 43.609375 149.996094 43.609375 C 149.824219 43.609375 149.660156 43.582031 149.503906 43.535156 C 149.351562 43.484375 149.21875 43.410156 149.105469 43.3125 C 148.992188 43.214844 148.902344 43.089844 148.835938 42.941406 C 148.769531 42.789062 148.738281 42.613281 148.738281 42.40625 C 148.738281 42.226562 148.785156 42.058594 148.882812 41.894531 C 148.980469 41.726562 149.140625 41.582031 149.359375 41.453125 C 149.578125 41.324219 149.863281 41.21875 150.21875 41.136719 C 150.570312 41.054688 151.003906 41.007812 151.511719 40.996094 L 151.511719 40.644531 C 151.511719 40.292969 151.4375 40.027344 151.289062 39.847656 C 151.136719 39.667969 150.917969 39.578125 150.621094 39.578125 C 150.429688 39.578125 150.265625 39.601562 150.132812 39.652344 C 150 39.703125 149.886719 39.757812 149.789062 39.816406 C 149.695312 39.878906 149.613281 39.933594 149.542969 39.984375 C 149.472656 40.03125 149.402344 40.054688 149.335938 40.054688 C 149.28125 40.054688 149.234375 40.042969 149.195312 40.011719 C 149.152344 39.984375 149.121094 39.949219 149.097656 39.90625 L 148.953125 39.65625 C 149.203125 39.414062 149.472656 39.234375 149.761719 39.113281 C 150.050781 38.996094 150.367188 38.933594 150.71875 38.933594 C 150.972656 38.933594 151.199219 38.976562 151.394531 39.058594 C 151.589844 39.144531 151.753906 39.257812 151.886719 39.410156 C 152.023438 39.558594 152.121094 39.738281 152.191406 39.949219 C 152.257812 40.160156 152.292969 40.394531 152.292969 40.644531 Z M 150.234375 43.050781 C 150.375 43.050781 150.5 43.035156 150.617188 43.007812 C 150.734375 42.980469 150.84375 42.9375 150.945312 42.886719 C 151.046875 42.835938 151.144531 42.773438 151.238281 42.699219 C 151.332031 42.621094 151.425781 42.539062 151.511719 42.441406 L 151.511719 41.5 C 151.148438 41.515625 150.839844 41.542969 150.582031 41.589844 C 150.328125 41.632812 150.117188 41.695312 149.957031 41.769531 C 149.796875 41.84375 149.679688 41.929688 149.605469 42.03125 C 149.535156 42.132812 149.5 42.246094 149.5 42.371094 C 149.5 42.488281 149.519531 42.59375 149.558594 42.679688 C 149.59375 42.765625 149.648438 42.835938 149.710938 42.890625 C 149.777344 42.945312 149.855469 42.988281 149.945312 43.011719 C 150.035156 43.035156 150.128906 43.050781 150.234375 43.050781 Z M 153.585938 39.015625 L 154.378906 39.015625 L 154.378906 43.535156 L 153.585938 43.535156 Z M 154.554688 37.597656 C 154.554688 37.675781 154.539062 37.746094 154.507812 37.816406 C 154.480469 37.882812 154.4375 37.941406 154.382812 37.992188 C 154.332031 38.042969 154.273438 38.085938 154.203125 38.113281 C 154.136719 38.144531 154.0625 38.160156 153.984375 38.160156 C 153.90625 38.160156 153.835938 38.144531 153.769531 38.113281 C 153.703125 38.085938 153.644531 38.042969 153.589844 37.992188 C 153.539062 37.941406 153.5 37.882812 153.46875 37.816406 C 153.4375 37.746094 153.425781 37.675781 153.425781 37.597656 C 153.425781 37.519531 153.4375 37.445312 153.46875 37.378906 C 153.5 37.308594 153.539062 37.246094 153.589844 37.195312 C 153.644531 37.140625 153.703125 37.101562 153.769531 37.070312 C 153.835938 37.039062 153.90625 37.027344 153.984375 37.027344 C 154.0625 37.027344 154.136719 37.039062 154.203125 37.070312 C 154.273438 37.101562 154.332031 37.140625 154.382812 37.195312 C 154.4375 37.246094 154.480469 37.308594 154.507812 37.378906 C 154.539062 37.445312 154.554688 37.519531 154.554688 37.597656 Z M 156.570312 43.535156 L 155.777344 43.535156 L 155.777344 39.015625 L 156.25 39.015625 C 156.363281 39.015625 156.433594 39.070312 156.464844 39.183594 L 156.527344 39.671875 C 156.722656 39.453125 156.941406 39.28125 157.183594 39.144531 C 157.425781 39.011719 157.707031 38.945312 158.023438 38.945312 C 158.269531 38.945312 158.488281 38.984375 158.675781 39.066406 C 158.863281 39.148438 159.023438 39.265625 159.148438 39.414062 C 159.273438 39.566406 159.371094 39.746094 159.4375 39.957031 C 159.503906 40.167969 159.535156 40.402344 159.535156 40.65625 L 159.535156 43.535156 L 158.742188 43.535156 L 158.742188 40.65625 C 158.742188 40.316406 158.664062 40.050781 158.507812 39.863281 C 158.351562 39.671875 158.113281 39.578125 157.792969 39.578125 C 157.558594 39.578125 157.339844 39.632812 157.132812 39.746094 C 156.929688 39.859375 156.742188 40.015625 156.570312 40.207031 Z M 160.4375 37.140625 L 161.128906 37.140625 L 161.128906 38.4375 L 161.058594 39.128906 C 161.046875 39.222656 161.023438 39.296875 160.980469 39.347656 C 160.941406 39.402344 160.875 39.425781 160.78125 39.425781 C 160.703125 39.425781 160.644531 39.402344 160.601562 39.347656 C 160.558594 39.296875 160.527344 39.222656 160.507812 39.128906 L 160.4375 38.4375 Z M 163.828125 43.609375 C 163.472656 43.609375 163.199219 43.507812 163.007812 43.308594 C 162.816406 43.109375 162.71875 42.824219 162.71875 42.449219 L 162.71875 39.679688 L 162.175781 39.679688 C 162.128906 39.679688 162.089844 39.667969 162.054688 39.640625 C 162.023438 39.609375 162.007812 39.566406 162.007812 39.507812 L 162.007812 39.191406 L 162.746094 39.097656 L 162.929688 37.699219 C 162.933594 37.65625 162.953125 37.617188 162.988281 37.589844 C 163.019531 37.5625 163.0625 37.546875 163.109375 37.546875 L 163.511719 37.546875 L 163.511719 39.105469 L 164.804688 39.105469 L 164.804688 39.679688 L 163.511719 39.679688 L 163.511719 42.394531 C 163.511719 42.585938 163.558594 42.726562 163.652344 42.816406 C 163.742188 42.910156 163.863281 42.957031 164.007812 42.957031 C 164.089844 42.957031 164.164062 42.945312 164.222656 42.921875 C 164.285156 42.898438 164.335938 42.875 164.382812 42.847656 C 164.425781 42.820312 164.464844 42.796875 164.496094 42.777344 C 164.527344 42.753906 164.554688 42.742188 164.578125 42.742188 C 164.621094 42.742188 164.65625 42.765625 164.691406 42.816406 L 164.921875 43.199219 C 164.785156 43.324219 164.617188 43.425781 164.425781 43.5 C 164.230469 43.570312 164.035156 43.609375 163.828125 43.609375 Z M 168.378906 43.535156 L 166.917969 39.015625 L 167.539062 39.015625 C 167.605469 39.015625 167.660156 39.03125 167.699219 39.066406 C 167.742188 39.097656 167.769531 39.136719 167.785156 39.183594 L 168.648438 42.089844 C 168.671875 42.199219 168.695312 42.300781 168.714844 42.402344 C 168.738281 42.5 168.753906 42.601562 168.769531 42.703125 C 168.792969 42.601562 168.820312 42.5 168.851562 42.402344 C 168.878906 42.300781 168.910156 42.199219 168.941406 42.089844 L 169.898438 39.164062 C 169.914062 39.117188 169.9375 39.082031 169.976562 39.050781 C 170.011719 39.023438 170.058594 39.007812 170.117188 39.007812 L 170.457031 39.007812 C 170.519531 39.007812 170.566406 39.023438 170.605469 39.050781 C 170.644531 39.082031 170.671875 39.117188 170.6875 39.164062 L 171.617188 42.089844 C 171.648438 42.195312 171.679688 42.296875 171.703125 42.398438 C 171.730469 42.5 171.753906 42.597656 171.777344 42.699219 C 171.792969 42.597656 171.8125 42.496094 171.835938 42.390625 C 171.859375 42.28125 171.886719 42.183594 171.910156 42.089844 L 172.792969 39.183594 C 172.808594 39.132812 172.835938 39.09375 172.878906 39.0625 C 172.921875 39.03125 172.96875 39.015625 173.023438 39.015625 L 173.621094 39.015625 L 172.160156 43.535156 L 171.535156 43.535156 C 171.457031 43.535156 171.402344 43.484375 171.371094 43.386719 L 170.375 40.320312 C 170.351562 40.25 170.332031 40.183594 170.316406 40.113281 C 170.300781 40.042969 170.285156 39.972656 170.269531 39.90625 C 170.257812 39.972656 170.242188 40.042969 170.226562 40.113281 C 170.210938 40.1875 170.195312 40.257812 170.167969 40.324219 L 169.15625 43.386719 C 169.125 43.484375 169.0625 43.535156 168.976562 43.535156 Z M 176.160156 38.945312 C 176.488281 38.945312 176.785156 39 177.050781 39.109375 C 177.320312 39.21875 177.542969 39.375 177.730469 39.578125 C 177.914062 39.78125 178.058594 40.023438 178.15625 40.3125 C 178.257812 40.601562 178.308594 40.921875 178.308594 41.273438 C 178.308594 41.628906 178.257812 41.953125 178.15625 42.238281 C 178.058594 42.523438 177.914062 42.765625 177.730469 42.96875 C 177.542969 43.171875 177.320312 43.328125 177.050781 43.4375 C 176.785156 43.542969 176.488281 43.597656 176.160156 43.597656 C 175.828125 43.597656 175.53125 43.542969 175.265625 43.4375 C 175 43.328125 174.773438 43.171875 174.585938 42.96875 C 174.398438 42.765625 174.253906 42.523438 174.152344 42.238281 C 174.050781 41.953125 174.003906 41.628906 174.003906 41.273438 C 174.003906 40.921875 174.050781 40.601562 174.152344 40.3125 C 174.253906 40.023438 174.398438 39.78125 174.585938 39.578125 C 174.773438 39.375 175 39.21875 175.265625 39.109375 C 175.53125 39 175.828125 38.945312 176.160156 38.945312 Z M 176.160156 42.976562 C 176.605469 42.976562 176.9375 42.828125 177.15625 42.53125 C 177.378906 42.230469 177.488281 41.8125 177.488281 41.277344 C 177.488281 40.738281 177.378906 40.320312 177.15625 40.019531 C 176.9375 39.71875 176.605469 39.570312 176.160156 39.570312 C 175.933594 39.570312 175.738281 39.609375 175.570312 39.683594 C 175.40625 39.761719 175.265625 39.875 175.152344 40.019531 C 175.042969 40.164062 174.957031 40.34375 174.902344 40.558594 C 174.847656 40.769531 174.820312 41.011719 174.820312 41.277344 C 174.820312 41.546875 174.847656 41.785156 174.902344 41.996094 C 174.957031 42.207031 175.042969 42.386719 175.152344 42.53125 C 175.265625 42.675781 175.40625 42.785156 175.570312 42.863281 C 175.738281 42.9375 175.933594 42.976562 176.160156 42.976562 Z M 180.078125 43.535156 L 179.285156 43.535156 L 179.285156 39.015625 L 179.742188 39.015625 C 179.828125 39.015625 179.886719 39.03125 179.917969 39.066406 C 179.953125 39.097656 179.972656 39.15625 179.988281 39.234375 L 180.039062 39.941406 C 180.195312 39.625 180.386719 39.378906 180.613281 39.203125 C 180.839844 39.023438 181.105469 38.933594 181.414062 38.933594 C 181.539062 38.933594 181.648438 38.949219 181.75 38.976562 C 181.851562 39.007812 181.945312 39.046875 182.03125 39.097656 L 181.929688 39.691406 C 181.90625 39.765625 181.863281 39.800781 181.789062 39.800781 C 181.75 39.800781 181.683594 39.789062 181.597656 39.761719 C 181.511719 39.730469 181.390625 39.71875 181.238281 39.71875 C 180.960938 39.71875 180.730469 39.796875 180.546875 39.957031 C 180.359375 40.117188 180.203125 40.351562 180.078125 40.65625 Z M 184.246094 43.609375 C 183.890625 43.609375 183.617188 43.507812 183.421875 43.308594 C 183.230469 43.109375 183.136719 42.824219 183.136719 42.449219 L 183.136719 39.679688 L 182.59375 39.679688 C 182.546875 39.679688 182.503906 39.667969 182.472656 39.640625 C 182.441406 39.609375 182.421875 39.566406 182.421875 39.507812 L 182.421875 39.191406 L 183.164062 39.097656 L 183.347656 37.699219 C 183.351562 37.65625 183.371094 37.617188 183.402344 37.589844 C 183.4375 37.5625 183.476562 37.546875 183.527344 37.546875 L 183.929688 37.546875 L 183.929688 39.105469 L 185.222656 39.105469 L 185.222656 39.679688 L 183.929688 39.679688 L 183.929688 42.394531 C 183.929688 42.585938 183.976562 42.726562 184.070312 42.816406 C 184.160156 42.910156 184.277344 42.957031 184.425781 42.957031 C 184.507812 42.957031 184.582031 42.945312 184.640625 42.921875 C 184.703125 42.898438 184.753906 42.875 184.800781 42.847656 C 184.84375 42.820312 184.878906 42.796875 184.910156 42.777344 C 184.945312 42.753906 184.972656 42.742188 184.996094 42.742188 C 185.035156 42.742188 185.074219 42.765625 185.105469 42.816406 L 185.335938 43.199219 C 185.199219 43.324219 185.035156 43.425781 184.84375 43.5 C 184.648438 43.570312 184.449219 43.609375 184.246094 43.609375 Z M 186.996094 43.535156 L 186.203125 43.535156 L 186.203125 36.964844 L 186.996094 36.964844 L 186.996094 39.621094 C 187.1875 39.417969 187.402344 39.253906 187.636719 39.128906 C 187.871094 39.007812 188.140625 38.945312 188.449219 38.945312 C 188.695312 38.945312 188.910156 38.984375 189.101562 39.066406 C 189.289062 39.148438 189.445312 39.265625 189.574219 39.414062 C 189.699219 39.566406 189.792969 39.746094 189.859375 39.957031 C 189.925781 40.167969 189.957031 40.402344 189.957031 40.65625 L 189.957031 43.535156 L 189.164062 43.535156 L 189.164062 40.65625 C 189.164062 40.316406 189.085938 40.050781 188.929688 39.863281 C 188.777344 39.671875 188.539062 39.578125 188.214844 39.578125 C 187.980469 39.578125 187.761719 39.632812 187.558594 39.746094 C 187.355469 39.859375 187.167969 40.015625 186.996094 40.207031 Z M 192.964844 39.015625 L 193.757812 39.015625 L 193.757812 43.535156 L 192.964844 43.535156 Z M 193.9375 37.597656 C 193.9375 37.675781 193.921875 37.746094 193.890625 37.816406 C 193.859375 37.882812 193.816406 37.941406 193.765625 37.992188 C 193.714844 38.042969 193.652344 38.085938 193.585938 38.113281 C 193.515625 38.144531 193.445312 38.160156 193.367188 38.160156 C 193.289062 38.160156 193.21875 38.144531 193.152344 38.113281 C 193.085938 38.085938 193.023438 38.042969 192.972656 37.992188 C 192.921875 37.941406 192.878906 37.882812 192.847656 37.816406 C 192.820312 37.746094 192.804688 37.675781 192.804688 37.597656 C 192.804688 37.519531 192.820312 37.445312 192.847656 37.378906 C 192.878906 37.308594 192.921875 37.246094 192.972656 37.195312 C 193.023438 37.140625 193.085938 37.101562 193.152344 37.070312 C 193.21875 37.039062 193.289062 37.027344 193.367188 37.027344 C 193.445312 37.027344 193.515625 37.039062 193.585938 37.070312 C 193.652344 37.101562 193.714844 37.140625 193.765625 37.195312 C 193.816406 37.246094 193.859375 37.308594 193.890625 37.378906 C 193.921875 37.445312 193.9375 37.519531 193.9375 37.597656 Z M 196.527344 43.609375 C 196.171875 43.609375 195.894531 43.507812 195.703125 43.308594 C 195.511719 43.109375 195.417969 42.824219 195.417969 42.449219 L 195.417969 39.679688 L 194.871094 39.679688 C 194.824219 39.679688 194.785156 39.667969 194.753906 39.640625 C 194.71875 39.609375 194.703125 39.566406 194.703125 39.507812 L 194.703125 39.191406 L 195.441406 39.097656 L 195.625 37.699219 C 195.632812 37.65625 195.652344 37.617188 195.683594 37.589844 C 195.71875 37.5625 195.757812 37.546875 195.808594 37.546875 L 196.210938 37.546875 L 196.210938 39.105469 L 197.503906 39.105469 L 197.503906 39.679688 L 196.210938 39.679688 L 196.210938 42.394531 C 196.210938 42.585938 196.257812 42.726562 196.347656 42.816406 C 196.441406 42.910156 196.558594 42.957031 196.707031 42.957031 C 196.789062 42.957031 196.859375 42.945312 196.921875 42.921875 C 196.980469 42.898438 197.035156 42.875 197.078125 42.847656 C 197.125 42.820312 197.160156 42.796875 197.191406 42.777344 C 197.222656 42.753906 197.25 42.742188 197.277344 42.742188 C 197.316406 42.742188 197.355469 42.765625 197.386719 42.816406 L 197.617188 43.199219 C 197.480469 43.324219 197.316406 43.425781 197.125 43.5 C 196.929688 43.570312 196.730469 43.609375 196.527344 43.609375 Z M 196.527344 43.609375 "/>
</g>
</g>
</svg>
