<?xml version="1.0" encoding="UTF-8"?>
<svg xmlns="http://www.w3.org/2000/svg" xmlns:xlink="http://www.w3.org/1999/xlink" width="200px" height="48px" viewBox="0 0 198 48" version="1.1">
<defs>
<clipPath id="clip1">
  <path d="M 0.171875 0.105469 L 197.585938 0.105469 L 197.585938 29.902344 L 0.171875 29.902344 Z M 0.171875 0.105469 "/>
</clipPath>
<clipPath id="clip2">
  <path d="M 0.171875 36.964844 L 197.585938 36.964844 L 197.585938 48 L 0.171875 48 Z M 0.171875 36.964844 "/>
</clipPath>
</defs>
<g id="surface1">
<g clip-path="url(#clip1)" clip-rule="nonzero">
<path style=" stroke:none;fill-rule:nonzero;fill:rgb(0%,0%,0%);fill-opacity:1;" d="M 11.441406 2.378906 L 8.144531 3.222656 L 15.785156 25.632812 L 15.949219 25.632812 L 23.230469 3.222656 L 19.890625 2.378906 L 19.890625 0.441406 L 29.707031 0.441406 L 29.707031 2.378906 L 26.40625 3.222656 L 17.4375 29.460938 L 13.089844 29.460938 L 3.394531 3.222656 L 0.175781 2.378906 L 0.175781 0.441406 L 11.441406 0.441406 Z M 60.242188 2.378906 L 56.863281 3.222656 L 56.863281 26.679688 L 60.242188 27.527344 L 60.242188 29.460938 L 49.058594 29.460938 L 49.058594 27.527344 L 52.4375 26.679688 L 52.4375 15.839844 L 39.203125 15.839844 L 39.203125 26.679688 L 42.582031 27.527344 L 42.582031 29.460938 L 31.394531 29.460938 L 31.394531 27.527344 L 34.777344 26.679688 L 34.777344 3.222656 L 31.394531 2.378906 L 31.394531 0.441406 L 42.582031 0.441406 L 42.582031 2.378906 L 39.203125 3.222656 L 39.203125 13.300781 L 52.4375 13.300781 L 52.4375 3.222656 L 49.058594 2.378906 L 49.058594 0.441406 L 60.242188 0.441406 Z M 74.964844 29.902344 C 73.410156 29.902344 72.023438 29.667969 70.796875 29.195312 C 69.582031 28.726562 68.542969 28.035156 67.683594 27.121094 L 67.242188 29.460938 L 64.585938 29.460938 L 64.585938 20.109375 L 67.445312 20.109375 C 67.605469 22.714844 68.253906 24.597656 69.390625 25.753906 C 70.53125 26.90625 72.175781 27.484375 74.324219 27.484375 C 76.121094 27.484375 77.488281 27.128906 78.425781 26.414062 C 79.367188 25.703125 79.835938 24.652344 79.835938 23.253906 C 79.835938 22.097656 79.546875 21.144531 78.964844 20.394531 C 78.390625 19.640625 77.558594 18.96875 76.472656 18.378906 C 75.386719 17.785156 74.09375 17.195312 72.59375 16.605469 C 70.929688 15.90625 69.507812 15.207031 68.328125 14.507812 C 67.148438 13.808594 66.25 12.964844 65.632812 11.96875 C 65.015625 10.976562 64.707031 9.699219 64.707031 8.140625 C 64.707031 5.5625 65.503906 3.558594 67.097656 2.136719 C 68.695312 0.710938 70.835938 0 73.519531 0 C 76.171875 0 78.332031 0.753906 79.996094 2.257812 L 80.316406 0.441406 L 82.972656 0.441406 L 82.972656 9.792969 L 80.277344 9.792969 C 80.277344 7.242188 79.800781 5.367188 78.84375 4.167969 C 77.894531 2.972656 76.402344 2.378906 74.363281 2.378906 C 70.902344 2.378906 69.171875 3.976562 69.171875 7.171875 C 69.171875 8.085938 69.347656 8.824219 69.695312 9.390625 C 70.046875 9.953125 70.640625 10.476562 71.484375 10.960938 C 72.332031 11.445312 73.53125 12.023438 75.085938 12.695312 C 77.3125 13.664062 79.101562 14.589844 80.453125 15.476562 C 81.8125 16.363281 82.789062 17.316406 83.390625 18.335938 C 83.996094 19.359375 84.300781 20.566406 84.300781 21.964844 C 84.300781 23.65625 83.898438 25.09375 83.09375 26.277344 C 82.289062 27.457031 81.1875 28.359375 79.792969 28.976562 C 78.398438 29.59375 76.789062 29.902344 74.964844 29.902344 Z M 87.511719 9.109375 L 87.511719 0.441406 L 111.890625 0.441406 L 111.890625 9.109375 L 109.636719 9.109375 L 108.351562 3.0625 L 101.914062 3.0625 L 101.914062 26.558594 L 106.179688 27.527344 L 106.179688 29.460938 L 93.222656 29.460938 L 93.222656 27.527344 L 97.488281 26.558594 L 97.488281 3.0625 L 91.011719 3.0625 L 89.761719 9.109375 Z M 141.902344 14.628906 C 141.902344 16.941406 141.554688 19.121094 140.855469 21.175781 C 140.160156 23.234375 139.167969 24.960938 137.878906 26.355469 C 136.753906 27.539062 135.40625 28.417969 133.839844 28.992188 C 132.269531 29.574219 130.4375 29.863281 128.34375 29.863281 C 126.253906 29.863281 124.414062 29.582031 122.832031 29.015625 C 121.25 28.453125 119.9375 27.605469 118.890625 26.476562 C 117.683594 25.214844 116.738281 23.609375 116.058594 21.65625 C 115.371094 19.710938 115.027344 17.585938 115.027344 15.273438 C 115.027344 12.9375 115.386719 10.738281 116.097656 8.679688 C 116.808594 6.628906 117.792969 4.917969 119.050781 3.546875 C 120.179688 2.335938 121.5 1.449219 123.019531 0.886719 C 124.53125 0.324219 126.347656 0.0390625 128.464844 0.0390625 C 130.53125 0.0390625 132.347656 0.3125 133.921875 0.863281 C 135.488281 1.414062 136.847656 2.269531 138 3.425781 C 139.289062 4.742188 140.261719 6.386719 140.921875 8.359375 C 141.574219 10.335938 141.902344 12.425781 141.902344 14.628906 Z M 120.058594 14.46875 C 120.058594 16.671875 120.246094 18.621094 120.621094 20.3125 C 120.996094 22.003906 121.53125 23.386719 122.230469 24.464844 C 122.902344 25.457031 123.753906 26.203125 124.789062 26.695312 C 125.820312 27.195312 127.085938 27.445312 128.585938 27.445312 C 131.324219 27.445312 133.347656 26.558594 134.660156 24.785156 C 135.386719 23.816406 135.933594 22.527344 136.3125 20.917969 C 136.6875 19.304688 136.875 17.398438 136.875 15.195312 C 136.875 12.992188 136.679688 11.0625 136.292969 9.40625 C 135.902344 7.757812 135.359375 6.421875 134.660156 5.402344 C 133.964844 4.378906 133.085938 3.628906 132.03125 3.144531 C 130.96875 2.660156 129.726562 2.417969 128.304688 2.417969 C 126.9375 2.417969 125.757812 2.644531 124.765625 3.101562 C 123.773438 3.558594 122.941406 4.21875 122.269531 5.078125 C 120.796875 7.039062 120.058594 10.167969 120.058594 14.46875 Z M 165.597656 14.066406 C 165.117188 14.441406 164.558594 14.777344 163.925781 15.074219 C 163.296875 15.367188 162.515625 15.609375 161.574219 15.796875 C 161.765625 16.011719 162.003906 16.300781 162.300781 16.660156 C 162.59375 17.027344 162.875 17.4375 163.144531 17.894531 L 168.375 26.761719 L 171.957031 27.527344 L 171.957031 29.460938 L 163.265625 29.460938 L 163.265625 27.527344 L 157.632812 16.5625 L 153.085938 16.5625 L 153.085938 26.679688 L 156.910156 27.527344 L 156.910156 29.460938 L 145.28125 29.460938 L 145.28125 27.527344 L 148.660156 26.679688 L 148.660156 3.222656 L 145.28125 2.378906 L 145.28125 0.441406 L 159.523438 0.441406 C 160.8125 0.441406 161.9375 0.5625 162.902344 0.804688 C 163.871094 1.046875 164.742188 1.4375 165.519531 1.976562 C 166.484375 2.621094 167.25 3.507812 167.8125 4.632812 C 168.375 5.761719 168.65625 6.890625 168.65625 8.019531 C 168.65625 9.148438 168.378906 10.253906 167.828125 11.339844 C 167.28125 12.433594 166.539062 13.339844 165.597656 14.066406 Z M 153.085938 2.980469 L 153.085938 14.023438 L 158.4375 14.023438 C 159.914062 14.023438 161.132812 13.609375 162.097656 12.777344 C 162.636719 12.292969 163.054688 11.648438 163.363281 10.839844 C 163.671875 10.035156 163.828125 9.175781 163.828125 8.261719 C 163.828125 7.375 163.667969 6.5625 163.347656 5.820312 C 163.023438 5.082031 162.59375 4.488281 162.058594 4.03125 C 161.601562 3.652344 161.070312 3.386719 160.464844 3.222656 C 159.863281 3.0625 159.136719 2.980469 158.277344 2.980469 Z M 191.308594 9.230469 L 191.308594 19.867188 L 188.851562 19.867188 L 188.128906 15.878906 L 181.851562 15.878906 L 181.851562 26.839844 L 193.640625 26.839844 L 194.847656 20.472656 L 197.582031 20.472656 L 197.582031 29.460938 L 173.644531 29.460938 L 173.644531 27.527344 L 177.425781 26.679688 L 177.425781 3.222656 L 173.644531 2.378906 L 173.644531 0.441406 L 196.699219 0.441406 L 196.699219 8.988281 L 194.203125 8.988281 L 192.957031 2.980469 L 181.851562 2.980469 L 181.851562 13.257812 L 188.128906 13.257812 L 188.851562 9.230469 Z M 191.308594 9.230469 "/>
</g>
<g clip-path="url(#clip2)" clip-rule="nonzero">
<path style=" stroke:none;fill-rule:nonzero;fill:rgb(0%,0%,0%);fill-opacity:1;" d="M 1.859375 37.210938 L 1.859375 46.140625 L 0.195312 46.140625 L 0.195312 37.210938 Z M 5.570312 46.140625 L 4.046875 46.140625 L 4.046875 40.953125 L 3.5 40.867188 C 3.378906 40.84375 3.285156 40.804688 3.210938 40.742188 C 3.140625 40.679688 3.105469 40.59375 3.105469 40.484375 L 3.105469 39.859375 L 4.046875 39.859375 L 4.046875 39.390625 C 4.046875 39.027344 4.101562 38.703125 4.210938 38.414062 C 4.320312 38.128906 4.476562 37.882812 4.679688 37.679688 C 4.882812 37.476562 5.132812 37.324219 5.421875 37.214844 C 5.714844 37.109375 6.042969 37.058594 6.410156 37.058594 C 6.699219 37.058594 6.972656 37.097656 7.222656 37.171875 L 7.191406 37.9375 C 7.183594 38.058594 7.128906 38.132812 7.023438 38.160156 C 6.921875 38.191406 6.804688 38.203125 6.667969 38.203125 C 6.488281 38.203125 6.324219 38.222656 6.183594 38.261719 C 6.042969 38.300781 5.921875 38.371094 5.824219 38.46875 C 5.726562 38.5625 5.652344 38.691406 5.597656 38.851562 C 5.546875 39.007812 5.519531 39.203125 5.519531 39.4375 L 5.519531 39.859375 L 7.167969 39.859375 L 7.167969 40.945312 L 5.570312 40.945312 Z M 12.429688 37.210938 L 12.429688 46.140625 L 10.765625 46.140625 L 10.765625 37.210938 Z M 16.425781 46.238281 C 15.878906 46.238281 15.460938 46.085938 15.164062 45.773438 C 14.867188 45.460938 14.71875 45.03125 14.71875 44.484375 L 14.71875 40.945312 L 14.078125 40.945312 C 13.996094 40.945312 13.925781 40.917969 13.863281 40.867188 C 13.804688 40.8125 13.773438 40.730469 13.773438 40.625 L 13.773438 40.019531 L 14.792969 39.855469 L 15.113281 38.125 C 15.128906 38.042969 15.167969 37.976562 15.226562 37.933594 C 15.285156 37.886719 15.363281 37.863281 15.453125 37.863281 L 16.242188 37.863281 L 16.242188 39.859375 L 17.90625 39.859375 L 17.90625 40.945312 L 16.242188 40.945312 L 16.242188 44.378906 C 16.242188 44.578125 16.289062 44.730469 16.390625 44.84375 C 16.488281 44.953125 16.621094 45.007812 16.785156 45.007812 C 16.878906 45.007812 16.957031 45 17.019531 44.976562 C 17.085938 44.953125 17.140625 44.929688 17.1875 44.90625 C 17.234375 44.882812 17.277344 44.855469 17.3125 44.835938 C 17.351562 44.8125 17.390625 44.800781 17.425781 44.800781 C 17.472656 44.800781 17.507812 44.8125 17.535156 44.835938 C 17.566406 44.855469 17.597656 44.890625 17.628906 44.9375 L 18.085938 45.675781 C 17.863281 45.863281 17.609375 46.003906 17.320312 46.097656 C 17.035156 46.191406 16.734375 46.238281 16.425781 46.238281 Z M 25.921875 37.210938 L 29.421875 46.140625 L 28.140625 46.140625 C 27.996094 46.140625 27.878906 46.105469 27.785156 46.03125 C 27.691406 45.960938 27.625 45.871094 27.585938 45.761719 L 26.917969 43.941406 L 23.226562 43.941406 L 22.558594 45.761719 C 22.527344 45.859375 22.460938 45.945312 22.363281 46.023438 C 22.269531 46.101562 22.152344 46.140625 22.011719 46.140625 L 20.722656 46.140625 L 24.222656 37.210938 Z M 24.738281 39.808594 L 23.652344 42.769531 L 26.492188 42.769531 L 25.40625 39.796875 C 25.359375 39.664062 25.304688 39.511719 25.246094 39.332031 C 25.1875 39.152344 25.128906 38.957031 25.070312 38.746094 C 25.011719 38.957031 24.957031 39.152344 24.898438 39.335938 C 24.84375 39.515625 24.789062 39.675781 24.738281 39.808594 Z M 30.351562 39.804688 L 31.875 39.804688 L 31.875 46.140625 L 30.351562 46.140625 Z M 32.105469 37.957031 C 32.105469 38.089844 32.078125 38.210938 32.023438 38.328125 C 31.96875 38.441406 31.898438 38.542969 31.808594 38.632812 C 31.722656 38.714844 31.617188 38.785156 31.5 38.839844 C 31.378906 38.890625 31.25 38.914062 31.117188 38.914062 C 30.984375 38.914062 30.863281 38.890625 30.746094 38.839844 C 30.625 38.785156 30.523438 38.714844 30.4375 38.632812 C 30.351562 38.542969 30.28125 38.441406 30.230469 38.328125 C 30.179688 38.210938 30.15625 38.089844 30.15625 37.957031 C 30.15625 37.820312 30.179688 37.695312 30.230469 37.574219 C 30.28125 37.453125 30.351562 37.351562 30.4375 37.265625 C 30.523438 37.179688 30.625 37.109375 30.746094 37.058594 C 30.863281 37.007812 30.984375 36.980469 31.117188 36.980469 C 31.25 36.980469 31.378906 37.007812 31.5 37.058594 C 31.617188 37.109375 31.722656 37.179688 31.808594 37.265625 C 31.898438 37.351562 31.96875 37.453125 32.023438 37.574219 C 32.078125 37.695312 32.105469 37.820312 32.105469 37.957031 Z M 35.117188 46.140625 L 33.59375 46.140625 L 33.59375 39.804688 L 34.523438 39.804688 C 34.722656 39.804688 34.851562 39.898438 34.914062 40.082031 L 35.019531 40.582031 C 35.148438 40.449219 35.28125 40.332031 35.421875 40.222656 C 35.5625 40.117188 35.714844 40.023438 35.871094 39.945312 C 36.03125 39.867188 36.203125 39.808594 36.382812 39.765625 C 36.5625 39.726562 36.761719 39.707031 36.972656 39.707031 C 37.320312 39.707031 37.625 39.765625 37.890625 39.882812 C 38.160156 39.996094 38.382812 40.164062 38.558594 40.375 C 38.738281 40.585938 38.875 40.839844 38.96875 41.136719 C 39.0625 41.429688 39.109375 41.753906 39.109375 42.109375 L 39.109375 46.140625 L 37.582031 46.140625 L 37.582031 42.109375 C 37.582031 41.722656 37.492188 41.421875 37.316406 41.210938 C 37.136719 40.996094 36.867188 40.890625 36.511719 40.890625 C 36.246094 40.890625 36 40.949219 35.769531 41.070312 C 35.539062 41.191406 35.324219 41.351562 35.117188 41.558594 Z M 40.128906 37.210938 L 41.457031 37.210938 L 41.457031 38.988281 L 41.3125 39.953125 C 41.285156 40.132812 41.234375 40.273438 41.15625 40.371094 C 41.078125 40.464844 40.953125 40.511719 40.78125 40.511719 C 40.632812 40.511719 40.515625 40.464844 40.433594 40.371094 C 40.34375 40.273438 40.289062 40.132812 40.265625 39.953125 L 40.128906 38.988281 Z M 45.148438 46.238281 C 44.601562 46.238281 44.179688 46.085938 43.882812 45.773438 C 43.589844 45.460938 43.441406 45.03125 43.441406 44.484375 L 43.441406 40.945312 L 42.800781 40.945312 C 42.71875 40.945312 42.644531 40.917969 42.585938 40.867188 C 42.527344 40.8125 42.496094 40.730469 42.496094 40.625 L 42.496094 40.019531 L 43.515625 39.855469 L 43.835938 38.125 C 43.851562 38.042969 43.890625 37.976562 43.949219 37.933594 C 44.007812 37.886719 44.082031 37.863281 44.171875 37.863281 L 44.960938 37.863281 L 44.960938 39.859375 L 46.625 39.859375 L 46.625 40.945312 L 44.960938 40.945312 L 44.960938 44.378906 C 44.960938 44.578125 45.011719 44.730469 45.109375 44.84375 C 45.207031 44.953125 45.339844 45.007812 45.503906 45.007812 C 45.601562 45.007812 45.679688 45 45.742188 44.976562 C 45.804688 44.953125 45.863281 44.929688 45.910156 44.90625 C 45.957031 44.882812 46 44.855469 46.035156 44.835938 C 46.074219 44.8125 46.109375 44.800781 46.144531 44.800781 C 46.191406 44.800781 46.230469 44.8125 46.257812 44.835938 C 46.285156 44.855469 46.316406 44.890625 46.351562 44.9375 L 46.808594 45.675781 C 46.585938 45.863281 46.328125 46.003906 46.042969 46.097656 C 45.753906 46.191406 45.457031 46.238281 45.148438 46.238281 Z M 50.304688 37.210938 L 55.929688 37.210938 L 55.929688 38.53125 L 51.976562 38.53125 L 51.976562 41.007812 L 55.089844 41.007812 L 55.089844 42.289062 L 51.976562 42.289062 L 51.976562 44.8125 L 55.929688 44.8125 L 55.929688 46.140625 L 50.304688 46.140625 Z M 56.613281 46.140625 L 58.777344 42.871094 L 56.699219 39.804688 L 58.164062 39.804688 C 58.277344 39.804688 58.359375 39.820312 58.414062 39.851562 C 58.46875 39.882812 58.515625 39.929688 58.554688 40.003906 L 59.878906 42.121094 C 59.902344 42.050781 59.925781 41.980469 59.957031 41.910156 C 59.988281 41.839844 60.027344 41.769531 60.074219 41.699219 L 61.136719 40.03125 C 61.1875 39.953125 61.238281 39.898438 61.292969 39.859375 C 61.347656 39.824219 61.410156 39.804688 61.492188 39.804688 L 62.890625 39.804688 L 60.804688 42.804688 L 62.976562 46.140625 L 61.507812 46.140625 C 61.398438 46.140625 61.308594 46.113281 61.242188 46.054688 C 61.171875 45.996094 61.117188 45.929688 61.070312 45.855469 L 59.726562 43.652344 C 59.6875 43.800781 59.636719 43.921875 59.570312 44.023438 L 58.386719 45.855469 C 58.34375 45.925781 58.289062 45.992188 58.222656 46.050781 C 58.15625 46.113281 58.074219 46.140625 57.976562 46.140625 Z M 65.460938 48.210938 L 63.9375 48.210938 L 63.9375 39.804688 L 64.867188 39.804688 C 64.96875 39.804688 65.050781 39.828125 65.121094 39.871094 C 65.191406 39.917969 65.238281 39.988281 65.257812 40.082031 L 65.378906 40.667969 C 65.632812 40.375 65.925781 40.140625 66.257812 39.957031 C 66.589844 39.777344 66.976562 39.6875 67.421875 39.6875 C 67.765625 39.6875 68.082031 39.757812 68.367188 39.902344 C 68.652344 40.046875 68.898438 40.253906 69.105469 40.53125 C 69.316406 40.804688 69.476562 41.140625 69.585938 41.542969 C 69.699219 41.945312 69.757812 42.402344 69.757812 42.921875 C 69.757812 43.398438 69.695312 43.835938 69.566406 44.238281 C 69.4375 44.640625 69.257812 44.992188 69.019531 45.289062 C 68.785156 45.585938 68.5 45.816406 68.164062 45.984375 C 67.828125 46.152344 67.453125 46.234375 67.039062 46.234375 C 66.679688 46.234375 66.378906 46.179688 66.128906 46.070312 C 65.882812 45.960938 65.660156 45.808594 65.460938 45.613281 Z M 66.894531 40.890625 C 66.582031 40.890625 66.308594 40.957031 66.085938 41.089844 C 65.859375 41.226562 65.652344 41.414062 65.460938 41.65625 L 65.460938 44.5 C 65.632812 44.710938 65.820312 44.863281 66.023438 44.945312 C 66.226562 45.03125 66.445312 45.070312 66.683594 45.070312 C 66.910156 45.070312 67.121094 45.027344 67.304688 44.941406 C 67.492188 44.855469 67.652344 44.722656 67.78125 44.546875 C 67.910156 44.371094 68.011719 44.148438 68.078125 43.878906 C 68.152344 43.609375 68.1875 43.289062 68.1875 42.921875 C 68.1875 42.550781 68.15625 42.238281 68.09375 41.980469 C 68.035156 41.722656 67.949219 41.515625 67.839844 41.351562 C 67.730469 41.195312 67.59375 41.078125 67.4375 41.003906 C 67.277344 40.929688 67.097656 40.890625 66.894531 40.890625 Z M 73.523438 39.707031 C 73.921875 39.707031 74.289062 39.769531 74.625 39.894531 C 74.957031 40.023438 75.246094 40.210938 75.492188 40.457031 C 75.734375 40.699219 75.921875 41 76.058594 41.359375 C 76.191406 41.714844 76.261719 42.121094 76.261719 42.578125 C 76.261719 42.691406 76.253906 42.789062 76.246094 42.867188 C 76.234375 42.941406 76.21875 43 76.191406 43.042969 C 76.164062 43.085938 76.128906 43.117188 76.082031 43.136719 C 76.035156 43.15625 75.980469 43.164062 75.910156 43.164062 L 72 43.164062 C 72.046875 43.816406 72.21875 44.292969 72.523438 44.597656 C 72.828125 44.902344 73.230469 45.054688 73.734375 45.054688 C 73.980469 45.054688 74.191406 45.027344 74.371094 44.96875 C 74.550781 44.910156 74.707031 44.847656 74.839844 44.773438 C 74.972656 44.707031 75.089844 44.640625 75.191406 44.585938 C 75.292969 44.527344 75.390625 44.5 75.484375 44.5 C 75.546875 44.5 75.597656 44.511719 75.644531 44.535156 C 75.691406 44.558594 75.730469 44.59375 75.761719 44.640625 L 76.207031 45.195312 C 76.035156 45.394531 75.847656 45.558594 75.640625 45.695312 C 75.429688 45.828125 75.210938 45.933594 74.984375 46.015625 C 74.753906 46.09375 74.523438 46.152344 74.285156 46.1875 C 74.046875 46.21875 73.820312 46.234375 73.597656 46.234375 C 73.15625 46.234375 72.75 46.160156 72.371094 46.015625 C 71.992188 45.867188 71.664062 45.652344 71.382812 45.367188 C 71.105469 45.078125 70.886719 44.726562 70.722656 44.304688 C 70.5625 43.882812 70.484375 43.390625 70.484375 42.835938 C 70.484375 42.402344 70.554688 42 70.695312 41.617188 C 70.832031 41.234375 71.035156 40.902344 71.296875 40.621094 C 71.554688 40.339844 71.875 40.117188 72.25 39.953125 C 72.625 39.789062 73.050781 39.707031 73.523438 39.707031 Z M 73.554688 40.796875 C 73.109375 40.796875 72.761719 40.921875 72.511719 41.175781 C 72.261719 41.425781 72.101562 41.785156 72.03125 42.242188 L 74.890625 42.242188 C 74.890625 42.046875 74.867188 41.859375 74.8125 41.683594 C 74.757812 41.511719 74.675781 41.355469 74.566406 41.226562 C 74.453125 41.09375 74.316406 40.988281 74.148438 40.914062 C 73.976562 40.835938 73.78125 40.796875 73.554688 40.796875 Z M 79.023438 46.140625 L 77.5 46.140625 L 77.5 39.804688 L 78.429688 39.804688 C 78.628906 39.804688 78.757812 39.898438 78.820312 40.082031 L 78.921875 40.582031 C 79.050781 40.449219 79.1875 40.332031 79.328125 40.222656 C 79.46875 40.117188 79.621094 40.023438 79.777344 39.945312 C 79.9375 39.867188 80.105469 39.808594 80.289062 39.765625 C 80.46875 39.726562 80.664062 39.707031 80.878906 39.707031 C 81.226562 39.707031 81.53125 39.765625 81.796875 39.882812 C 82.066406 39.996094 82.289062 40.164062 82.464844 40.375 C 82.644531 40.585938 82.78125 40.839844 82.871094 41.136719 C 82.964844 41.429688 83.011719 41.753906 83.011719 42.109375 L 83.011719 46.140625 L 81.488281 46.140625 L 81.488281 42.109375 C 81.488281 41.722656 81.398438 41.421875 81.21875 41.210938 C 81.042969 40.996094 80.773438 40.890625 80.414062 40.890625 C 80.152344 40.890625 79.90625 40.949219 79.675781 41.070312 C 79.445312 41.191406 79.226562 41.351562 79.023438 41.558594 Z M 88.609375 40.488281 L 88.261719 41.039062 C 88.222656 41.105469 88.179688 41.152344 88.136719 41.179688 C 88.089844 41.203125 88.03125 41.21875 87.960938 41.21875 C 87.886719 41.21875 87.808594 41.195312 87.726562 41.15625 C 87.640625 41.113281 87.542969 41.070312 87.433594 41.015625 C 87.320312 40.964844 87.195312 40.921875 87.050781 40.878906 C 86.910156 40.839844 86.742188 40.816406 86.550781 40.816406 C 86.25 40.816406 86.015625 40.878906 85.839844 41.007812 C 85.667969 41.136719 85.582031 41.304688 85.582031 41.507812 C 85.582031 41.644531 85.625 41.757812 85.714844 41.851562 C 85.800781 41.945312 85.917969 42.027344 86.066406 42.09375 C 86.210938 42.164062 86.378906 42.230469 86.5625 42.285156 C 86.746094 42.339844 86.9375 42.398438 87.128906 42.464844 C 87.324219 42.53125 87.511719 42.605469 87.695312 42.691406 C 87.882812 42.777344 88.046875 42.882812 88.195312 43.011719 C 88.339844 43.140625 88.457031 43.296875 88.542969 43.476562 C 88.632812 43.660156 88.675781 43.878906 88.675781 44.132812 C 88.675781 44.4375 88.621094 44.71875 88.507812 44.976562 C 88.398438 45.234375 88.238281 45.457031 88.023438 45.644531 C 87.808594 45.832031 87.546875 45.976562 87.230469 46.082031 C 86.917969 46.1875 86.554688 46.238281 86.148438 46.238281 C 85.929688 46.238281 85.71875 46.21875 85.511719 46.179688 C 85.304688 46.140625 85.105469 46.085938 84.914062 46.019531 C 84.722656 45.945312 84.546875 45.863281 84.382812 45.769531 C 84.222656 45.675781 84.078125 45.570312 83.953125 45.460938 L 84.304688 44.882812 C 84.351562 44.808594 84.40625 44.757812 84.464844 44.722656 C 84.527344 44.683594 84.605469 44.664062 84.699219 44.664062 C 84.792969 44.664062 84.882812 44.691406 84.96875 44.746094 C 85.050781 44.796875 85.148438 44.855469 85.261719 44.917969 C 85.371094 44.980469 85.503906 45.035156 85.652344 45.089844 C 85.804688 45.144531 85.992188 45.171875 86.222656 45.171875 C 86.40625 45.171875 86.558594 45.148438 86.691406 45.105469 C 86.816406 45.0625 86.925781 45.007812 87.011719 44.9375 C 87.09375 44.867188 87.15625 44.785156 87.195312 44.695312 C 87.234375 44.601562 87.253906 44.503906 87.253906 44.40625 C 87.253906 44.257812 87.207031 44.136719 87.121094 44.042969 C 87.03125 43.945312 86.914062 43.863281 86.769531 43.792969 C 86.621094 43.722656 86.457031 43.660156 86.269531 43.605469 C 86.082031 43.550781 85.890625 43.488281 85.695312 43.421875 C 85.5 43.359375 85.308594 43.28125 85.125 43.191406 C 84.9375 43.101562 84.769531 42.992188 84.625 42.855469 C 84.476562 42.71875 84.359375 42.550781 84.273438 42.355469 C 84.183594 42.15625 84.140625 41.917969 84.140625 41.636719 C 84.140625 41.378906 84.191406 41.132812 84.292969 40.894531 C 84.394531 40.664062 84.546875 40.457031 84.746094 40.285156 C 84.945312 40.109375 85.195312 39.96875 85.492188 39.863281 C 85.792969 39.757812 86.136719 39.707031 86.523438 39.707031 C 86.960938 39.707031 87.355469 39.777344 87.714844 39.921875 C 88.074219 40.066406 88.371094 40.253906 88.609375 40.488281 Z M 89.996094 39.804688 L 91.519531 39.804688 L 91.519531 46.140625 L 89.996094 46.140625 Z M 91.746094 37.957031 C 91.746094 38.089844 91.722656 38.210938 91.667969 38.328125 C 91.613281 38.441406 91.542969 38.542969 91.453125 38.632812 C 91.367188 38.714844 91.261719 38.785156 91.144531 38.839844 C 91.023438 38.890625 90.894531 38.914062 90.761719 38.914062 C 90.628906 38.914062 90.503906 38.890625 90.386719 38.839844 C 90.269531 38.785156 90.167969 38.714844 90.082031 38.632812 C 89.996094 38.542969 89.925781 38.441406 89.875 38.328125 C 89.824219 38.210938 89.800781 38.089844 89.800781 37.957031 C 89.800781 37.820312 89.824219 37.695312 89.875 37.574219 C 89.925781 37.453125 89.996094 37.351562 90.082031 37.265625 C 90.167969 37.179688 90.269531 37.109375 90.386719 37.058594 C 90.503906 37.007812 90.628906 36.980469 90.761719 36.980469 C 90.894531 36.980469 91.023438 37.007812 91.144531 37.058594 C 91.261719 37.109375 91.367188 37.179688 91.453125 37.265625 C 91.542969 37.351562 91.613281 37.453125 91.667969 37.574219 C 91.722656 37.695312 91.746094 37.820312 91.746094 37.957031 Z M 98.917969 39.804688 L 96.40625 46.140625 L 95.023438 46.140625 L 92.511719 39.804688 L 93.773438 39.804688 C 93.886719 39.804688 93.980469 39.832031 94.054688 39.882812 C 94.132812 39.9375 94.183594 40.007812 94.210938 40.089844 L 95.433594 43.472656 C 95.503906 43.671875 95.5625 43.863281 95.609375 44.054688 C 95.65625 44.242188 95.699219 44.433594 95.734375 44.621094 C 95.773438 44.433594 95.8125 44.242188 95.863281 44.054688 C 95.910156 43.863281 95.96875 43.671875 96.042969 43.472656 L 97.292969 40.089844 C 97.324219 40.007812 97.375 39.9375 97.449219 39.882812 C 97.523438 39.832031 97.613281 39.804688 97.714844 39.804688 Z M 102.226562 39.707031 C 102.625 39.707031 102.992188 39.769531 103.328125 39.894531 C 103.660156 40.023438 103.953125 40.210938 104.195312 40.457031 C 104.4375 40.699219 104.625 41 104.761719 41.359375 C 104.898438 41.714844 104.964844 42.121094 104.964844 42.578125 C 104.964844 42.691406 104.960938 42.789062 104.949219 42.867188 C 104.9375 42.941406 104.921875 43 104.890625 43.042969 C 104.867188 43.085938 104.832031 43.117188 104.785156 43.136719 C 104.742188 43.15625 104.683594 43.164062 104.613281 43.164062 L 100.703125 43.164062 C 100.75 43.816406 100.921875 44.292969 101.226562 44.597656 C 101.53125 44.902344 101.933594 45.054688 102.4375 45.054688 C 102.683594 45.054688 102.894531 45.027344 103.074219 44.96875 C 103.253906 44.910156 103.410156 44.847656 103.542969 44.773438 C 103.675781 44.707031 103.792969 44.640625 103.894531 44.585938 C 103.996094 44.527344 104.09375 44.5 104.1875 44.5 C 104.25 44.5 104.304688 44.511719 104.347656 44.535156 C 104.394531 44.558594 104.433594 44.59375 104.464844 44.640625 L 104.910156 45.195312 C 104.742188 45.394531 104.550781 45.558594 104.34375 45.695312 C 104.132812 45.828125 103.914062 45.933594 103.683594 46.015625 C 103.457031 46.09375 103.226562 46.152344 102.988281 46.1875 C 102.75 46.21875 102.523438 46.234375 102.300781 46.234375 C 101.863281 46.234375 101.453125 46.160156 101.074219 46.015625 C 100.695312 45.867188 100.367188 45.652344 100.089844 45.367188 C 99.808594 45.078125 99.589844 44.726562 99.425781 44.304688 C 99.269531 43.882812 99.1875 43.390625 99.1875 42.835938 C 99.1875 42.402344 99.257812 42 99.398438 41.617188 C 99.539062 41.234375 99.738281 40.902344 99.996094 40.621094 C 100.257812 40.339844 100.578125 40.117188 100.953125 39.953125 C 101.332031 39.789062 101.753906 39.707031 102.226562 39.707031 Z M 102.257812 40.796875 C 101.816406 40.796875 101.46875 40.921875 101.214844 41.175781 C 100.964844 41.425781 100.804688 41.785156 100.734375 42.242188 L 103.59375 42.242188 C 103.59375 42.046875 103.570312 41.859375 103.515625 41.683594 C 103.460938 41.511719 103.378906 41.355469 103.269531 41.226562 C 103.15625 41.09375 103.019531 40.988281 102.851562 40.914062 C 102.679688 40.835938 102.484375 40.796875 102.257812 40.796875 Z M 105.882812 45.203125 C 105.882812 45.085938 105.902344 44.980469 105.949219 44.878906 C 105.992188 44.777344 106.050781 44.6875 106.128906 44.613281 C 106.207031 44.535156 106.300781 44.476562 106.410156 44.433594 C 106.523438 44.390625 106.644531 44.367188 106.777344 44.367188 C 106.933594 44.367188 107.070312 44.394531 107.183594 44.453125 C 107.296875 44.507812 107.394531 44.585938 107.472656 44.679688 C 107.550781 44.777344 107.609375 44.886719 107.644531 45.015625 C 107.683594 45.140625 107.703125 45.273438 107.703125 45.414062 C 107.703125 45.609375 107.671875 45.816406 107.613281 46.035156 C 107.550781 46.253906 107.464844 46.472656 107.347656 46.691406 C 107.234375 46.910156 107.09375 47.121094 106.925781 47.328125 C 106.753906 47.53125 106.5625 47.722656 106.34375 47.894531 L 106.078125 47.65625 C 106.003906 47.59375 105.96875 47.515625 105.96875 47.425781 C 105.96875 47.394531 105.980469 47.355469 106.003906 47.316406 C 106.023438 47.273438 106.054688 47.238281 106.085938 47.203125 C 106.128906 47.152344 106.1875 47.09375 106.25 47.019531 C 106.316406 46.949219 106.382812 46.867188 106.449219 46.773438 C 106.515625 46.679688 106.574219 46.582031 106.632812 46.472656 C 106.6875 46.363281 106.726562 46.246094 106.753906 46.121094 C 106.625 46.121094 106.507812 46.097656 106.398438 46.050781 C 106.292969 46.003906 106.203125 45.941406 106.125 45.855469 C 106.050781 45.773438 105.992188 45.675781 105.949219 45.566406 C 105.902344 45.457031 105.882812 45.335938 105.882812 45.203125 Z M 113.308594 37.210938 L 113.308594 46.140625 L 111.644531 46.140625 L 111.644531 37.210938 Z M 117.304688 46.238281 C 116.757812 46.238281 116.339844 46.085938 116.042969 45.773438 C 115.746094 45.460938 115.597656 45.03125 115.597656 44.484375 L 115.597656 40.945312 L 114.957031 40.945312 C 114.875 40.945312 114.804688 40.917969 114.742188 40.867188 C 114.683594 40.8125 114.652344 40.730469 114.652344 40.625 L 114.652344 40.019531 L 115.671875 39.855469 L 115.992188 38.125 C 116.007812 38.042969 116.046875 37.976562 116.105469 37.933594 C 116.164062 37.886719 116.238281 37.863281 116.332031 37.863281 L 117.121094 37.863281 L 117.121094 39.859375 L 118.785156 39.859375 L 118.785156 40.945312 L 117.121094 40.945312 L 117.121094 44.378906 C 117.121094 44.578125 117.167969 44.730469 117.269531 44.84375 C 117.367188 44.953125 117.496094 45.007812 117.664062 45.007812 C 117.757812 45.007812 117.835938 45 117.898438 44.976562 C 117.964844 44.953125 118.019531 44.929688 118.066406 44.90625 C 118.113281 44.882812 118.15625 44.855469 118.191406 44.835938 C 118.230469 44.8125 118.265625 44.800781 118.304688 44.800781 C 118.347656 44.800781 118.386719 44.8125 118.414062 44.835938 C 118.445312 44.855469 118.476562 44.890625 118.507812 44.9375 L 118.964844 45.675781 C 118.742188 45.863281 118.488281 46.003906 118.199219 46.097656 C 117.914062 46.191406 117.613281 46.238281 117.304688 46.238281 Z M 126.800781 37.210938 L 130.300781 46.140625 L 129.019531 46.140625 C 128.875 46.140625 128.757812 46.105469 128.664062 46.03125 C 128.570312 45.960938 128.503906 45.871094 128.464844 45.761719 L 127.796875 43.941406 L 124.105469 43.941406 L 123.4375 45.761719 C 123.40625 45.859375 123.339844 45.945312 123.242188 46.023438 C 123.148438 46.101562 123.03125 46.140625 122.890625 46.140625 L 121.601562 46.140625 L 125.101562 37.210938 Z M 125.617188 39.808594 L 124.53125 42.769531 L 127.371094 42.769531 L 126.285156 39.796875 C 126.238281 39.664062 126.183594 39.511719 126.125 39.332031 C 126.066406 39.152344 126.007812 38.957031 125.949219 38.746094 C 125.890625 38.957031 125.835938 39.152344 125.777344 39.335938 C 125.722656 39.515625 125.667969 39.675781 125.617188 39.808594 Z M 131.230469 39.804688 L 132.753906 39.804688 L 132.753906 46.140625 L 131.230469 46.140625 Z M 132.980469 37.957031 C 132.980469 38.089844 132.953125 38.210938 132.902344 38.328125 C 132.847656 38.441406 132.777344 38.542969 132.6875 38.632812 C 132.601562 38.714844 132.496094 38.785156 132.378906 38.839844 C 132.257812 38.890625 132.128906 38.914062 131.996094 38.914062 C 131.863281 38.914062 131.738281 38.890625 131.625 38.839844 C 131.503906 38.785156 131.402344 38.714844 131.316406 38.632812 C 131.230469 38.542969 131.160156 38.441406 131.109375 38.328125 C 131.058594 38.210938 131.035156 38.089844 131.035156 37.957031 C 131.035156 37.820312 131.058594 37.695312 131.109375 37.574219 C 131.160156 37.453125 131.230469 37.351562 131.316406 37.265625 C 131.402344 37.179688 131.503906 37.109375 131.625 37.058594 C 131.738281 37.007812 131.863281 36.980469 131.996094 36.980469 C 132.128906 36.980469 132.257812 37.007812 132.378906 37.058594 C 132.496094 37.109375 132.601562 37.179688 132.6875 37.265625 C 132.777344 37.351562 132.847656 37.453125 132.902344 37.574219 C 132.953125 37.695312 132.980469 37.820312 132.980469 37.957031 Z M 135.996094 46.140625 L 134.472656 46.140625 L 134.472656 39.804688 L 135.402344 39.804688 C 135.601562 39.804688 135.730469 39.898438 135.792969 40.082031 L 135.898438 40.582031 C 136.023438 40.449219 136.160156 40.332031 136.300781 40.222656 C 136.441406 40.117188 136.59375 40.023438 136.75 39.945312 C 136.910156 39.867188 137.078125 39.808594 137.257812 39.765625 C 137.441406 39.726562 137.636719 39.707031 137.851562 39.707031 C 138.195312 39.707031 138.503906 39.765625 138.769531 39.882812 C 139.035156 39.996094 139.257812 40.164062 139.4375 40.375 C 139.617188 40.585938 139.753906 40.839844 139.84375 41.136719 C 139.9375 41.429688 139.984375 41.753906 139.984375 42.109375 L 139.984375 46.140625 L 138.460938 46.140625 L 138.460938 42.109375 C 138.460938 41.722656 138.371094 41.421875 138.191406 41.210938 C 138.015625 40.996094 137.746094 40.890625 137.390625 40.890625 C 137.125 40.890625 136.878906 40.949219 136.648438 41.070312 C 136.417969 41.191406 136.203125 41.351562 135.996094 41.558594 Z M 141.007812 37.210938 L 142.332031 37.210938 L 142.332031 38.988281 L 142.191406 39.953125 C 142.164062 40.132812 142.109375 40.273438 142.03125 40.371094 C 141.957031 40.464844 141.832031 40.511719 141.660156 40.511719 C 141.511719 40.511719 141.394531 40.464844 141.308594 40.371094 C 141.222656 40.273438 141.167969 40.132812 141.144531 39.953125 L 141.007812 38.988281 Z M 146.027344 46.238281 C 145.476562 46.238281 145.054688 46.085938 144.761719 45.773438 C 144.464844 45.460938 144.316406 45.03125 144.316406 44.484375 L 144.316406 40.945312 L 143.675781 40.945312 C 143.59375 40.945312 143.523438 40.917969 143.464844 40.867188 C 143.402344 40.8125 143.375 40.730469 143.375 40.625 L 143.375 40.019531 L 144.390625 39.855469 L 144.710938 38.125 C 144.726562 38.042969 144.765625 37.976562 144.828125 37.933594 C 144.886719 37.886719 144.960938 37.863281 145.050781 37.863281 L 145.839844 37.863281 L 145.839844 39.859375 L 147.503906 39.859375 L 147.503906 40.945312 L 145.839844 40.945312 L 145.839844 44.378906 C 145.839844 44.578125 145.890625 44.730469 145.988281 44.84375 C 146.085938 44.953125 146.21875 45.007812 146.382812 45.007812 C 146.476562 45.007812 146.554688 45 146.621094 44.976562 C 146.683594 44.953125 146.738281 44.929688 146.789062 44.90625 C 146.832031 44.882812 146.875 44.855469 146.914062 44.835938 C 146.949219 44.8125 146.988281 44.800781 147.023438 44.800781 C 147.070312 44.800781 147.105469 44.8125 147.136719 44.835938 C 147.164062 44.855469 147.195312 44.890625 147.226562 44.9375 L 147.683594 45.675781 C 147.460938 45.863281 147.207031 46.003906 146.917969 46.097656 C 146.628906 46.191406 146.332031 46.238281 146.027344 46.238281 Z M 153.125 46.140625 L 150.359375 37.210938 L 151.753906 37.210938 C 151.894531 37.210938 152.015625 37.246094 152.113281 37.3125 C 152.210938 37.378906 152.273438 37.46875 152.308594 37.585938 L 153.824219 42.929688 C 153.859375 43.0625 153.894531 43.203125 153.925781 43.359375 C 153.957031 43.511719 153.984375 43.675781 154.015625 43.847656 C 154.046875 43.675781 154.082031 43.511719 154.121094 43.359375 C 154.160156 43.203125 154.203125 43.0625 154.246094 42.929688 L 156 37.585938 C 156.03125 37.492188 156.097656 37.40625 156.195312 37.328125 C 156.289062 37.25 156.410156 37.210938 156.550781 37.210938 L 157.035156 37.210938 C 157.179688 37.210938 157.296875 37.246094 157.390625 37.3125 C 157.488281 37.378906 157.554688 37.46875 157.589844 37.585938 L 159.328125 42.929688 C 159.417969 43.191406 159.496094 43.484375 159.5625 43.804688 C 159.59375 43.644531 159.621094 43.492188 159.652344 43.34375 C 159.683594 43.195312 159.714844 43.054688 159.746094 42.929688 L 161.265625 37.585938 C 161.292969 37.484375 161.359375 37.394531 161.457031 37.320312 C 161.554688 37.246094 161.675781 37.210938 161.8125 37.210938 L 163.113281 37.210938 L 160.347656 46.140625 L 158.847656 46.140625 L 156.898438 40.039062 C 156.875 39.960938 156.847656 39.875 156.824219 39.785156 C 156.796875 39.695312 156.769531 39.597656 156.746094 39.496094 C 156.722656 39.597656 156.695312 39.695312 156.667969 39.785156 C 156.640625 39.875 156.617188 39.960938 156.589844 40.039062 L 154.625 46.140625 Z M 166.449219 39.707031 C 166.921875 39.707031 167.351562 39.78125 167.734375 39.933594 C 168.121094 40.085938 168.449219 40.300781 168.71875 40.582031 C 168.992188 40.863281 169.199219 41.203125 169.347656 41.609375 C 169.496094 42.011719 169.570312 42.460938 169.570312 42.960938 C 169.570312 43.460938 169.496094 43.914062 169.347656 44.316406 C 169.199219 44.722656 168.992188 45.066406 168.71875 45.351562 C 168.449219 45.632812 168.121094 45.851562 167.734375 46.003906 C 167.351562 46.160156 166.921875 46.234375 166.449219 46.234375 C 165.976562 46.234375 165.546875 46.160156 165.160156 46.003906 C 164.773438 45.851562 164.445312 45.632812 164.171875 45.351562 C 163.898438 45.066406 163.6875 44.722656 163.535156 44.316406 C 163.386719 43.914062 163.3125 43.460938 163.3125 42.960938 C 163.3125 42.460938 163.386719 42.011719 163.535156 41.609375 C 163.6875 41.203125 163.898438 40.863281 164.171875 40.582031 C 164.445312 40.300781 164.773438 40.085938 165.160156 39.933594 C 165.546875 39.78125 165.976562 39.707031 166.449219 39.707031 Z M 166.449219 45.058594 C 166.976562 45.058594 167.367188 44.882812 167.617188 44.527344 C 167.871094 44.175781 167.996094 43.65625 167.996094 42.972656 C 167.996094 42.289062 167.871094 41.769531 167.617188 41.410156 C 167.367188 41.050781 166.976562 40.871094 166.449219 40.871094 C 165.917969 40.871094 165.523438 41.050781 165.265625 41.414062 C 165.011719 41.773438 164.882812 42.292969 164.882812 42.972656 C 164.882812 43.652344 165.011719 44.167969 165.265625 44.527344 C 165.523438 44.882812 165.917969 45.058594 166.449219 45.058594 Z M 172.28125 46.140625 L 170.757812 46.140625 L 170.757812 39.804688 L 171.652344 39.804688 C 171.808594 39.804688 171.917969 39.832031 171.980469 39.890625 C 172.039062 39.949219 172.082031 40.046875 172.101562 40.1875 L 172.195312 40.953125 C 172.421875 40.5625 172.6875 40.253906 172.992188 40.027344 C 173.296875 39.800781 173.636719 39.6875 174.015625 39.6875 C 174.328125 39.6875 174.585938 39.757812 174.792969 39.902344 L 174.59375 41.042969 C 174.582031 41.117188 174.554688 41.171875 174.511719 41.203125 C 174.472656 41.234375 174.417969 41.25 174.347656 41.25 C 174.285156 41.25 174.199219 41.234375 174.09375 41.207031 C 173.988281 41.175781 173.84375 41.164062 173.667969 41.164062 C 173.351562 41.164062 173.082031 41.25 172.855469 41.425781 C 172.628906 41.601562 172.4375 41.855469 172.28125 42.195312 Z M 177.875 46.238281 C 177.328125 46.238281 176.90625 46.085938 176.609375 45.773438 C 176.3125 45.460938 176.164062 45.03125 176.164062 44.484375 L 176.164062 40.945312 L 175.523438 40.945312 C 175.441406 40.945312 175.371094 40.917969 175.3125 40.867188 C 175.253906 40.8125 175.222656 40.730469 175.222656 40.625 L 175.222656 40.019531 L 176.238281 39.855469 L 176.558594 38.125 C 176.574219 38.042969 176.613281 37.976562 176.671875 37.933594 C 176.734375 37.886719 176.808594 37.863281 176.898438 37.863281 L 177.6875 37.863281 L 177.6875 39.859375 L 179.355469 39.859375 L 179.355469 40.945312 L 177.6875 40.945312 L 177.6875 44.378906 C 177.6875 44.578125 177.738281 44.730469 177.835938 44.84375 C 177.933594 44.953125 178.066406 45.007812 178.230469 45.007812 C 178.324219 45.007812 178.402344 45 178.46875 44.976562 C 178.53125 44.953125 178.585938 44.929688 178.632812 44.90625 C 178.679688 44.882812 178.722656 44.855469 178.761719 44.835938 C 178.796875 44.8125 178.835938 44.800781 178.871094 44.800781 C 178.917969 44.800781 178.953125 44.8125 178.984375 44.835938 C 179.011719 44.855469 179.042969 44.890625 179.074219 44.9375 L 179.53125 45.675781 C 179.308594 45.863281 179.054688 46.003906 178.765625 46.097656 C 178.480469 46.191406 178.179688 46.238281 177.875 46.238281 Z M 182.089844 46.140625 L 180.566406 46.140625 L 180.566406 36.964844 L 182.089844 36.964844 L 182.089844 40.488281 C 182.335938 40.253906 182.605469 40.066406 182.902344 39.921875 C 183.199219 39.777344 183.546875 39.707031 183.945312 39.707031 C 184.289062 39.707031 184.597656 39.765625 184.863281 39.882812 C 185.132812 39.996094 185.355469 40.164062 185.535156 40.375 C 185.710938 40.585938 185.847656 40.839844 185.941406 41.136719 C 186.03125 41.429688 186.078125 41.753906 186.078125 42.109375 L 186.078125 46.140625 L 184.554688 46.140625 L 184.554688 42.109375 C 184.554688 41.722656 184.464844 41.421875 184.289062 41.210938 C 184.109375 40.996094 183.839844 40.890625 183.480469 40.890625 C 183.21875 40.890625 182.972656 40.949219 182.742188 41.070312 C 182.511719 41.191406 182.292969 41.351562 182.089844 41.558594 Z M 191.910156 37.210938 L 191.910156 46.140625 L 190.246094 46.140625 L 190.246094 37.210938 Z M 195.902344 46.238281 C 195.359375 46.238281 194.9375 46.085938 194.640625 45.773438 C 194.34375 45.460938 194.199219 45.03125 194.199219 44.484375 L 194.199219 40.945312 L 193.554688 40.945312 C 193.472656 40.945312 193.402344 40.917969 193.339844 40.867188 C 193.28125 40.8125 193.253906 40.730469 193.253906 40.625 L 193.253906 40.019531 L 194.269531 39.855469 L 194.59375 38.125 C 194.609375 38.042969 194.644531 37.976562 194.707031 37.933594 C 194.765625 37.886719 194.839844 37.863281 194.929688 37.863281 L 195.71875 37.863281 L 195.71875 39.859375 L 197.382812 39.859375 L 197.382812 40.945312 L 195.71875 40.945312 L 195.71875 44.378906 C 195.71875 44.578125 195.769531 44.730469 195.867188 44.84375 C 195.964844 44.953125 196.097656 45.007812 196.261719 45.007812 C 196.355469 45.007812 196.4375 45 196.5 44.976562 C 196.5625 44.953125 196.617188 44.929688 196.667969 44.90625 C 196.714844 44.882812 196.753906 44.855469 196.792969 44.835938 C 196.828125 44.8125 196.867188 44.800781 196.902344 44.800781 C 196.949219 44.800781 196.984375 44.8125 197.015625 44.835938 C 197.042969 44.855469 197.074219 44.890625 197.109375 44.9375 L 197.5625 45.675781 C 197.34375 45.863281 197.085938 46.003906 196.800781 46.097656 C 196.511719 46.191406 196.214844 46.238281 195.902344 46.238281 Z M 195.902344 46.238281 "/>
</g>
</g>
</svg>
