<?xml version="1.0" encoding="UTF-8"?>
<svg xmlns="http://www.w3.org/2000/svg" xmlns:xlink="http://www.w3.org/1999/xlink" width="160px" height="58px" viewBox="0 0 160 58" version="1.1">
<defs>
<clipPath id="clip1">
  <path d="M 0.0234375 18.328125 L 93.597656 18.328125 L 93.597656 32.535156 L 0.0234375 32.535156 Z M 0.0234375 18.328125 "/>
</clipPath>
<clipPath id="clip2">
  <path d="M 31.371094 35.890625 L 93.597656 35.890625 L 93.597656 39.742188 L 31.371094 39.742188 Z M 31.371094 35.890625 "/>
</clipPath>
<clipPath id="clip3">
  <path d="M 117.234375 15.785156 L 144.496094 15.785156 L 144.496094 42.28125 L 117.234375 42.28125 Z M 117.234375 15.785156 "/>
</clipPath>
<clipPath id="clip4">
  <path d="M 128 0.0351562 L 134 0.0351562 L 134 7 L 128 7 Z M 128 0.0351562 "/>
</clipPath>
<clipPath id="clip5">
  <path d="M 151 16 L 159.78125 16 L 159.78125 24 L 151 24 Z M 151 16 "/>
</clipPath>
<clipPath id="clip6">
  <path d="M 154 27 L 159.78125 27 L 159.78125 33 L 154 33 Z M 154 27 "/>
</clipPath>
</defs>
<g id="surface1">
<g clip-path="url(#clip1)" clip-rule="nonzero">
<path style=" stroke:none;fill-rule:nonzero;fill:rgb(0%,0%,0%);fill-opacity:1;" d="M 5.367188 19.457031 L 3.800781 19.859375 L 7.425781 30.507812 L 7.5 30.507812 L 10.953125 19.859375 L 9.371094 19.457031 L 9.371094 18.539062 L 14.023438 18.539062 L 14.023438 19.457031 L 12.460938 19.859375 L 8.207031 32.328125 L 6.148438 32.328125 L 1.550781 19.859375 L 0.0273438 19.457031 L 0.0273438 18.539062 L 5.367188 18.539062 Z M 28.496094 19.457031 L 26.894531 19.859375 L 26.894531 31.003906 L 28.496094 31.40625 L 28.496094 32.328125 L 23.195312 32.328125 L 23.195312 31.40625 L 24.796875 31.003906 L 24.796875 25.855469 L 18.523438 25.855469 L 18.523438 31.003906 L 20.125 31.40625 L 20.125 32.328125 L 14.824219 32.328125 L 14.824219 31.40625 L 16.425781 31.003906 L 16.425781 19.859375 L 14.824219 19.457031 L 14.824219 18.539062 L 20.125 18.539062 L 20.125 19.457031 L 18.523438 19.859375 L 18.523438 24.648438 L 24.796875 24.648438 L 24.796875 19.859375 L 23.195312 19.457031 L 23.195312 18.539062 L 28.496094 18.539062 Z M 35.476562 32.535156 C 34.738281 32.535156 34.082031 32.425781 33.5 32.199219 C 32.925781 31.976562 32.433594 31.648438 32.027344 31.214844 L 31.816406 32.328125 L 30.558594 32.328125 L 30.558594 27.882812 L 31.910156 27.882812 C 31.988281 29.121094 32.296875 30.015625 32.835938 30.566406 C 33.375 31.113281 34.15625 31.386719 35.171875 31.386719 C 36.023438 31.386719 36.671875 31.21875 37.117188 30.878906 C 37.5625 30.542969 37.785156 30.042969 37.785156 29.378906 C 37.785156 28.828125 37.648438 28.375 37.371094 28.019531 C 37.101562 27.660156 36.707031 27.339844 36.191406 27.058594 C 35.675781 26.78125 35.0625 26.5 34.351562 26.21875 C 33.5625 25.886719 32.890625 25.554688 32.332031 25.222656 C 31.769531 24.890625 31.34375 24.488281 31.054688 24.015625 C 30.761719 23.542969 30.613281 22.9375 30.613281 22.195312 C 30.613281 20.972656 30.992188 20.019531 31.746094 19.34375 C 32.503906 18.667969 33.519531 18.328125 34.789062 18.328125 C 36.050781 18.328125 37.074219 18.6875 37.859375 19.402344 L 38.015625 18.539062 L 39.273438 18.539062 L 39.273438 22.980469 L 37.996094 22.980469 C 37.996094 21.769531 37.769531 20.878906 37.316406 20.308594 C 36.867188 19.742188 36.15625 19.457031 35.191406 19.457031 C 33.550781 19.457031 32.730469 20.21875 32.730469 21.738281 C 32.730469 22.171875 32.8125 22.523438 32.980469 22.789062 C 33.144531 23.058594 33.425781 23.308594 33.824219 23.535156 C 34.226562 23.765625 34.796875 24.042969 35.535156 24.359375 C 36.589844 24.820312 37.4375 25.261719 38.078125 25.679688 C 38.722656 26.101562 39.1875 26.554688 39.46875 27.042969 C 39.757812 27.527344 39.902344 28.101562 39.902344 28.765625 C 39.902344 29.570312 39.710938 30.25 39.328125 30.8125 C 38.949219 31.375 38.425781 31.804688 37.765625 32.097656 C 37.105469 32.390625 36.34375 32.535156 35.476562 32.535156 Z M 41.421875 22.65625 L 41.421875 18.539062 L 52.980469 18.539062 L 52.980469 22.65625 L 51.910156 22.65625 L 51.300781 19.785156 L 48.25 19.785156 L 48.25 30.949219 L 50.273438 31.40625 L 50.273438 32.328125 L 44.132812 32.328125 L 44.132812 31.40625 L 46.152344 30.949219 L 46.152344 19.785156 L 43.082031 19.785156 L 42.492188 22.65625 Z M 67.207031 25.28125 C 67.207031 26.378906 67.039062 27.414062 66.710938 28.390625 C 66.378906 29.367188 65.910156 30.1875 65.300781 30.851562 C 64.765625 31.414062 64.125 31.832031 63.382812 32.105469 C 62.640625 32.378906 61.769531 32.519531 60.78125 32.519531 C 59.789062 32.519531 58.917969 32.382812 58.167969 32.117188 C 57.417969 31.847656 56.792969 31.445312 56.296875 30.910156 C 55.726562 30.308594 55.277344 29.546875 54.957031 28.617188 C 54.628906 27.695312 54.46875 26.683594 54.46875 25.585938 C 54.46875 24.476562 54.636719 23.429688 54.972656 22.453125 C 55.308594 21.476562 55.777344 20.664062 56.375 20.011719 C 56.90625 19.4375 57.535156 19.019531 58.253906 18.75 C 58.972656 18.480469 59.832031 18.347656 60.835938 18.347656 C 61.816406 18.347656 62.675781 18.476562 63.421875 18.738281 C 64.164062 19 64.808594 19.40625 65.355469 19.957031 C 65.964844 20.582031 66.429688 21.363281 66.742188 22.300781 C 67.050781 23.238281 67.207031 24.234375 67.207031 25.28125 Z M 56.851562 25.203125 C 56.851562 26.25 56.941406 27.175781 57.117188 27.980469 C 57.296875 28.785156 57.550781 29.441406 57.878906 29.953125 C 58.199219 30.425781 58.601562 30.777344 59.09375 31.011719 C 59.582031 31.25 60.183594 31.367188 60.894531 31.367188 C 62.191406 31.367188 63.148438 30.949219 63.773438 30.105469 C 64.117188 29.644531 64.378906 29.03125 64.554688 28.265625 C 64.734375 27.5 64.820312 26.59375 64.820312 25.546875 C 64.820312 24.5 64.730469 23.585938 64.546875 22.796875 C 64.363281 22.015625 64.105469 21.378906 63.773438 20.894531 C 63.441406 20.410156 63.027344 20.050781 62.527344 19.820312 C 62.023438 19.59375 61.433594 19.476562 60.761719 19.476562 C 60.113281 19.476562 59.550781 19.585938 59.082031 19.800781 C 58.613281 20.019531 58.21875 20.332031 57.898438 20.742188 C 57.199219 21.671875 56.851562 23.160156 56.851562 25.203125 Z M 78.4375 25.011719 C 78.210938 25.191406 77.945312 25.347656 77.644531 25.488281 C 77.347656 25.628906 76.976562 25.746094 76.53125 25.835938 C 76.621094 25.9375 76.734375 26.074219 76.875 26.246094 C 77.015625 26.417969 77.148438 26.613281 77.273438 26.832031 L 79.753906 31.042969 L 81.449219 31.40625 L 81.449219 32.328125 L 77.332031 32.328125 L 77.332031 31.40625 L 74.664062 26.199219 L 72.507812 26.199219 L 72.507812 31.003906 L 74.320312 31.40625 L 74.320312 32.328125 L 68.808594 32.328125 L 68.808594 31.40625 L 70.410156 31.003906 L 70.410156 19.859375 L 68.808594 19.457031 L 68.808594 18.539062 L 75.558594 18.539062 C 76.167969 18.539062 76.703125 18.597656 77.160156 18.710938 C 77.617188 18.824219 78.03125 19.011719 78.398438 19.265625 C 78.859375 19.574219 79.21875 19.996094 79.488281 20.53125 C 79.753906 21.066406 79.886719 21.601562 79.886719 22.140625 C 79.886719 22.675781 79.757812 23.199219 79.496094 23.714844 C 79.234375 24.234375 78.882812 24.667969 78.4375 25.011719 Z M 72.507812 19.746094 L 72.507812 24.992188 L 75.042969 24.992188 C 75.742188 24.992188 76.320312 24.792969 76.777344 24.398438 C 77.03125 24.167969 77.234375 23.863281 77.378906 23.480469 C 77.523438 23.097656 77.597656 22.6875 77.597656 22.253906 C 77.597656 21.832031 77.523438 21.445312 77.371094 21.09375 C 77.21875 20.742188 77.015625 20.460938 76.761719 20.242188 C 76.542969 20.0625 76.292969 19.9375 76.003906 19.859375 C 75.71875 19.785156 75.375 19.746094 74.96875 19.746094 Z M 90.625 22.714844 L 90.625 27.769531 L 89.460938 27.769531 L 89.117188 25.871094 L 86.140625 25.871094 L 86.140625 31.082031 L 91.730469 31.082031 L 92.300781 28.054688 L 93.597656 28.054688 L 93.597656 32.328125 L 82.253906 32.328125 L 82.253906 31.40625 L 84.042969 31.003906 L 84.042969 19.859375 L 82.253906 19.457031 L 82.253906 18.539062 L 93.179688 18.539062 L 93.179688 22.597656 L 91.996094 22.597656 L 91.40625 19.746094 L 86.140625 19.746094 L 86.140625 24.628906 L 89.117188 24.628906 L 89.460938 22.714844 Z M 90.625 22.714844 "/>
</g>
<g clip-path="url(#clip2)" clip-rule="nonzero">
<path style=" stroke:none;fill-rule:nonzero;fill:rgb(0%,0%,0%);fill-opacity:1;" d="M 31.792969 35.976562 L 31.792969 39.015625 L 31.382812 39.015625 L 31.382812 35.976562 Z M 33.007812 39.015625 L 32.628906 39.015625 L 32.628906 37.1875 L 32.394531 37.160156 C 32.363281 37.152344 32.339844 37.144531 32.320312 37.128906 C 32.300781 37.113281 32.292969 37.09375 32.292969 37.0625 L 32.292969 36.910156 L 32.628906 36.910156 L 32.628906 36.699219 C 32.628906 36.578125 32.644531 36.46875 32.679688 36.375 C 32.714844 36.277344 32.765625 36.199219 32.828125 36.132812 C 32.894531 36.066406 32.96875 36.015625 33.058594 35.984375 C 33.148438 35.949219 33.25 35.933594 33.363281 35.933594 C 33.460938 35.933594 33.546875 35.945312 33.628906 35.972656 L 33.621094 36.164062 C 33.621094 36.191406 33.609375 36.207031 33.585938 36.214844 C 33.5625 36.21875 33.53125 36.222656 33.492188 36.222656 L 33.425781 36.222656 C 33.359375 36.222656 33.300781 36.230469 33.25 36.246094 C 33.195312 36.265625 33.152344 36.292969 33.113281 36.332031 C 33.074219 36.367188 33.046875 36.417969 33.023438 36.480469 C 33.003906 36.542969 32.992188 36.621094 32.992188 36.710938 L 32.992188 36.910156 L 33.613281 36.910156 L 33.613281 37.183594 L 33.007812 37.183594 Z M 34.824219 36.867188 L 35.199219 36.867188 L 35.199219 39.015625 L 34.824219 39.015625 Z M 35.285156 36.191406 C 35.285156 36.230469 35.277344 36.261719 35.261719 36.296875 C 35.246094 36.328125 35.226562 36.355469 35.203125 36.378906 C 35.179688 36.40625 35.148438 36.425781 35.117188 36.4375 C 35.085938 36.453125 35.050781 36.460938 35.015625 36.460938 C 34.976562 36.460938 34.945312 36.453125 34.910156 36.4375 C 34.878906 36.425781 34.851562 36.40625 34.828125 36.378906 C 34.800781 36.355469 34.785156 36.328125 34.769531 36.296875 C 34.753906 36.261719 34.75 36.230469 34.75 36.191406 C 34.75 36.15625 34.753906 36.121094 34.769531 36.089844 C 34.785156 36.054688 34.800781 36.027344 34.828125 36 C 34.851562 35.976562 34.878906 35.957031 34.910156 35.941406 C 34.945312 35.929688 34.976562 35.921875 35.015625 35.921875 C 35.050781 35.921875 35.085938 35.929688 35.117188 35.941406 C 35.148438 35.957031 35.179688 35.976562 35.203125 36 C 35.226562 36.027344 35.246094 36.054688 35.261719 36.089844 C 35.277344 36.121094 35.285156 36.15625 35.285156 36.191406 Z M 36.511719 39.046875 C 36.34375 39.046875 36.210938 39 36.121094 38.90625 C 36.03125 38.8125 35.984375 38.675781 35.984375 38.496094 L 35.984375 37.183594 L 35.726562 37.183594 C 35.707031 37.183594 35.6875 37.175781 35.671875 37.164062 C 35.65625 37.148438 35.648438 37.128906 35.648438 37.097656 L 35.648438 36.949219 L 35.996094 36.90625 L 36.085938 36.242188 C 36.085938 36.21875 36.097656 36.203125 36.113281 36.191406 C 36.128906 36.175781 36.148438 36.167969 36.171875 36.167969 L 36.359375 36.167969 L 36.359375 36.910156 L 36.972656 36.910156 L 36.972656 37.183594 L 36.359375 37.183594 L 36.359375 38.472656 C 36.359375 38.5625 36.382812 38.628906 36.425781 38.671875 C 36.46875 38.714844 36.527344 38.738281 36.597656 38.738281 C 36.636719 38.738281 36.667969 38.734375 36.699219 38.722656 C 36.726562 38.710938 36.75 38.699219 36.773438 38.6875 C 36.792969 38.675781 36.8125 38.664062 36.828125 38.652344 C 36.839844 38.640625 36.855469 38.636719 36.867188 38.636719 C 36.886719 38.636719 36.902344 38.648438 36.917969 38.671875 L 37.027344 38.851562 C 36.964844 38.914062 36.886719 38.960938 36.792969 38.996094 C 36.703125 39.03125 36.609375 39.046875 36.511719 39.046875 Z M 39.824219 37.640625 L 39.824219 39.015625 L 39.65625 39.015625 C 39.621094 39.015625 39.589844 39.007812 39.566406 38.996094 C 39.546875 38.984375 39.53125 38.960938 39.523438 38.925781 L 39.480469 38.726562 C 39.425781 38.777344 39.371094 38.824219 39.316406 38.863281 C 39.261719 38.902344 39.207031 38.9375 39.148438 38.964844 C 39.089844 38.992188 39.027344 39.011719 38.957031 39.027344 C 38.890625 39.042969 38.816406 39.046875 38.734375 39.046875 C 38.652344 39.046875 38.574219 39.035156 38.503906 39.011719 C 38.429688 38.988281 38.367188 38.953125 38.3125 38.910156 C 38.261719 38.863281 38.21875 38.800781 38.1875 38.730469 C 38.15625 38.660156 38.140625 38.574219 38.140625 38.476562 C 38.140625 38.394531 38.160156 38.3125 38.207031 38.234375 C 38.253906 38.15625 38.328125 38.085938 38.433594 38.023438 C 38.535156 37.964844 38.671875 37.914062 38.839844 37.875 C 39.007812 37.835938 39.210938 37.8125 39.453125 37.808594 L 39.453125 37.640625 C 39.453125 37.472656 39.417969 37.347656 39.347656 37.261719 C 39.277344 37.175781 39.171875 37.132812 39.03125 37.132812 C 38.941406 37.132812 38.863281 37.144531 38.800781 37.167969 C 38.738281 37.191406 38.683594 37.21875 38.636719 37.246094 C 38.59375 37.277344 38.554688 37.300781 38.519531 37.324219 C 38.488281 37.347656 38.453125 37.359375 38.421875 37.359375 C 38.394531 37.359375 38.375 37.355469 38.355469 37.339844 C 38.335938 37.328125 38.320312 37.308594 38.308594 37.289062 L 38.242188 37.171875 C 38.359375 37.054688 38.488281 36.96875 38.625 36.914062 C 38.761719 36.855469 38.910156 36.828125 39.078125 36.828125 C 39.199219 36.828125 39.304688 36.847656 39.398438 36.886719 C 39.488281 36.925781 39.566406 36.980469 39.632812 37.054688 C 39.695312 37.125 39.742188 37.210938 39.773438 37.308594 C 39.808594 37.410156 39.824219 37.519531 39.824219 37.640625 Z M 38.847656 38.78125 C 38.914062 38.78125 38.972656 38.777344 39.03125 38.761719 C 39.085938 38.75 39.136719 38.730469 39.183594 38.707031 C 39.234375 38.679688 39.28125 38.652344 39.324219 38.617188 C 39.367188 38.582031 39.410156 38.539062 39.453125 38.496094 L 39.453125 38.046875 C 39.28125 38.054688 39.132812 38.066406 39.011719 38.089844 C 38.890625 38.109375 38.792969 38.140625 38.71875 38.175781 C 38.640625 38.210938 38.585938 38.25 38.550781 38.300781 C 38.515625 38.347656 38.5 38.402344 38.5 38.460938 C 38.5 38.515625 38.507812 38.566406 38.527344 38.605469 C 38.546875 38.648438 38.570312 38.683594 38.601562 38.707031 C 38.632812 38.734375 38.667969 38.753906 38.710938 38.765625 C 38.753906 38.777344 38.796875 38.78125 38.847656 38.78125 Z M 40.433594 36.867188 L 40.8125 36.867188 L 40.8125 39.015625 L 40.433594 39.015625 Z M 40.894531 36.191406 C 40.894531 36.230469 40.886719 36.261719 40.875 36.296875 C 40.859375 36.328125 40.839844 36.355469 40.8125 36.378906 C 40.789062 36.40625 40.761719 36.425781 40.730469 36.4375 C 40.695312 36.453125 40.660156 36.460938 40.625 36.460938 C 40.589844 36.460938 40.554688 36.453125 40.523438 36.4375 C 40.492188 36.425781 40.464844 36.40625 40.4375 36.378906 C 40.414062 36.355469 40.394531 36.328125 40.378906 36.296875 C 40.367188 36.261719 40.359375 36.230469 40.359375 36.191406 C 40.359375 36.15625 40.367188 36.121094 40.378906 36.089844 C 40.394531 36.054688 40.414062 36.027344 40.4375 36 C 40.464844 35.976562 40.492188 35.957031 40.523438 35.941406 C 40.554688 35.929688 40.589844 35.921875 40.625 35.921875 C 40.660156 35.921875 40.695312 35.929688 40.730469 35.941406 C 40.761719 35.957031 40.789062 35.976562 40.8125 36 C 40.839844 36.027344 40.859375 36.054688 40.875 36.089844 C 40.886719 36.121094 40.894531 36.15625 40.894531 36.191406 Z M 41.847656 39.015625 L 41.472656 39.015625 L 41.472656 36.867188 L 41.699219 36.867188 C 41.75 36.867188 41.785156 36.894531 41.796875 36.945312 L 41.828125 37.179688 C 41.921875 37.074219 42.023438 36.992188 42.140625 36.929688 C 42.253906 36.863281 42.386719 36.832031 42.539062 36.832031 C 42.65625 36.832031 42.757812 36.851562 42.847656 36.890625 C 42.9375 36.929688 43.011719 36.984375 43.070312 37.054688 C 43.128906 37.128906 43.175781 37.214844 43.207031 37.3125 C 43.238281 37.414062 43.253906 37.523438 43.253906 37.648438 L 43.253906 39.015625 L 42.878906 39.015625 L 42.878906 37.648438 C 42.878906 37.484375 42.839844 37.359375 42.765625 37.269531 C 42.691406 37.179688 42.578125 37.132812 42.429688 37.132812 C 42.316406 37.132812 42.214844 37.160156 42.117188 37.214844 C 42.019531 37.269531 41.929688 37.339844 41.847656 37.433594 Z M 43.683594 35.976562 L 44.007812 35.976562 L 44.007812 36.589844 L 43.976562 36.917969 C 43.972656 36.964844 43.960938 37 43.941406 37.023438 C 43.917969 37.050781 43.886719 37.0625 43.84375 37.0625 C 43.808594 37.0625 43.777344 37.050781 43.757812 37.023438 C 43.738281 37 43.722656 36.964844 43.714844 36.917969 L 43.683594 36.589844 Z M 45.289062 39.046875 C 45.121094 39.046875 44.988281 39 44.898438 38.90625 C 44.808594 38.8125 44.761719 38.675781 44.761719 38.496094 L 44.761719 37.183594 L 44.503906 37.183594 C 44.484375 37.183594 44.464844 37.175781 44.449219 37.164062 C 44.433594 37.148438 44.425781 37.128906 44.425781 37.097656 L 44.425781 36.949219 L 44.777344 36.90625 L 44.863281 36.242188 C 44.863281 36.21875 44.875 36.203125 44.890625 36.191406 C 44.90625 36.175781 44.925781 36.167969 44.949219 36.167969 L 45.140625 36.167969 L 45.140625 36.910156 L 45.75 36.910156 L 45.75 37.183594 L 45.140625 37.183594 L 45.140625 38.472656 C 45.140625 38.5625 45.160156 38.628906 45.203125 38.671875 C 45.246094 38.714844 45.304688 38.738281 45.371094 38.738281 C 45.414062 38.738281 45.445312 38.734375 45.476562 38.722656 C 45.503906 38.710938 45.527344 38.699219 45.550781 38.6875 C 45.570312 38.675781 45.589844 38.664062 45.605469 38.652344 C 45.617188 38.640625 45.632812 38.636719 45.644531 38.636719 C 45.664062 38.636719 45.679688 38.648438 45.695312 38.671875 L 45.804688 38.851562 C 45.742188 38.914062 45.664062 38.960938 45.570312 38.996094 C 45.480469 39.03125 45.386719 39.046875 45.289062 39.046875 Z M 47.875 36.832031 C 48.003906 36.832031 48.121094 36.855469 48.230469 36.898438 C 48.339844 36.941406 48.433594 37.003906 48.511719 37.085938 C 48.589844 37.164062 48.652344 37.265625 48.695312 37.386719 C 48.742188 37.503906 48.761719 37.640625 48.761719 37.792969 C 48.761719 37.851562 48.757812 37.890625 48.742188 37.910156 C 48.730469 37.933594 48.707031 37.941406 48.671875 37.941406 L 47.25 37.941406 C 47.253906 38.078125 47.269531 38.195312 47.304688 38.296875 C 47.335938 38.394531 47.382812 38.480469 47.445312 38.546875 C 47.503906 38.613281 47.574219 38.664062 47.65625 38.695312 C 47.734375 38.730469 47.828125 38.746094 47.929688 38.746094 C 48.023438 38.746094 48.105469 38.734375 48.171875 38.714844 C 48.242188 38.691406 48.300781 38.667969 48.347656 38.644531 C 48.398438 38.617188 48.441406 38.59375 48.472656 38.574219 C 48.507812 38.550781 48.535156 38.539062 48.558594 38.539062 C 48.589844 38.539062 48.613281 38.550781 48.628906 38.574219 L 48.734375 38.714844 C 48.6875 38.769531 48.632812 38.820312 48.570312 38.859375 C 48.503906 38.902344 48.433594 38.9375 48.359375 38.964844 C 48.285156 38.988281 48.210938 39.011719 48.132812 39.023438 C 48.054688 39.039062 47.976562 39.042969 47.898438 39.042969 C 47.75 39.042969 47.613281 39.019531 47.488281 38.96875 C 47.363281 38.917969 47.257812 38.84375 47.164062 38.75 C 47.074219 38.652344 47.003906 38.53125 46.953125 38.386719 C 46.902344 38.246094 46.878906 38.082031 46.878906 37.898438 C 46.878906 37.746094 46.902344 37.605469 46.945312 37.476562 C 46.992188 37.347656 47.058594 37.234375 47.144531 37.140625 C 47.230469 37.042969 47.335938 36.96875 47.457031 36.914062 C 47.582031 36.859375 47.722656 36.832031 47.875 36.832031 Z M 47.886719 37.109375 C 47.703125 37.109375 47.558594 37.164062 47.457031 37.269531 C 47.351562 37.375 47.289062 37.519531 47.261719 37.707031 L 48.425781 37.707031 C 48.425781 37.617188 48.414062 37.539062 48.390625 37.464844 C 48.367188 37.394531 48.332031 37.328125 48.285156 37.277344 C 48.238281 37.222656 48.179688 37.183594 48.113281 37.152344 C 48.046875 37.125 47.96875 37.109375 47.886719 37.109375 Z M 48.867188 39.015625 L 49.617188 37.914062 L 48.894531 36.867188 L 49.257812 36.867188 C 49.289062 36.867188 49.308594 36.871094 49.324219 36.882812 C 49.339844 36.890625 49.351562 36.90625 49.363281 36.925781 L 49.886719 37.730469 C 49.898438 37.691406 49.917969 37.652344 49.941406 37.609375 L 50.402344 36.933594 C 50.414062 36.914062 50.429688 36.898438 50.441406 36.886719 C 50.457031 36.871094 50.476562 36.867188 50.496094 36.867188 L 50.84375 36.867188 L 50.121094 37.890625 L 50.871094 39.015625 L 50.511719 39.015625 C 50.480469 39.015625 50.457031 39.007812 50.4375 38.988281 C 50.421875 38.972656 50.40625 38.957031 50.394531 38.933594 L 49.855469 38.09375 C 49.847656 38.136719 49.832031 38.171875 49.8125 38.203125 L 49.3125 38.933594 C 49.300781 38.957031 49.285156 38.972656 49.269531 38.988281 C 49.253906 39.007812 49.230469 39.015625 49.203125 39.015625 Z M 51.621094 39.742188 L 51.242188 39.742188 L 51.242188 36.867188 L 51.46875 36.867188 C 51.519531 36.867188 51.554688 36.894531 51.570312 36.945312 L 51.601562 37.199219 C 51.691406 37.085938 51.796875 36.996094 51.914062 36.929688 C 52.03125 36.863281 52.167969 36.828125 52.320312 36.828125 C 52.441406 36.828125 52.554688 36.851562 52.652344 36.898438 C 52.753906 36.945312 52.839844 37.015625 52.910156 37.109375 C 52.980469 37.203125 53.035156 37.316406 53.070312 37.453125 C 53.109375 37.589844 53.128906 37.75 53.128906 37.925781 C 53.128906 38.085938 53.109375 38.230469 53.066406 38.367188 C 53.023438 38.503906 52.960938 38.625 52.882812 38.722656 C 52.804688 38.820312 52.707031 38.902344 52.59375 38.957031 C 52.480469 39.015625 52.351562 39.042969 52.207031 39.042969 C 52.074219 39.042969 51.960938 39.023438 51.867188 38.976562 C 51.773438 38.933594 51.691406 38.871094 51.621094 38.792969 Z M 52.195312 37.132812 C 52.074219 37.132812 51.964844 37.160156 51.875 37.21875 C 51.78125 37.273438 51.695312 37.355469 51.621094 37.457031 L 51.621094 38.496094 C 51.6875 38.589844 51.761719 38.65625 51.847656 38.695312 C 51.929688 38.730469 52.019531 38.75 52.121094 38.75 C 52.320312 38.75 52.472656 38.679688 52.578125 38.535156 C 52.6875 38.394531 52.738281 38.191406 52.738281 37.925781 C 52.738281 37.785156 52.726562 37.667969 52.703125 37.566406 C 52.679688 37.464844 52.644531 37.382812 52.597656 37.320312 C 52.550781 37.253906 52.492188 37.207031 52.425781 37.179688 C 52.359375 37.148438 52.28125 37.132812 52.195312 37.132812 Z M 54.421875 36.832031 C 54.546875 36.832031 54.667969 36.855469 54.773438 36.898438 C 54.882812 36.941406 54.976562 37.003906 55.054688 37.085938 C 55.132812 37.164062 55.195312 37.265625 55.242188 37.386719 C 55.285156 37.503906 55.308594 37.640625 55.308594 37.792969 C 55.308594 37.851562 55.300781 37.890625 55.289062 37.910156 C 55.277344 37.933594 55.25 37.941406 55.214844 37.941406 L 53.792969 37.941406 C 53.796875 38.078125 53.8125 38.195312 53.847656 38.296875 C 53.882812 38.394531 53.929688 38.480469 53.988281 38.546875 C 54.046875 38.613281 54.117188 38.664062 54.199219 38.695312 C 54.28125 38.730469 54.371094 38.746094 54.472656 38.746094 C 54.566406 38.746094 54.648438 38.734375 54.71875 38.714844 C 54.785156 38.691406 54.84375 38.667969 54.894531 38.644531 C 54.941406 38.617188 54.984375 38.59375 55.015625 38.574219 C 55.050781 38.550781 55.078125 38.539062 55.101562 38.539062 C 55.132812 38.539062 55.15625 38.550781 55.175781 38.574219 L 55.28125 38.714844 C 55.234375 38.769531 55.179688 38.820312 55.113281 38.859375 C 55.046875 38.902344 54.980469 38.9375 54.90625 38.964844 C 54.832031 38.988281 54.753906 39.011719 54.675781 39.023438 C 54.597656 39.039062 54.519531 39.042969 54.441406 39.042969 C 54.292969 39.042969 54.15625 39.019531 54.03125 38.96875 C 53.910156 38.917969 53.800781 38.84375 53.710938 38.75 C 53.621094 38.652344 53.546875 38.53125 53.496094 38.386719 C 53.445312 38.246094 53.421875 38.082031 53.421875 37.898438 C 53.421875 37.746094 53.445312 37.605469 53.492188 37.476562 C 53.535156 37.347656 53.601562 37.234375 53.6875 37.140625 C 53.773438 37.042969 53.878906 36.96875 54.003906 36.914062 C 54.125 36.859375 54.265625 36.832031 54.421875 36.832031 Z M 54.429688 37.109375 C 54.246094 37.109375 54.105469 37.164062 54 37.269531 C 53.894531 37.375 53.832031 37.519531 53.804688 37.707031 L 54.96875 37.707031 C 54.96875 37.617188 54.957031 37.539062 54.933594 37.464844 C 54.910156 37.394531 54.875 37.328125 54.828125 37.277344 C 54.78125 37.222656 54.726562 37.183594 54.65625 37.152344 C 54.589844 37.125 54.515625 37.109375 54.429688 37.109375 Z M 56.160156 39.015625 L 55.785156 39.015625 L 55.785156 36.867188 L 56.011719 36.867188 C 56.0625 36.867188 56.097656 36.894531 56.113281 36.945312 L 56.140625 37.179688 C 56.234375 37.074219 56.335938 36.992188 56.453125 36.929688 C 56.566406 36.863281 56.699219 36.832031 56.851562 36.832031 C 56.96875 36.832031 57.070312 36.851562 57.160156 36.890625 C 57.25 36.929688 57.324219 36.984375 57.382812 37.054688 C 57.445312 37.128906 57.488281 37.214844 57.519531 37.3125 C 57.550781 37.414062 57.566406 37.523438 57.566406 37.648438 L 57.566406 39.015625 L 57.191406 39.015625 L 57.191406 37.648438 C 57.191406 37.484375 57.152344 37.359375 57.078125 37.269531 C 57.003906 37.179688 56.890625 37.132812 56.742188 37.132812 C 56.628906 37.132812 56.527344 37.160156 56.429688 37.214844 C 56.332031 37.269531 56.242188 37.339844 56.160156 37.433594 Z M 59.441406 37.082031 L 59.359375 37.222656 C 59.339844 37.25 59.316406 37.265625 59.28125 37.265625 C 59.257812 37.265625 59.234375 37.257812 59.207031 37.242188 C 59.183594 37.226562 59.148438 37.210938 59.109375 37.191406 C 59.070312 37.171875 59.023438 37.15625 58.972656 37.140625 C 58.917969 37.125 58.855469 37.113281 58.78125 37.113281 C 58.71875 37.113281 58.660156 37.125 58.609375 37.140625 C 58.558594 37.15625 58.515625 37.175781 58.480469 37.207031 C 58.445312 37.234375 58.417969 37.265625 58.398438 37.304688 C 58.378906 37.34375 58.371094 37.382812 58.371094 37.425781 C 58.371094 37.480469 58.386719 37.527344 58.417969 37.5625 C 58.449219 37.601562 58.492188 37.632812 58.542969 37.660156 C 58.59375 37.6875 58.65625 37.710938 58.722656 37.730469 C 58.785156 37.75 58.855469 37.773438 58.925781 37.796875 C 58.996094 37.820312 59.0625 37.84375 59.128906 37.875 C 59.195312 37.902344 59.253906 37.9375 59.304688 37.980469 C 59.359375 38.023438 59.398438 38.074219 59.429688 38.136719 C 59.460938 38.195312 59.476562 38.269531 59.476562 38.355469 C 59.476562 38.457031 59.460938 38.546875 59.425781 38.632812 C 59.390625 38.714844 59.339844 38.789062 59.269531 38.851562 C 59.199219 38.910156 59.117188 38.960938 59.015625 38.996094 C 58.917969 39.03125 58.800781 39.046875 58.671875 39.046875 C 58.519531 39.046875 58.386719 39.023438 58.265625 38.976562 C 58.144531 38.925781 58.042969 38.863281 57.957031 38.789062 L 58.046875 38.644531 C 58.054688 38.625 58.070312 38.609375 58.085938 38.601562 C 58.101562 38.589844 58.121094 38.585938 58.148438 38.585938 C 58.171875 38.585938 58.199219 38.597656 58.226562 38.617188 C 58.253906 38.636719 58.289062 38.65625 58.328125 38.679688 C 58.367188 38.707031 58.417969 38.726562 58.476562 38.746094 C 58.53125 38.765625 58.601562 38.777344 58.6875 38.777344 C 58.761719 38.777344 58.824219 38.765625 58.882812 38.75 C 58.9375 38.730469 58.980469 38.703125 59.019531 38.671875 C 59.054688 38.636719 59.082031 38.601562 59.101562 38.558594 C 59.117188 38.515625 59.125 38.46875 59.125 38.421875 C 59.125 38.363281 59.109375 38.3125 59.078125 38.277344 C 59.046875 38.238281 59.003906 38.203125 58.953125 38.175781 C 58.902344 38.148438 58.839844 38.125 58.773438 38.105469 C 58.707031 38.082031 58.640625 38.0625 58.570312 38.039062 C 58.5 38.015625 58.433594 37.992188 58.367188 37.960938 C 58.296875 37.933594 58.238281 37.894531 58.1875 37.851562 C 58.132812 37.808594 58.09375 37.753906 58.0625 37.691406 C 58.027344 37.625 58.011719 37.546875 58.011719 37.457031 C 58.011719 37.375 58.03125 37.296875 58.0625 37.21875 C 58.097656 37.144531 58.148438 37.078125 58.210938 37.019531 C 58.277344 36.964844 58.355469 36.917969 58.449219 36.882812 C 58.542969 36.847656 58.652344 36.832031 58.773438 36.832031 C 58.914062 36.832031 59.039062 36.855469 59.152344 36.898438 C 59.265625 36.945312 59.359375 37.003906 59.441406 37.082031 Z M 60.007812 36.867188 L 60.382812 36.867188 L 60.382812 39.015625 L 60.007812 39.015625 Z M 60.46875 36.191406 C 60.46875 36.230469 60.460938 36.261719 60.445312 36.296875 C 60.429688 36.328125 60.410156 36.355469 60.386719 36.378906 C 60.363281 36.40625 60.335938 36.425781 60.300781 36.4375 C 60.269531 36.453125 60.234375 36.460938 60.199219 36.460938 C 60.164062 36.460938 60.128906 36.453125 60.097656 36.4375 C 60.0625 36.425781 60.035156 36.40625 60.011719 36.378906 C 59.988281 36.355469 59.96875 36.328125 59.953125 36.296875 C 59.941406 36.261719 59.933594 36.230469 59.933594 36.191406 C 59.933594 36.15625 59.941406 36.121094 59.953125 36.089844 C 59.96875 36.054688 59.988281 36.027344 60.011719 36 C 60.035156 35.976562 60.0625 35.957031 60.097656 35.941406 C 60.128906 35.929688 60.164062 35.921875 60.199219 35.921875 C 60.234375 35.921875 60.269531 35.929688 60.300781 35.941406 C 60.335938 35.957031 60.363281 35.976562 60.386719 36 C 60.410156 36.027344 60.429688 36.054688 60.445312 36.089844 C 60.460938 36.121094 60.46875 36.15625 60.46875 36.191406 Z M 61.648438 39.015625 L 60.777344 36.867188 L 61.085938 36.867188 C 61.113281 36.867188 61.140625 36.875 61.160156 36.890625 C 61.179688 36.90625 61.191406 36.921875 61.199219 36.945312 L 61.742188 38.328125 C 61.761719 38.378906 61.777344 38.429688 61.789062 38.480469 C 61.800781 38.53125 61.8125 38.582031 61.820312 38.628906 C 61.832031 38.582031 61.84375 38.53125 61.855469 38.480469 C 61.871094 38.429688 61.886719 38.378906 61.90625 38.328125 L 62.457031 36.945312 C 62.464844 36.921875 62.476562 36.902344 62.496094 36.890625 C 62.515625 36.875 62.539062 36.867188 62.566406 36.867188 L 62.859375 36.867188 L 61.988281 39.015625 Z M 64 36.832031 C 64.128906 36.832031 64.246094 36.855469 64.355469 36.898438 C 64.464844 36.941406 64.558594 37.003906 64.636719 37.085938 C 64.714844 37.164062 64.777344 37.265625 64.820312 37.386719 C 64.863281 37.503906 64.886719 37.640625 64.886719 37.792969 C 64.886719 37.851562 64.882812 37.890625 64.867188 37.910156 C 64.855469 37.933594 64.832031 37.941406 64.796875 37.941406 L 63.375 37.941406 C 63.375 38.078125 63.394531 38.195312 63.429688 38.296875 C 63.460938 38.394531 63.507812 38.480469 63.566406 38.546875 C 63.625 38.613281 63.695312 38.664062 63.777344 38.695312 C 63.859375 38.730469 63.953125 38.746094 64.054688 38.746094 C 64.148438 38.746094 64.230469 38.734375 64.296875 38.714844 C 64.363281 38.691406 64.425781 38.667969 64.472656 38.644531 C 64.523438 38.617188 64.5625 38.59375 64.597656 38.574219 C 64.628906 38.550781 64.660156 38.539062 64.683594 38.539062 C 64.714844 38.539062 64.738281 38.550781 64.753906 38.574219 L 64.859375 38.714844 C 64.8125 38.769531 64.757812 38.820312 64.691406 38.859375 C 64.628906 38.902344 64.558594 38.9375 64.484375 38.964844 C 64.410156 38.988281 64.335938 39.011719 64.253906 39.023438 C 64.175781 39.039062 64.097656 39.042969 64.023438 39.042969 C 63.875 39.042969 63.738281 39.019531 63.613281 38.96875 C 63.488281 38.917969 63.378906 38.84375 63.289062 38.75 C 63.199219 38.652344 63.128906 38.53125 63.078125 38.386719 C 63.027344 38.246094 63 38.082031 63 37.898438 C 63 37.746094 63.023438 37.605469 63.070312 37.476562 C 63.117188 37.347656 63.183594 37.234375 63.269531 37.140625 C 63.355469 37.042969 63.457031 36.96875 63.582031 36.914062 C 63.707031 36.859375 63.847656 36.832031 64 36.832031 Z M 64.007812 37.109375 C 63.828125 37.109375 63.683594 37.164062 63.582031 37.269531 C 63.476562 37.375 63.410156 37.519531 63.386719 37.707031 L 64.550781 37.707031 C 64.550781 37.617188 64.539062 37.539062 64.511719 37.464844 C 64.488281 37.394531 64.453125 37.328125 64.40625 37.277344 C 64.363281 37.222656 64.304688 37.183594 64.238281 37.152344 C 64.171875 37.125 64.09375 37.109375 64.007812 37.109375 Z M 65.257812 38.753906 C 65.257812 38.722656 65.261719 38.691406 65.273438 38.660156 C 65.285156 38.632812 65.304688 38.605469 65.324219 38.585938 C 65.347656 38.5625 65.375 38.546875 65.402344 38.53125 C 65.433594 38.519531 65.46875 38.515625 65.503906 38.515625 C 65.546875 38.515625 65.585938 38.523438 65.617188 38.535156 C 65.652344 38.554688 65.679688 38.574219 65.699219 38.601562 C 65.722656 38.628906 65.738281 38.660156 65.75 38.695312 C 65.761719 38.734375 65.765625 38.773438 65.765625 38.816406 C 65.765625 38.878906 65.757812 38.945312 65.738281 39.011719 C 65.722656 39.082031 65.695312 39.148438 65.660156 39.21875 C 65.628906 39.285156 65.585938 39.351562 65.535156 39.414062 C 65.484375 39.476562 65.429688 39.535156 65.367188 39.589844 L 65.304688 39.527344 C 65.285156 39.511719 65.273438 39.492188 65.273438 39.46875 C 65.273438 39.449219 65.285156 39.429688 65.304688 39.410156 C 65.320312 39.394531 65.335938 39.375 65.359375 39.347656 C 65.378906 39.324219 65.402344 39.292969 65.425781 39.257812 C 65.449219 39.222656 65.46875 39.1875 65.488281 39.144531 C 65.507812 39.105469 65.519531 39.0625 65.527344 39.015625 L 65.5 39.015625 C 65.464844 39.015625 65.429688 39.007812 65.402344 38.996094 C 65.371094 38.984375 65.347656 38.964844 65.324219 38.941406 C 65.304688 38.917969 65.285156 38.890625 65.273438 38.859375 C 65.261719 38.828125 65.257812 38.792969 65.257812 38.753906 Z M 67.117188 36.867188 L 67.492188 36.867188 L 67.492188 39.015625 L 67.117188 39.015625 Z M 67.578125 36.191406 C 67.578125 36.230469 67.570312 36.261719 67.554688 36.296875 C 67.542969 36.328125 67.523438 36.355469 67.496094 36.378906 C 67.472656 36.40625 67.445312 36.425781 67.410156 36.4375 C 67.378906 36.453125 67.34375 36.460938 67.308594 36.460938 C 67.269531 36.460938 67.238281 36.453125 67.207031 36.4375 C 67.175781 36.425781 67.144531 36.40625 67.121094 36.378906 C 67.097656 36.355469 67.078125 36.328125 67.0625 36.296875 C 67.046875 36.261719 67.042969 36.230469 67.042969 36.191406 C 67.042969 36.15625 67.046875 36.121094 67.0625 36.089844 C 67.078125 36.054688 67.097656 36.027344 67.121094 36 C 67.144531 35.976562 67.175781 35.957031 67.207031 35.941406 C 67.238281 35.929688 67.269531 35.921875 67.308594 35.921875 C 67.34375 35.921875 67.378906 35.929688 67.410156 35.941406 C 67.445312 35.957031 67.472656 35.976562 67.496094 36 C 67.523438 36.027344 67.542969 36.054688 67.554688 36.089844 C 67.570312 36.121094 67.578125 36.15625 67.578125 36.191406 Z M 68.804688 39.046875 C 68.636719 39.046875 68.507812 39 68.414062 38.90625 C 68.324219 38.8125 68.277344 38.675781 68.277344 38.496094 L 68.277344 37.183594 L 68.019531 37.183594 C 68 37.183594 67.980469 37.175781 67.964844 37.164062 C 67.949219 37.148438 67.941406 37.128906 67.941406 37.097656 L 67.941406 36.949219 L 68.292969 36.90625 L 68.378906 36.242188 C 68.382812 36.21875 68.390625 36.203125 68.40625 36.191406 C 68.421875 36.175781 68.441406 36.167969 68.464844 36.167969 L 68.65625 36.167969 L 68.65625 36.910156 L 69.265625 36.910156 L 69.265625 37.183594 L 68.65625 37.183594 L 68.65625 38.472656 C 68.65625 38.5625 68.675781 38.628906 68.71875 38.671875 C 68.765625 38.714844 68.820312 38.738281 68.890625 38.738281 C 68.929688 38.738281 68.964844 38.734375 68.992188 38.722656 C 69.019531 38.710938 69.046875 38.699219 69.066406 38.6875 C 69.085938 38.675781 69.105469 38.664062 69.121094 38.652344 C 69.136719 38.640625 69.148438 38.636719 69.160156 38.636719 C 69.179688 38.636719 69.195312 38.648438 69.210938 38.671875 L 69.320312 38.851562 C 69.257812 38.914062 69.179688 38.960938 69.089844 38.996094 C 68.996094 39.03125 68.902344 39.046875 68.804688 39.046875 Z M 72.117188 37.640625 L 72.117188 39.015625 L 71.949219 39.015625 C 71.914062 39.015625 71.882812 39.007812 71.859375 38.996094 C 71.839844 38.984375 71.824219 38.960938 71.816406 38.925781 L 71.773438 38.726562 C 71.71875 38.777344 71.664062 38.824219 71.609375 38.863281 C 71.558594 38.902344 71.5 38.9375 71.441406 38.964844 C 71.382812 38.992188 71.320312 39.011719 71.253906 39.027344 C 71.183594 39.042969 71.109375 39.046875 71.03125 39.046875 C 70.945312 39.046875 70.867188 39.035156 70.796875 39.011719 C 70.722656 38.988281 70.660156 38.953125 70.605469 38.910156 C 70.554688 38.863281 70.511719 38.800781 70.480469 38.730469 C 70.449219 38.660156 70.433594 38.574219 70.433594 38.476562 C 70.433594 38.394531 70.457031 38.3125 70.5 38.234375 C 70.546875 38.15625 70.625 38.085938 70.726562 38.023438 C 70.828125 37.964844 70.964844 37.914062 71.132812 37.875 C 71.300781 37.835938 71.503906 37.8125 71.746094 37.808594 L 71.746094 37.640625 C 71.746094 37.472656 71.710938 37.347656 71.640625 37.261719 C 71.570312 37.175781 71.464844 37.132812 71.324219 37.132812 C 71.234375 37.132812 71.15625 37.144531 71.09375 37.167969 C 71.03125 37.191406 70.976562 37.21875 70.929688 37.246094 C 70.886719 37.277344 70.847656 37.300781 70.8125 37.324219 C 70.78125 37.347656 70.746094 37.359375 70.714844 37.359375 C 70.691406 37.359375 70.667969 37.355469 70.648438 37.339844 C 70.628906 37.328125 70.613281 37.308594 70.601562 37.289062 L 70.535156 37.171875 C 70.652344 37.054688 70.78125 36.96875 70.917969 36.914062 C 71.054688 36.855469 71.207031 36.828125 71.371094 36.828125 C 71.492188 36.828125 71.597656 36.847656 71.691406 36.886719 C 71.785156 36.925781 71.863281 36.980469 71.925781 37.054688 C 71.988281 37.125 72.035156 37.210938 72.066406 37.308594 C 72.101562 37.410156 72.117188 37.519531 72.117188 37.640625 Z M 71.140625 38.78125 C 71.207031 38.78125 71.269531 38.777344 71.324219 38.761719 C 71.378906 38.75 71.429688 38.730469 71.476562 38.707031 C 71.527344 38.679688 71.574219 38.652344 71.617188 38.617188 C 71.660156 38.582031 71.703125 38.539062 71.746094 38.496094 L 71.746094 38.046875 C 71.574219 38.054688 71.425781 38.066406 71.304688 38.089844 C 71.183594 38.109375 71.085938 38.140625 71.011719 38.175781 C 70.933594 38.210938 70.878906 38.25 70.84375 38.300781 C 70.808594 38.347656 70.792969 38.402344 70.792969 38.460938 C 70.792969 38.515625 70.800781 38.566406 70.820312 38.605469 C 70.839844 38.648438 70.863281 38.683594 70.894531 38.707031 C 70.925781 38.734375 70.960938 38.753906 71.003906 38.765625 C 71.046875 38.777344 71.09375 38.78125 71.140625 38.78125 Z M 72.730469 36.867188 L 73.105469 36.867188 L 73.105469 39.015625 L 72.730469 39.015625 Z M 73.1875 36.191406 C 73.1875 36.230469 73.179688 36.261719 73.167969 36.296875 C 73.152344 36.328125 73.132812 36.355469 73.109375 36.378906 C 73.082031 36.40625 73.054688 36.425781 73.023438 36.4375 C 72.988281 36.453125 72.957031 36.460938 72.917969 36.460938 C 72.882812 36.460938 72.847656 36.453125 72.816406 36.4375 C 72.785156 36.425781 72.757812 36.40625 72.730469 36.378906 C 72.707031 36.355469 72.6875 36.328125 72.671875 36.296875 C 72.660156 36.261719 72.652344 36.230469 72.652344 36.191406 C 72.652344 36.15625 72.660156 36.121094 72.671875 36.089844 C 72.6875 36.054688 72.707031 36.027344 72.730469 36 C 72.757812 35.976562 72.785156 35.957031 72.816406 35.941406 C 72.847656 35.929688 72.882812 35.921875 72.917969 35.921875 C 72.957031 35.921875 72.988281 35.929688 73.023438 35.941406 C 73.054688 35.957031 73.082031 35.976562 73.109375 36 C 73.132812 36.027344 73.152344 36.054688 73.167969 36.089844 C 73.179688 36.121094 73.1875 36.15625 73.1875 36.191406 Z M 74.144531 39.015625 L 73.765625 39.015625 L 73.765625 36.867188 L 73.992188 36.867188 C 74.042969 36.867188 74.078125 36.894531 74.09375 36.945312 L 74.121094 37.179688 C 74.214844 37.074219 74.320312 36.992188 74.433594 36.929688 C 74.546875 36.863281 74.679688 36.832031 74.832031 36.832031 C 74.949219 36.832031 75.050781 36.851562 75.140625 36.890625 C 75.230469 36.929688 75.304688 36.984375 75.363281 37.054688 C 75.425781 37.128906 75.46875 37.214844 75.5 37.3125 C 75.53125 37.414062 75.546875 37.523438 75.546875 37.648438 L 75.546875 39.015625 L 75.171875 39.015625 L 75.171875 37.648438 C 75.171875 37.484375 75.132812 37.359375 75.058594 37.269531 C 74.988281 37.179688 74.875 37.132812 74.722656 37.132812 C 74.609375 37.132812 74.507812 37.160156 74.410156 37.214844 C 74.3125 37.269531 74.226562 37.339844 74.144531 37.433594 Z M 75.976562 35.976562 L 76.300781 35.976562 L 76.300781 36.589844 L 76.269531 36.917969 C 76.265625 36.964844 76.253906 37 76.234375 37.023438 C 76.214844 37.050781 76.183594 37.0625 76.136719 37.0625 C 76.101562 37.0625 76.074219 37.050781 76.050781 37.023438 C 76.03125 37 76.019531 36.964844 76.007812 36.917969 L 75.976562 36.589844 Z M 77.582031 39.046875 C 77.414062 39.046875 77.285156 39 77.191406 38.90625 C 77.101562 38.8125 77.054688 38.675781 77.054688 38.496094 L 77.054688 37.183594 L 76.796875 37.183594 C 76.777344 37.183594 76.757812 37.175781 76.742188 37.164062 C 76.726562 37.148438 76.71875 37.128906 76.71875 37.097656 L 76.71875 36.949219 L 77.070312 36.90625 L 77.15625 36.242188 C 77.160156 36.21875 77.167969 36.203125 77.183594 36.191406 C 77.199219 36.175781 77.21875 36.167969 77.242188 36.167969 L 77.429688 36.167969 L 77.429688 36.910156 L 78.042969 36.910156 L 78.042969 37.183594 L 77.429688 37.183594 L 77.429688 38.472656 C 77.429688 38.5625 77.453125 38.628906 77.496094 38.671875 C 77.542969 38.714844 77.597656 38.738281 77.667969 38.738281 C 77.707031 38.738281 77.738281 38.734375 77.769531 38.722656 C 77.796875 38.710938 77.824219 38.699219 77.84375 38.6875 C 77.863281 38.675781 77.882812 38.664062 77.898438 38.652344 C 77.914062 38.640625 77.925781 38.636719 77.9375 38.636719 C 77.957031 38.636719 77.972656 38.648438 77.988281 38.671875 L 78.097656 38.851562 C 78.035156 38.914062 77.957031 38.960938 77.863281 38.996094 C 77.773438 39.03125 77.679688 39.046875 77.582031 39.046875 Z M 79.738281 39.015625 L 79.042969 36.867188 L 79.339844 36.867188 C 79.371094 36.867188 79.394531 36.875 79.417969 36.890625 C 79.4375 36.90625 79.449219 36.921875 79.457031 36.945312 L 79.867188 38.328125 C 79.875 38.378906 79.886719 38.425781 79.898438 38.476562 C 79.90625 38.523438 79.914062 38.570312 79.921875 38.617188 C 79.933594 38.570312 79.945312 38.523438 79.960938 38.476562 C 79.976562 38.425781 79.988281 38.378906 80.003906 38.328125 L 80.457031 36.9375 C 80.464844 36.914062 80.476562 36.898438 80.492188 36.882812 C 80.511719 36.871094 80.535156 36.863281 80.558594 36.863281 L 80.722656 36.863281 C 80.75 36.863281 80.773438 36.871094 80.792969 36.882812 C 80.8125 36.898438 80.824219 36.914062 80.832031 36.9375 L 81.273438 38.328125 C 81.289062 38.375 81.300781 38.425781 81.3125 38.472656 C 81.324219 38.519531 81.335938 38.570312 81.347656 38.617188 C 81.355469 38.570312 81.363281 38.519531 81.375 38.46875 C 81.386719 38.417969 81.398438 38.371094 81.410156 38.328125 L 81.828125 36.945312 C 81.835938 36.921875 81.851562 36.902344 81.871094 36.890625 C 81.890625 36.875 81.914062 36.867188 81.9375 36.867188 L 82.222656 36.867188 L 81.527344 39.015625 L 81.230469 39.015625 C 81.195312 39.015625 81.167969 38.992188 81.15625 38.941406 L 80.683594 37.484375 C 80.671875 37.453125 80.664062 37.421875 80.65625 37.386719 C 80.648438 37.355469 80.640625 37.320312 80.632812 37.289062 C 80.628906 37.320312 80.621094 37.355469 80.613281 37.386719 C 80.605469 37.421875 80.597656 37.457031 80.585938 37.488281 L 80.105469 38.941406 C 80.089844 38.992188 80.0625 39.015625 80.019531 39.015625 Z M 83.421875 36.832031 C 83.578125 36.832031 83.71875 36.859375 83.847656 36.910156 C 83.972656 36.964844 84.078125 37.039062 84.167969 37.132812 C 84.253906 37.230469 84.324219 37.347656 84.371094 37.484375 C 84.417969 37.617188 84.441406 37.769531 84.441406 37.9375 C 84.441406 38.109375 84.417969 38.261719 84.371094 38.398438 C 84.324219 38.53125 84.253906 38.648438 84.167969 38.746094 C 84.078125 38.839844 83.972656 38.914062 83.847656 38.96875 C 83.71875 39.019531 83.578125 39.042969 83.421875 39.042969 C 83.265625 39.042969 83.125 39.019531 83 38.96875 C 82.875 38.914062 82.765625 38.839844 82.675781 38.746094 C 82.589844 38.648438 82.519531 38.53125 82.472656 38.398438 C 82.425781 38.261719 82.402344 38.109375 82.402344 37.9375 C 82.402344 37.769531 82.425781 37.617188 82.472656 37.484375 C 82.519531 37.347656 82.589844 37.230469 82.675781 37.132812 C 82.765625 37.039062 82.875 36.964844 83 36.910156 C 83.125 36.859375 83.265625 36.832031 83.421875 36.832031 Z M 83.421875 38.75 C 83.632812 38.75 83.792969 38.679688 83.894531 38.535156 C 84 38.394531 84.050781 38.195312 84.050781 37.941406 C 84.050781 37.6875 84 37.484375 83.894531 37.34375 C 83.792969 37.199219 83.632812 37.128906 83.421875 37.128906 C 83.316406 37.128906 83.222656 37.148438 83.144531 37.183594 C 83.066406 37.222656 83 37.273438 82.945312 37.34375 C 82.894531 37.414062 82.855469 37.496094 82.828125 37.597656 C 82.804688 37.699219 82.789062 37.816406 82.789062 37.941406 C 82.789062 38.070312 82.804688 38.183594 82.828125 38.28125 C 82.855469 38.382812 82.894531 38.46875 82.945312 38.535156 C 83 38.605469 83.066406 38.65625 83.144531 38.695312 C 83.222656 38.730469 83.316406 38.75 83.421875 38.75 Z M 85.28125 39.015625 L 84.90625 39.015625 L 84.90625 36.867188 L 85.121094 36.867188 C 85.160156 36.867188 85.1875 36.875 85.203125 36.890625 C 85.21875 36.90625 85.230469 36.933594 85.238281 36.96875 L 85.261719 37.304688 C 85.335938 37.15625 85.425781 37.039062 85.53125 36.953125 C 85.640625 36.871094 85.765625 36.828125 85.910156 36.828125 C 85.972656 36.828125 86.023438 36.835938 86.074219 36.847656 C 86.121094 36.863281 86.164062 36.878906 86.207031 36.90625 L 86.15625 37.1875 C 86.148438 37.222656 86.125 37.238281 86.089844 37.238281 C 86.070312 37.238281 86.042969 37.234375 86 37.21875 C 85.960938 37.207031 85.902344 37.199219 85.828125 37.199219 C 85.699219 37.199219 85.589844 37.238281 85.5 37.3125 C 85.414062 37.390625 85.339844 37.5 85.28125 37.648438 Z M 87.253906 39.046875 C 87.085938 39.046875 86.957031 39 86.863281 38.90625 C 86.773438 38.8125 86.730469 38.675781 86.730469 38.496094 L 86.730469 37.183594 L 86.472656 37.183594 C 86.449219 37.183594 86.429688 37.175781 86.414062 37.164062 C 86.398438 37.148438 86.390625 37.128906 86.390625 37.097656 L 86.390625 36.949219 L 86.742188 36.90625 L 86.828125 36.242188 C 86.832031 36.21875 86.839844 36.203125 86.855469 36.191406 C 86.871094 36.175781 86.890625 36.167969 86.914062 36.167969 L 87.105469 36.167969 L 87.105469 36.910156 L 87.714844 36.910156 L 87.714844 37.183594 L 87.105469 37.183594 L 87.105469 38.472656 C 87.105469 38.5625 87.125 38.628906 87.171875 38.671875 C 87.214844 38.714844 87.269531 38.738281 87.339844 38.738281 C 87.378906 38.738281 87.414062 38.734375 87.441406 38.722656 C 87.46875 38.710938 87.496094 38.699219 87.515625 38.6875 C 87.539062 38.675781 87.554688 38.664062 87.570312 38.652344 C 87.585938 38.640625 87.597656 38.636719 87.609375 38.636719 C 87.628906 38.636719 87.648438 38.648438 87.660156 38.671875 L 87.773438 38.851562 C 87.707031 38.914062 87.628906 38.960938 87.539062 38.996094 C 87.445312 39.03125 87.351562 39.046875 87.253906 39.046875 Z M 88.558594 39.015625 L 88.179688 39.015625 L 88.179688 35.890625 L 88.558594 35.890625 L 88.558594 37.15625 C 88.648438 37.058594 88.75 36.980469 88.859375 36.921875 C 88.972656 36.863281 89.101562 36.832031 89.246094 36.832031 C 89.363281 36.832031 89.464844 36.851562 89.554688 36.890625 C 89.644531 36.929688 89.71875 36.984375 89.777344 37.054688 C 89.835938 37.128906 89.882812 37.214844 89.914062 37.3125 C 89.945312 37.414062 89.960938 37.523438 89.960938 37.648438 L 89.960938 39.015625 L 89.585938 39.015625 L 89.585938 37.648438 C 89.585938 37.484375 89.546875 37.359375 89.472656 37.269531 C 89.402344 37.179688 89.289062 37.132812 89.136719 37.132812 C 89.023438 37.132812 88.921875 37.160156 88.824219 37.214844 C 88.726562 37.269531 88.636719 37.339844 88.558594 37.433594 Z M 91.386719 36.867188 L 91.761719 36.867188 L 91.761719 39.015625 L 91.386719 39.015625 Z M 91.84375 36.191406 C 91.84375 36.230469 91.839844 36.261719 91.824219 36.296875 C 91.808594 36.328125 91.789062 36.355469 91.765625 36.378906 C 91.738281 36.40625 91.710938 36.425781 91.679688 36.4375 C 91.648438 36.453125 91.613281 36.460938 91.574219 36.460938 C 91.539062 36.460938 91.503906 36.453125 91.472656 36.4375 C 91.441406 36.425781 91.414062 36.40625 91.386719 36.378906 C 91.363281 36.355469 91.34375 36.328125 91.332031 36.296875 C 91.316406 36.261719 91.308594 36.230469 91.308594 36.191406 C 91.308594 36.15625 91.316406 36.121094 91.332031 36.089844 C 91.34375 36.054688 91.363281 36.027344 91.386719 36 C 91.414062 35.976562 91.441406 35.957031 91.472656 35.941406 C 91.503906 35.929688 91.539062 35.921875 91.574219 35.921875 C 91.613281 35.921875 91.648438 35.929688 91.679688 35.941406 C 91.710938 35.957031 91.738281 35.976562 91.765625 36 C 91.789062 36.027344 91.808594 36.054688 91.824219 36.089844 C 91.839844 36.121094 91.84375 36.15625 91.84375 36.191406 Z M 93.074219 39.046875 C 92.902344 39.046875 92.773438 39 92.683594 38.90625 C 92.589844 38.8125 92.546875 38.675781 92.546875 38.496094 L 92.546875 37.183594 L 92.289062 37.183594 C 92.265625 37.183594 92.246094 37.175781 92.230469 37.164062 C 92.214844 37.148438 92.207031 37.128906 92.207031 37.097656 L 92.207031 36.949219 L 92.558594 36.90625 L 92.644531 36.242188 C 92.648438 36.21875 92.65625 36.203125 92.671875 36.191406 C 92.6875 36.175781 92.707031 36.167969 92.730469 36.167969 L 92.921875 36.167969 L 92.921875 36.910156 L 93.535156 36.910156 L 93.535156 37.183594 L 92.921875 37.183594 L 92.921875 38.472656 C 92.921875 38.5625 92.945312 38.628906 92.988281 38.671875 C 93.03125 38.714844 93.085938 38.738281 93.15625 38.738281 C 93.195312 38.738281 93.230469 38.734375 93.257812 38.722656 C 93.289062 38.710938 93.3125 38.699219 93.335938 38.6875 C 93.355469 38.675781 93.371094 38.664062 93.386719 38.652344 C 93.402344 38.640625 93.414062 38.636719 93.425781 38.636719 C 93.445312 38.636719 93.464844 38.648438 93.480469 38.671875 L 93.589844 38.851562 C 93.523438 38.914062 93.445312 38.960938 93.355469 38.996094 C 93.265625 39.03125 93.167969 39.046875 93.074219 39.046875 Z M 93.074219 39.046875 "/>
</g>
<g clip-path="url(#clip3)" clip-rule="nonzero">
<path style=" stroke:none;fill-rule:nonzero;fill:rgb(0%,0%,0%);fill-opacity:1;" d="M 144.488281 29.40625 C 144.445312 28.808594 144.351562 28.214844 144.261719 27.570312 C 143.621094 24.316406 141.796875 21.523438 139.058594 19.6875 L 136.410156 17.902344 C 133.671875 16.066406 130.386719 15.378906 127.191406 16.023438 C 123.949219 16.664062 121.167969 18.496094 119.339844 21.246094 C 117.515625 23.996094 116.832031 27.296875 117.46875 30.503906 C 118.109375 33.757812 119.933594 36.554688 122.671875 38.386719 L 125.320312 40.175781 C 127.375 41.550781 129.746094 42.28125 132.167969 42.28125 C 132.941406 42.28125 133.765625 42.191406 134.539062 42.054688 C 137.78125 41.414062 140.5625 39.578125 142.390625 36.828125 C 143.851562 34.675781 144.582031 32.0625 144.488281 29.40625 Z M 143.210938 32.566406 L 141.386719 31.328125 C 141.613281 30.503906 141.75 29.632812 141.796875 28.761719 L 143.484375 29.910156 C 143.53125 30.824219 143.394531 31.742188 143.210938 32.566406 Z M 143.304688 27.800781 C 143.347656 28.121094 143.394531 28.394531 143.441406 28.71875 L 141.796875 27.617188 C 141.75 27.019531 141.707031 26.425781 141.570312 25.828125 C 141.292969 24.410156 140.792969 23.035156 140.0625 21.84375 C 141.707031 23.402344 142.847656 25.464844 143.304688 27.800781 Z M 118.382812 30.367188 C 117.789062 27.386719 118.429688 24.363281 120.117188 21.84375 C 121.804688 19.320312 124.363281 17.625 127.328125 17.03125 C 128.058594 16.894531 128.789062 16.800781 129.519531 16.800781 C 131.753906 16.800781 133.945312 17.441406 135.816406 18.726562 C 138.328125 20.421875 140.015625 22.988281 140.609375 25.96875 C 141.203125 28.945312 140.5625 31.972656 138.875 34.492188 C 137.1875 37.011719 134.632812 38.707031 131.664062 39.304688 C 128.699219 39.898438 125.683594 39.257812 123.175781 37.5625 C 120.664062 35.914062 118.976562 33.347656 118.382812 30.367188 Z M 135.085938 39.167969 C 135.863281 38.800781 136.59375 38.296875 137.234375 37.792969 L 139.058594 39.027344 C 138.375 39.578125 137.597656 39.992188 136.820312 40.359375 Z M 134.355469 41.136719 C 132.03125 41.59375 129.703125 41.320312 127.601562 40.359375 C 128.242188 40.449219 128.878906 40.496094 129.472656 40.496094 C 130.25 40.496094 131.070312 40.402344 131.847656 40.265625 C 132.621094 40.128906 133.308594 39.898438 134.039062 39.625 L 135.679688 40.769531 C 135.269531 40.910156 134.8125 41.046875 134.355469 41.136719 Z M 139.835938 38.386719 L 138.007812 37.148438 C 138.554688 36.601562 139.105469 36.003906 139.558594 35.363281 L 141.429688 36.601562 C 140.929688 37.242188 140.425781 37.835938 139.835938 38.386719 Z M 141.933594 35.773438 L 140.0625 34.539062 C 140.472656 33.851562 140.839844 33.117188 141.066406 32.382812 L 142.890625 33.621094 C 142.664062 34.308594 142.34375 35.042969 141.933594 35.773438 Z M 141.933594 35.773438 "/>
</g>
<path style=" stroke:none;fill-rule:nonzero;fill:rgb(0%,0%,0%);fill-opacity:1;" d="M 128.332031 37.105469 L 128.332031 34.90625 C 127.054688 34.859375 125.777344 34.492188 125 33.941406 L 125.503906 32.476562 C 126.277344 32.980469 127.417969 33.390625 128.605469 33.390625 C 130.15625 33.390625 131.207031 32.519531 131.207031 31.238281 C 131.207031 30.046875 130.339844 29.3125 128.742188 28.625 C 126.550781 27.753906 125.183594 26.746094 125.183594 24.867188 C 125.183594 23.078125 126.460938 21.703125 128.46875 21.339844 L 128.46875 19.136719 L 129.792969 19.136719 L 129.792969 21.246094 C 131.117188 21.292969 131.984375 21.660156 132.621094 22.027344 L 132.074219 23.445312 C 131.617188 23.171875 130.75 22.714844 129.335938 22.714844 C 127.648438 22.714844 127.054688 23.722656 127.054688 24.59375 C 127.054688 25.738281 127.875 26.289062 129.746094 27.066406 C 131.984375 27.984375 133.125 29.128906 133.125 31.054688 C 133.125 32.796875 131.9375 34.398438 129.703125 34.765625 L 129.703125 37.011719 L 128.332031 37.011719 Z M 128.332031 37.105469 "/>
<path style=" stroke:none;fill-rule:nonzero;fill:rgb(0%,0%,0%);fill-opacity:1;" d="M 103.734375 19.65625 L 103.644531 20.378906 L 108.65625 20.621094 L 108.671875 20.589844 L 104.824219 17.390625 L 104.398438 17.984375 L 104.015625 17.832031 L 104.785156 15.886719 L 105.164062 16.039062 L 105.074219 16.757812 L 109.539062 20.59375 L 109.199219 21.457031 L 103.269531 21.320312 L 102.851562 21.890625 L 102.472656 21.738281 L 103.355469 19.503906 Z M 103.734375 19.65625 "/>
<path style=" stroke:none;fill-rule:nonzero;fill:rgb(0%,0%,0%);fill-opacity:1;" d="M 112.746094 6.714844 L 112.371094 7.359375 L 115.914062 10.859375 L 116.546875 10.472656 L 116.839844 10.761719 L 115.171875 12.460938 L 114.878906 12.171875 L 115.257812 11.53125 L 113.617188 9.910156 L 111.648438 11.921875 L 113.285156 13.542969 L 113.914062 13.15625 L 114.207031 13.445312 L 112.542969 15.144531 L 112.25 14.855469 L 112.625 14.214844 L 109.082031 10.714844 L 108.449219 11.101562 L 108.160156 10.8125 L 109.824219 9.113281 L 110.117188 9.402344 L 109.742188 10.039062 L 111.261719 11.542969 L 113.234375 9.535156 L 111.710938 8.027344 L 111.082031 8.417969 L 110.789062 8.128906 L 112.453125 6.429688 Z M 112.746094 6.714844 "/>
<path style=" stroke:none;fill-rule:nonzero;fill:rgb(0%,0%,0%);fill-opacity:1;" d="M 122.550781 7.84375 C 122.246094 7.972656 121.953125 8.042969 121.675781 8.050781 C 121.398438 8.058594 121.136719 8.011719 120.894531 7.902344 L 121 8.398438 L 120.480469 8.617188 L 119.710938 6.785156 L 120.269531 6.546875 C 120.515625 7.046875 120.796875 7.359375 121.117188 7.492188 C 121.433594 7.625 121.804688 7.601562 122.222656 7.421875 C 122.574219 7.273438 122.8125 7.089844 122.9375 6.875 C 123.066406 6.65625 123.070312 6.410156 122.953125 6.136719 C 122.859375 5.910156 122.722656 5.746094 122.550781 5.648438 C 122.375 5.546875 122.15625 5.484375 121.894531 5.460938 C 121.632812 5.433594 121.332031 5.425781 120.988281 5.433594 C 120.605469 5.433594 120.269531 5.414062 119.980469 5.375 C 119.695312 5.335938 119.449219 5.242188 119.246094 5.101562 C 119.042969 4.957031 118.878906 4.730469 118.75 4.425781 C 118.535156 3.921875 118.527344 3.460938 118.722656 3.050781 C 118.917969 2.636719 119.277344 2.320312 119.804688 2.097656 C 120.320312 1.878906 120.804688 1.847656 121.257812 2.003906 L 121.167969 1.625 L 121.6875 1.402344 L 122.457031 3.238281 L 121.929688 3.460938 C 121.722656 2.960938 121.472656 2.632812 121.191406 2.476562 C 120.90625 2.320312 120.5625 2.328125 120.164062 2.496094 C 119.488281 2.78125 119.28125 3.238281 119.542969 3.867188 C 119.617188 4.046875 119.710938 4.175781 119.828125 4.257812 C 119.945312 4.339844 120.105469 4.394531 120.308594 4.417969 C 120.515625 4.441406 120.796875 4.457031 121.15625 4.460938 C 121.671875 4.464844 122.097656 4.5 122.4375 4.558594 C 122.773438 4.621094 123.042969 4.726562 123.246094 4.878906 C 123.449219 5.027344 123.605469 5.242188 123.722656 5.515625 C 123.859375 5.847656 123.902344 6.160156 123.839844 6.460938 C 123.78125 6.757812 123.640625 7.027344 123.417969 7.265625 C 123.195312 7.5 122.90625 7.695312 122.550781 7.84375 Z M 122.550781 7.84375 "/>
<g clip-path="url(#clip4)" clip-rule="nonzero">
<path style=" stroke:none;fill-rule:nonzero;fill:rgb(0%,0%,0%);fill-opacity:1;" d="M 128.222656 1.921875 L 128.195312 0.078125 L 133.371094 0 L 133.398438 1.84375 L 132.921875 1.851562 L 132.628906 0.570312 L 131.261719 0.589844 L 131.335938 5.589844 L 132.246094 5.78125 L 132.25 6.195312 L 129.503906 6.238281 L 129.496094 5.824219 L 130.398438 5.605469 L 130.324219 0.605469 L 128.945312 0.625 L 128.703125 1.914062 Z M 128.222656 1.921875 "/>
</g>
<path style=" stroke:none;fill-rule:nonzero;fill:rgb(0%,0%,0%);fill-opacity:1;" d="M 143.808594 6.191406 C 143.628906 6.648438 143.386719 7.050781 143.089844 7.402344 C 142.789062 7.757812 142.457031 8.019531 142.09375 8.191406 C 141.78125 8.335938 141.445312 8.40625 141.089844 8.394531 C 140.734375 8.386719 140.351562 8.296875 139.941406 8.132812 C 139.527344 7.96875 139.1875 7.769531 138.917969 7.53125 C 138.648438 7.296875 138.457031 7.023438 138.339844 6.71875 C 138.199219 6.375 138.140625 5.984375 138.160156 5.542969 C 138.175781 5.101562 138.277344 4.65625 138.457031 4.199219 C 138.640625 3.734375 138.882812 3.328125 139.183594 2.980469 C 139.484375 2.628906 139.816406 2.367188 140.171875 2.199219 C 140.488281 2.046875 140.816406 1.976562 141.160156 1.984375 C 141.503906 1.992188 141.882812 2.078125 142.300781 2.246094 C 142.710938 2.410156 143.046875 2.605469 143.3125 2.839844 C 143.578125 3.070312 143.78125 3.347656 143.917969 3.667969 C 144.066406 4.03125 144.132812 4.433594 144.105469 4.875 C 144.082031 5.316406 143.980469 5.757812 143.808594 6.191406 Z M 139.511719 4.4375 C 139.339844 4.871094 139.222656 5.269531 139.164062 5.636719 C 139.105469 6 139.105469 6.316406 139.15625 6.585938 C 139.210938 6.832031 139.320312 7.046875 139.484375 7.226562 C 139.648438 7.40625 139.878906 7.558594 140.175781 7.675781 C 140.714844 7.890625 141.183594 7.875 141.582031 7.628906 C 141.800781 7.496094 142.011719 7.28125 142.210938 6.992188 C 142.414062 6.703125 142.601562 6.339844 142.773438 5.90625 C 142.945312 5.472656 143.058594 5.074219 143.109375 4.714844 C 143.164062 4.359375 143.164062 4.050781 143.101562 3.796875 C 143.046875 3.539062 142.933594 3.320312 142.761719 3.140625 C 142.589844 2.960938 142.363281 2.816406 142.085938 2.703125 C 141.8125 2.597656 141.5625 2.546875 141.332031 2.558594 C 141.101562 2.570312 140.882812 2.636719 140.683594 2.753906 C 140.242188 3.023438 139.847656 3.585938 139.511719 4.4375 Z M 139.511719 4.4375 "/>
<path style=" stroke:none;fill-rule:nonzero;fill:rgb(0%,0%,0%);fill-opacity:1;" d="M 151.210938 12.261719 C 151.082031 12.246094 150.949219 12.210938 150.808594 12.15625 C 150.671875 12.105469 150.519531 12.023438 150.347656 11.910156 C 150.34375 11.96875 150.335938 12.050781 150.324219 12.148438 C 150.316406 12.246094 150.296875 12.351562 150.265625 12.460938 L 149.707031 14.578125 L 150.125 15.238281 L 149.832031 15.527344 L 148.535156 14.207031 L 148.828125 13.917969 L 149.648438 11.421875 L 148.96875 10.734375 L 147.441406 12.246094 L 147.882812 12.953125 L 147.589844 13.242188 L 145.859375 11.472656 L 146.152344 11.183594 L 146.78125 11.570312 L 150.324219 8.070312 L 149.949219 7.429688 L 150.242188 7.140625 L 152.363281 9.304688 C 152.554688 9.5 152.703125 9.6875 152.8125 9.871094 C 152.917969 10.054688 152.988281 10.246094 153.023438 10.445312 C 153.070312 10.6875 153.050781 10.9375 152.964844 11.1875 C 152.878906 11.441406 152.75 11.65625 152.578125 11.824219 C 152.410156 11.992188 152.199219 12.117188 151.953125 12.195312 C 151.707031 12.273438 151.460938 12.296875 151.210938 12.261719 Z M 151.023438 8.707031 L 149.351562 10.355469 L 150.152344 11.167969 C 150.371094 11.390625 150.613281 11.515625 150.882812 11.535156 C 151.035156 11.546875 151.195312 11.515625 151.363281 11.441406 C 151.53125 11.367188 151.683594 11.261719 151.824219 11.125 C 151.957031 10.992188 152.054688 10.847656 152.121094 10.6875 C 152.183594 10.527344 152.210938 10.375 152.199219 10.226562 C 152.1875 10.101562 152.148438 9.980469 152.085938 9.863281 C 152.019531 9.746094 151.921875 9.625 151.792969 9.492188 Z M 151.023438 8.707031 "/>
<g clip-path="url(#clip5)" clip-rule="nonzero">
<path style=" stroke:none;fill-rule:nonzero;fill:rgb(0%,0%,0%);fill-opacity:1;" d="M 157.105469 20.546875 L 155.015625 21.40625 L 154.820312 20.921875 L 155.542969 20.457031 L 155.039062 19.21875 L 152.890625 20.105469 L 153.839844 22.429688 L 155.183594 22.152344 L 155.40625 22.695312 L 153.644531 23.421875 L 151.714844 18.699219 L 152.09375 18.542969 L 152.5625 19.21875 L 157.160156 17.324219 L 157.023438 16.511719 L 157.402344 16.355469 L 159.261719 20.902344 L 157.585938 21.589844 L 157.386719 21.097656 L 158.460938 20.367188 L 157.566406 18.175781 L 155.550781 19.007812 L 156.058594 20.246094 L 156.90625 20.0625 Z M 157.105469 20.546875 "/>
</g>
<path style=" stroke:none;fill-rule:nonzero;fill:rgb(0%,0%,0%);fill-opacity:1;" d="M 110.183594 37.40625 L 109.75 36.808594 L 105.882812 40.140625 L 105.894531 40.171875 L 110.957031 39.84375 L 110.855469 39.101562 L 111.242188 38.949219 L 112.027344 40.921875 L 111.640625 41.078125 L 111.207031 40.480469 L 105.246094 40.777344 L 104.902344 39.90625 L 109.371094 35.855469 L 109.28125 35.140625 L 109.667969 34.984375 L 110.570312 37.25 Z M 110.183594 37.40625 "/>
<path style=" stroke:none;fill-rule:nonzero;fill:rgb(0%,0%,0%);fill-opacity:1;" d="M 117.742188 48.058594 L 117.101562 47.667969 L 113.507812 51.226562 L 113.890625 51.875 L 113.59375 52.171875 L 111.902344 50.445312 L 112.199219 50.152344 L 112.839844 50.542969 L 114.5 48.898438 L 112.496094 46.859375 L 110.835938 48.503906 L 111.21875 49.152344 L 110.921875 49.449219 L 109.226562 47.722656 L 109.523438 47.429688 L 110.164062 47.824219 L 113.757812 44.261719 L 113.375 43.613281 L 113.671875 43.320312 L 115.367188 45.042969 L 115.070312 45.339844 L 114.429688 44.945312 L 112.882812 46.476562 L 114.886719 48.515625 L 116.433594 46.984375 L 116.050781 46.335938 L 116.347656 46.042969 L 118.039062 47.765625 Z M 117.742188 48.058594 "/>
<path style=" stroke:none;fill-rule:nonzero;fill:rgb(0%,0%,0%);fill-opacity:1;" d="M 120.695312 56.238281 C 120.386719 56.109375 120.132812 55.945312 119.925781 55.75 C 119.722656 55.554688 119.574219 55.328125 119.480469 55.074219 L 119.199219 55.503906 L 118.671875 55.28125 L 119.453125 53.417969 L 120.019531 53.65625 C 119.832031 54.1875 119.804688 54.617188 119.933594 54.945312 C 120.066406 55.273438 120.34375 55.523438 120.769531 55.703125 C 121.125 55.855469 121.429688 55.898438 121.671875 55.835938 C 121.917969 55.773438 122.101562 55.601562 122.21875 55.324219 C 122.3125 55.09375 122.335938 54.878906 122.285156 54.679688 C 122.234375 54.484375 122.125 54.28125 121.957031 54.070312 C 121.792969 53.859375 121.582031 53.636719 121.335938 53.390625 C 121.0625 53.113281 120.839844 52.855469 120.664062 52.617188 C 120.484375 52.375 120.378906 52.132812 120.335938 51.882812 C 120.300781 51.632812 120.34375 51.355469 120.472656 51.042969 C 120.691406 50.53125 121.015625 50.199219 121.453125 50.050781 C 121.886719 49.898438 122.371094 49.9375 122.90625 50.164062 C 123.433594 50.386719 123.796875 50.71875 124.003906 51.15625 L 124.21875 50.820312 L 124.746094 51.042969 L 123.964844 52.90625 L 123.429688 52.679688 C 123.644531 52.171875 123.707031 51.757812 123.617188 51.441406 C 123.527344 51.121094 123.277344 50.878906 122.875 50.707031 C 122.1875 50.417969 121.707031 50.589844 121.441406 51.222656 C 121.367188 51.40625 121.339844 51.570312 121.359375 51.710938 C 121.382812 51.851562 121.457031 52.007812 121.585938 52.175781 C 121.714844 52.339844 121.90625 52.558594 122.15625 52.820312 C 122.519531 53.203125 122.796875 53.535156 122.992188 53.828125 C 123.1875 54.117188 123.300781 54.390625 123.335938 54.644531 C 123.371094 54.898438 123.332031 55.164062 123.214844 55.445312 C 123.074219 55.78125 122.871094 56.03125 122.613281 56.199219 C 122.355469 56.367188 122.0625 56.457031 121.734375 56.460938 C 121.402344 56.464844 121.058594 56.390625 120.695312 56.238281 Z M 120.695312 56.238281 "/>
<path style=" stroke:none;fill-rule:nonzero;fill:rgb(0%,0%,0%);fill-opacity:1;" d="M 128.246094 53.609375 L 128.273438 51.738281 L 133.527344 51.820312 L 133.5 53.691406 L 133.011719 53.683594 L 132.757812 52.371094 L 131.371094 52.351562 L 131.289062 57.429688 L 132.207031 57.652344 L 132.199219 58.070312 L 129.40625 58.027344 L 129.414062 57.609375 L 130.335938 57.414062 L 130.414062 52.335938 L 129.019531 52.3125 L 128.730469 53.617188 Z M 128.246094 53.609375 "/>
<path style=" stroke:none;fill-rule:nonzero;fill:rgb(0%,0%,0%);fill-opacity:1;" d="M 143.210938 51.820312 C 143.394531 52.285156 143.496094 52.753906 143.519531 53.222656 C 143.542969 53.691406 143.480469 54.117188 143.335938 54.5 C 143.203125 54.828125 143.003906 55.113281 142.734375 55.355469 C 142.46875 55.59375 142.125 55.800781 141.703125 55.964844 C 141.285156 56.132812 140.894531 56.222656 140.535156 56.238281 C 140.171875 56.25 139.839844 56.183594 139.539062 56.042969 C 139.199219 55.886719 138.882812 55.636719 138.589844 55.300781 C 138.296875 54.964844 138.058594 54.5625 137.875 54.101562 C 137.691406 53.632812 137.585938 53.160156 137.566406 52.691406 C 137.546875 52.222656 137.605469 51.800781 137.75 51.421875 C 137.878906 51.089844 138.074219 50.808594 138.332031 50.570312 C 138.589844 50.335938 138.933594 50.136719 139.359375 49.964844 C 139.769531 49.800781 140.15625 49.710938 140.515625 49.699219 C 140.875 49.683594 141.214844 49.742188 141.539062 49.882812 C 141.898438 50.046875 142.226562 50.300781 142.515625 50.640625 C 142.804688 50.984375 143.035156 51.378906 143.210938 51.820312 Z M 138.820312 53.535156 C 138.996094 53.980469 139.1875 54.355469 139.398438 54.664062 C 139.605469 54.976562 139.824219 55.210938 140.050781 55.371094 C 140.265625 55.515625 140.492188 55.597656 140.738281 55.617188 C 140.984375 55.632812 141.257812 55.582031 141.558594 55.460938 C 142.109375 55.242188 142.441406 54.902344 142.566406 54.441406 C 142.632812 54.1875 142.640625 53.886719 142.589844 53.53125 C 142.535156 53.179688 142.421875 52.78125 142.246094 52.339844 C 142.074219 51.894531 141.878906 51.523438 141.671875 51.222656 C 141.460938 50.921875 141.246094 50.699219 141.023438 50.550781 C 140.804688 50.398438 140.570312 50.316406 140.316406 50.308594 C 140.066406 50.292969 139.800781 50.34375 139.515625 50.457031 C 139.238281 50.566406 139.019531 50.707031 138.859375 50.878906 C 138.695312 51.046875 138.582031 51.246094 138.515625 51.472656 C 138.378906 51.984375 138.480469 52.671875 138.820312 53.535156 Z M 138.820312 53.535156 "/>
<path style=" stroke:none;fill-rule:nonzero;fill:rgb(0%,0%,0%);fill-opacity:1;" d="M 149.832031 45.980469 C 149.816406 46.113281 149.785156 46.25 149.734375 46.390625 C 149.683594 46.53125 149.601562 46.691406 149.488281 46.863281 C 149.550781 46.867188 149.632812 46.875 149.734375 46.882812 C 149.832031 46.894531 149.9375 46.914062 150.046875 46.941406 L 152.195312 47.480469 L 152.859375 47.042969 L 153.15625 47.335938 L 151.839844 48.675781 L 151.539062 48.382812 L 149.011719 47.585938 L 148.320312 48.289062 L 149.871094 49.824219 L 150.578125 49.363281 L 150.875 49.65625 L 149.113281 51.449219 L 148.816406 51.15625 L 149.199219 50.503906 L 145.605469 46.945312 L 144.964844 47.335938 L 144.667969 47.042969 L 146.828125 44.847656 C 147.019531 44.648438 147.210938 44.496094 147.394531 44.382812 C 147.578125 44.269531 147.769531 44.195312 147.96875 44.15625 C 148.214844 44.105469 148.464844 44.125 148.726562 44.207031 C 148.980469 44.292969 149.199219 44.421875 149.371094 44.59375 C 149.542969 44.761719 149.671875 44.972656 149.753906 45.222656 C 149.835938 45.472656 149.863281 45.726562 149.832031 45.980469 Z M 146.242188 46.226562 L 147.933594 47.902344 L 148.742188 47.078125 C 148.964844 46.851562 149.085938 46.597656 149.105469 46.324219 C 149.113281 46.167969 149.078125 46.003906 149 45.835938 C 148.921875 45.664062 148.816406 45.511719 148.675781 45.371094 C 148.539062 45.238281 148.390625 45.140625 148.230469 45.078125 C 148.066406 45.015625 147.910156 44.988281 147.757812 45.003906 C 147.632812 45.015625 147.511719 45.054688 147.394531 45.125 C 147.277344 45.195312 147.15625 45.292969 147.027344 45.425781 Z M 146.242188 46.226562 "/>
<path style=" stroke:none;fill-rule:nonzero;fill:rgb(0%,0%,0%);fill-opacity:1;" d="M 153.398438 37.550781 L 155.515625 38.429688 L 155.3125 38.921875 L 154.460938 38.738281 L 153.941406 39.992188 L 156.125 40.898438 L 157.09375 38.539062 L 155.929688 37.773438 L 156.152344 37.222656 L 157.941406 37.964844 L 155.96875 42.753906 L 155.585938 42.59375 L 155.726562 41.769531 L 151.0625 39.835938 L 150.582031 40.523438 L 150.199219 40.363281 L 152.09375 35.75 L 153.792969 36.453125 L 153.589844 36.953125 L 152.292969 36.707031 L 151.378906 38.929688 L 153.421875 39.777344 L 153.9375 38.523438 L 153.199219 38.042969 Z M 153.398438 37.550781 "/>
<path style=" stroke:none;fill-rule:nonzero;fill:rgb(0%,0%,0%);fill-opacity:1;" d="M 102.855469 29.800781 C 102.855469 28.476562 103.925781 27.40625 105.242188 27.40625 C 106.558594 27.40625 107.628906 28.476562 107.628906 29.800781 C 107.628906 31.125 106.558594 32.195312 105.242188 32.195312 C 103.925781 32.195312 102.855469 31.125 102.855469 29.800781 Z M 102.855469 29.800781 "/>
<g clip-path="url(#clip6)" clip-rule="nonzero">
<path style=" stroke:none;fill-rule:nonzero;fill:rgb(0%,0%,0%);fill-opacity:1;" d="M 154.335938 29.800781 C 154.335938 28.476562 155.402344 27.40625 156.71875 27.40625 C 158.039062 27.40625 159.105469 28.476562 159.105469 29.800781 C 159.105469 31.125 158.039062 32.195312 156.71875 32.195312 C 155.402344 32.195312 154.335938 31.125 154.335938 29.800781 Z M 154.335938 29.800781 "/>
</g>
</g>
</svg>
